<?xml version="1.0" standalone="no"?>
 <!DOCTYPE svg PUBLIC "-//W3C//DTD SVG 1.1//EN" 
 "http://www.w3.org/Graphics/SVG/1.1/DTD/svg11.dtd"> 
<svg xmlns="http://www.w3.org/2000/svg" version="1.1" 
    width="29.7002cm" height="21.0007cm" viewBox="0 0 116930 82680 ">
<title>SVG Picture created as AutoUSB-KIT-v6-F_SilkS.svg date 2022/01/24 08:35:16 </title>
  <desc>Picture generated by PCBNEW </desc>
<g style="fill:#000000; fill-opacity:1;stroke:#000000; stroke-opacity:1;
stroke-linecap:round; stroke-linejoin:round; "
 transform="translate(0 0) scale(1 1)">
</g>
<g style="fill:#000000; fill-opacity:0.0; 
stroke:#000000; stroke-width:-0.000393701; stroke-opacity:1; 
stroke-linecap:round; stroke-linejoin:round;">
</g>
<g style="fill:#000000; fill-opacity:0.0; 
stroke:#000000; stroke-width:118.11; stroke-opacity:1; 
stroke-linecap:round; stroke-linejoin:round;">
<g transform="rotate(-90 71851.3 37992.1)">
<text x="71851.3" y="38287.4"
textLength="1643.87" font-size="787.402" lengthAdjust="spacingAndGlyphs"
text-anchor="middle" opacity="0">RST</text>
</g>
<path d="M71584 38315
L71865 38512
" />
<path d="M71584 38652
L72174 38652
L72174 38428
L72146 38371
L72118 38343
L72062 38315
L71977 38315
L71921 38343
L71893 38371
L71865 38428
L71865 38652
" />
<path d="M71612 38090
L71584 38006
L71584 37865
L71612 37809
L71640 37781
L71696 37753
L71752 37753
L71809 37781
L71837 37809
L71865 37865
L71893 37978
L71921 38034
L71949 38062
L72005 38090
L72062 38090
L72118 38062
L72146 38034
L72174 37978
L72174 37837
L72146 37753
" />
<path d="M72174 37584
L72174 37246
" />
<path d="M71584 37415
L72174 37415
" />
</g>
<g style="fill:#000000; fill-opacity:0.0; 
stroke:#000000; stroke-width:49.2126; stroke-opacity:1; 
stroke-linecap:round; stroke-linejoin:round;">
<text x="76674.1" y="40570.9"
textLength="1188.41" font-size="314.961" lengthAdjust="spacingAndGlyphs"
text-anchor="middle" opacity="0">3.3/5</text>
<path d="M77157 40323
L77011 40323
L77090 40413
L77056 40413
L77034 40424
L77022 40435
L77011 40458
L77011 40514
L77022 40537
L77034 40548
L77056 40559
L77124 40559
L77146 40548
L77157 40537
" />
<path d="M76910 40537
L76899 40548
L76910 40559
L76921 40548
L76910 40537
L76910 40559
" />
<path d="M76820 40323
L76674 40323
L76752 40413
L76719 40413
L76696 40424
L76685 40435
L76674 40458
L76674 40514
L76685 40537
L76696 40548
L76719 40559
L76786 40559
L76809 40548
L76820 40537
" />
<path d="M76404 40312
L76606 40615
" />
<path d="M76212 40323
L76325 40323
L76336 40435
L76325 40424
L76302 40413
L76246 40413
L76224 40424
L76212 40435
L76201 40458
L76201 40514
L76212 40537
L76224 40548
L76246 40559
L76302 40559
L76325 40548
L76336 40537
" />
</g>
<g style="fill:#000000; fill-opacity:0.0; 
stroke:#000000; stroke-width:59.0551; stroke-opacity:1; 
stroke-linecap:round; stroke-linejoin:round;">
<text x="81398.5" y="35452.8"
textLength="1481.3" font-size="314.961" lengthAdjust="spacingAndGlyphs"
text-anchor="middle" opacity="0">Vr/Vusb</text>
<path d="M82084 35205
L82005 35441
L81927 35205
" />
<path d="M81848 35441
L81848 35284
" />
<path d="M81848 35329
L81837 35306
L81825 35295
L81803 35284
L81780 35284
" />
<path d="M81533 35194
L81735 35497
" />
<path d="M81488 35205
L81409 35441
L81331 35205
" />
<path d="M81151 35284
L81151 35441
" />
<path d="M81252 35284
L81252 35407
L81241 35430
L81218 35441
L81184 35441
L81162 35430
L81151 35419
" />
<path d="M81049 35430
L81027 35441
L80982 35441
L80959 35430
L80948 35407
L80948 35396
L80959 35374
L80982 35362
L81016 35362
L81038 35351
L81049 35329
L81049 35317
L81038 35295
L81016 35284
L80982 35284
L80959 35295
" />
<path d="M80847 35441
L80847 35205
" />
<path d="M80847 35295
L80824 35284
L80779 35284
L80757 35295
L80746 35306
L80734 35329
L80734 35396
L80746 35419
L80757 35430
L80779 35441
L80824 35441
L80847 35430
" />
</g>
<g style="fill:#000000; fill-opacity:0.0; 
stroke:#000000; stroke-width:118.11; stroke-opacity:1; 
stroke-linecap:round; stroke-linejoin:round;">
<text x="71162.3" y="15846.5"
textLength="1201.63" font-size="787.402" lengthAdjust="spacingAndGlyphs"
text-anchor="middle" opacity="0">40</text>
<path d="M71331 15424
L71331 15818
" />
<path d="M71471 15199
L71612 15621
L71246 15621
" />
<path d="M70909 15227
L70852 15227
L70796 15255
L70768 15284
L70740 15340
L70712 15452
L70712 15593
L70740 15705
L70768 15762
L70796 15790
L70852 15818
L70909 15818
L70965 15790
L70993 15762
L71021 15705
L71049 15593
L71049 15452
L71021 15340
L70993 15284
L70965 15255
L70909 15227
" />
<text x="71162.3" y="16929.1"
textLength="1278.4" font-size="787.402" lengthAdjust="spacingAndGlyphs"
text-anchor="middle" opacity="0">39</text>
<path d="M71640 16310
L71274 16310
L71471 16535
L71387 16535
L71331 16563
L71302 16591
L71274 16647
L71274 16788
L71302 16844
L71331 16872
L71387 16901
L71555 16901
L71612 16872
L71640 16844
" />
<path d="M70993 16901
L70881 16901
L70824 16872
L70796 16844
L70740 16760
L70712 16647
L70712 16422
L70740 16366
L70768 16338
L70824 16310
L70937 16310
L70993 16338
L71021 16366
L71049 16422
L71049 16563
L71021 16619
L70993 16647
L70937 16676
L70824 16676
L70768 16647
L70740 16619
L70712 16563
" />
<text x="71162.3" y="17913.4"
textLength="1278.4" font-size="787.402" lengthAdjust="spacingAndGlyphs"
text-anchor="middle" opacity="0">38</text>
<path d="M71640 17294
L71274 17294
L71471 17519
L71387 17519
L71331 17547
L71302 17575
L71274 17632
L71274 17772
L71302 17829
L71331 17857
L71387 17885
L71555 17885
L71612 17857
L71640 17829
" />
<path d="M70937 17547
L70993 17519
L71021 17491
L71049 17435
L71049 17407
L71021 17350
L70993 17322
L70937 17294
L70824 17294
L70768 17322
L70740 17350
L70712 17407
L70712 17435
L70740 17491
L70768 17519
L70824 17547
L70937 17547
L70993 17575
L71021 17604
L71049 17660
L71049 17772
L71021 17829
L70993 17857
L70937 17885
L70824 17885
L70768 17857
L70740 17829
L70712 17772
L70712 17660
L70740 17604
L70768 17575
L70824 17547
" />
<text x="71162.3" y="18897.6"
textLength="1278.4" font-size="787.402" lengthAdjust="spacingAndGlyphs"
text-anchor="middle" opacity="0">37</text>
<path d="M71640 18278
L71274 18278
L71471 18503
L71387 18503
L71331 18532
L71302 18560
L71274 18616
L71274 18757
L71302 18813
L71331 18841
L71387 18869
L71555 18869
L71612 18841
L71640 18813
" />
<path d="M71077 18278
L70684 18278
L70937 18869
" />
<text x="71162.3" y="19881.9"
textLength="1278.4" font-size="787.402" lengthAdjust="spacingAndGlyphs"
text-anchor="middle" opacity="0">36</text>
<path d="M71640 19263
L71274 19263
L71471 19488
L71387 19488
L71331 19516
L71302 19544
L71274 19600
L71274 19741
L71302 19797
L71331 19825
L71387 19853
L71555 19853
L71612 19825
L71640 19797
" />
<path d="M70768 19263
L70881 19263
L70937 19291
L70965 19319
L71021 19403
L71049 19516
L71049 19741
L71021 19797
L70993 19825
L70937 19853
L70824 19853
L70768 19825
L70740 19797
L70712 19741
L70712 19600
L70740 19544
L70768 19516
L70824 19488
L70937 19488
L70993 19516
L71021 19544
L71049 19600
" />
<text x="71162.3" y="20964.6"
textLength="1278.4" font-size="787.402" lengthAdjust="spacingAndGlyphs"
text-anchor="middle" opacity="0">35</text>
<path d="M71640 20345
L71274 20345
L71471 20570
L71387 20570
L71331 20598
L71302 20627
L71274 20683
L71274 20823
L71302 20880
L71331 20908
L71387 20936
L71555 20936
L71612 20908
L71640 20880
" />
<path d="M70740 20345
L71021 20345
L71049 20627
L71021 20598
L70965 20570
L70824 20570
L70768 20598
L70740 20627
L70712 20683
L70712 20823
L70740 20880
L70768 20908
L70824 20936
L70965 20936
L71021 20908
L71049 20880
" />
<text x="71162.3" y="21948.8"
textLength="1278.4" font-size="787.402" lengthAdjust="spacingAndGlyphs"
text-anchor="middle" opacity="0">34</text>
<path d="M71640 21330
L71274 21330
L71471 21555
L71387 21555
L71331 21583
L71302 21611
L71274 21667
L71274 21808
L71302 21864
L71331 21892
L71387 21920
L71555 21920
L71612 21892
L71640 21864
" />
<path d="M70768 21526
L70768 21920
" />
<path d="M70909 21302
L71049 21723
L70684 21723
" />
<text x="71162.3" y="22933.1"
textLength="1278.4" font-size="787.402" lengthAdjust="spacingAndGlyphs"
text-anchor="middle" opacity="0">33</text>
<path d="M71640 22314
L71274 22314
L71471 22539
L71387 22539
L71331 22567
L71302 22595
L71274 22651
L71274 22792
L71302 22848
L71331 22876
L71387 22904
L71555 22904
L71612 22876
L71640 22848
" />
<path d="M71077 22314
L70712 22314
L70909 22539
L70824 22539
L70768 22567
L70740 22595
L70712 22651
L70712 22792
L70740 22848
L70768 22876
L70824 22904
L70993 22904
L71049 22876
L71077 22848
" />
<text x="71063.9" y="23917.3"
textLength="1840.83" font-size="787.402" lengthAdjust="spacingAndGlyphs"
text-anchor="middle" opacity="0">VDD</text>
<path d="M71851 23298
L71654 23889
L71457 23298
" />
<path d="M71260 23889
L71260 23298
L71120 23298
L71035 23326
L70979 23383
L70951 23439
L70923 23551
L70923 23636
L70951 23748
L70979 23804
L71035 23861
L71120 23889
L71260 23889
" />
<path d="M70670 23889
L70670 23298
L70529 23298
L70445 23326
L70388 23383
L70360 23439
L70332 23551
L70332 23636
L70360 23748
L70388 23804
L70445 23861
L70529 23889
L70670 23889
" />
<text x="71162.3" y="24901.6"
textLength="1953.32" font-size="787.402" lengthAdjust="spacingAndGlyphs"
text-anchor="middle" opacity="0">GND</text>
<path d="M71612 24311
L71668 24282
L71752 24282
L71837 24311
L71893 24367
L71921 24423
L71949 24535
L71949 24620
L71921 24732
L71893 24789
L71837 24845
L71752 24873
L71696 24873
L71612 24845
L71584 24817
L71584 24620
L71696 24620
" />
<path d="M71331 24873
L71331 24282
L70993 24873
L70993 24282
" />
<path d="M70712 24873
L70712 24282
L70571 24282
L70487 24311
L70431 24367
L70403 24423
L70374 24535
L70374 24620
L70403 24732
L70431 24789
L70487 24845
L70571 24873
L70712 24873
" />
<text x="71162.3" y="25885.8"
textLength="1278.4" font-size="787.402" lengthAdjust="spacingAndGlyphs"
text-anchor="middle" opacity="0">30</text>
<path d="M71640 25267
L71274 25267
L71471 25492
L71387 25492
L71331 25520
L71302 25548
L71274 25604
L71274 25745
L71302 25801
L71331 25829
L71387 25857
L71555 25857
L71612 25829
L71640 25801
" />
<path d="M70909 25267
L70852 25267
L70796 25295
L70768 25323
L70740 25379
L70712 25492
L70712 25632
L70740 25745
L70768 25801
L70796 25829
L70852 25857
L70909 25857
L70965 25829
L70993 25801
L71021 25745
L71049 25632
L71049 25492
L71021 25379
L70993 25323
L70965 25295
L70909 25267
" />
<text x="71162.3" y="26870.1"
textLength="1278.4" font-size="787.402" lengthAdjust="spacingAndGlyphs"
text-anchor="middle" opacity="0">29</text>
<path d="M71612 26307
L71584 26279
L71527 26251
L71387 26251
L71331 26279
L71302 26307
L71274 26363
L71274 26420
L71302 26504
L71640 26841
L71274 26841
" />
<path d="M70993 26841
L70881 26841
L70824 26813
L70796 26785
L70740 26701
L70712 26588
L70712 26363
L70740 26307
L70768 26279
L70824 26251
L70937 26251
L70993 26279
L71021 26307
L71049 26363
L71049 26504
L71021 26560
L70993 26588
L70937 26616
L70824 26616
L70768 26588
L70740 26560
L70712 26504
" />
<text x="71162.3" y="27854.3"
textLength="1278.4" font-size="787.402" lengthAdjust="spacingAndGlyphs"
text-anchor="middle" opacity="0">28</text>
<path d="M71612 27291
L71584 27263
L71527 27235
L71387 27235
L71331 27263
L71302 27291
L71274 27348
L71274 27404
L71302 27488
L71640 27826
L71274 27826
" />
<path d="M70937 27488
L70993 27460
L71021 27432
L71049 27376
L71049 27348
L71021 27291
L70993 27263
L70937 27235
L70824 27235
L70768 27263
L70740 27291
L70712 27348
L70712 27376
L70740 27432
L70768 27460
L70824 27488
L70937 27488
L70993 27516
L71021 27544
L71049 27601
L71049 27713
L71021 27769
L70993 27798
L70937 27826
L70824 27826
L70768 27798
L70740 27769
L70712 27713
L70712 27601
L70740 27544
L70768 27516
L70824 27488
" />
<text x="71162.3" y="28937"
textLength="1278.4" font-size="787.402" lengthAdjust="spacingAndGlyphs"
text-anchor="middle" opacity="0">27</text>
<path d="M71612 28374
L71584 28346
L71527 28318
L71387 28318
L71331 28346
L71302 28374
L71274 28430
L71274 28487
L71302 28571
L71640 28908
L71274 28908
" />
<path d="M71077 28318
L70684 28318
L70937 28908
" />
<text x="71162.3" y="29921.3"
textLength="1278.4" font-size="787.402" lengthAdjust="spacingAndGlyphs"
text-anchor="middle" opacity="0">26</text>
<path d="M71612 29358
L71584 29330
L71527 29302
L71387 29302
L71331 29330
L71302 29358
L71274 29415
L71274 29471
L71302 29555
L71640 29893
L71274 29893
" />
<path d="M70768 29302
L70881 29302
L70937 29330
L70965 29358
L71021 29443
L71049 29555
L71049 29780
L71021 29836
L70993 29865
L70937 29893
L70824 29893
L70768 29865
L70740 29836
L70712 29780
L70712 29640
L70740 29583
L70768 29555
L70824 29527
L70937 29527
L70993 29555
L71021 29583
L71049 29640
" />
<text x="71162.3" y="30905.5"
textLength="1278.4" font-size="787.402" lengthAdjust="spacingAndGlyphs"
text-anchor="middle" opacity="0">25</text>
<path d="M71612 30343
L71584 30314
L71527 30286
L71387 30286
L71331 30314
L71302 30343
L71274 30399
L71274 30455
L71302 30539
L71640 30877
L71274 30877
" />
<path d="M70740 30286
L71021 30286
L71049 30568
L71021 30539
L70965 30511
L70824 30511
L70768 30539
L70740 30568
L70712 30624
L70712 30764
L70740 30821
L70768 30849
L70824 30877
L70965 30877
L71021 30849
L71049 30821
" />
<text x="71162.3" y="31889.8"
textLength="1278.4" font-size="787.402" lengthAdjust="spacingAndGlyphs"
text-anchor="middle" opacity="0">24</text>
<path d="M71612 31327
L71584 31299
L71527 31271
L71387 31271
L71331 31299
L71302 31327
L71274 31383
L71274 31439
L71302 31524
L71640 31861
L71274 31861
" />
<path d="M70768 31467
L70768 31861
" />
<path d="M70909 31242
L71049 31664
L70684 31664
" />
<text x="71162.3" y="32874"
textLength="1278.4" font-size="787.402" lengthAdjust="spacingAndGlyphs"
text-anchor="middle" opacity="0">23</text>
<path d="M71612 32311
L71584 32283
L71527 32255
L71387 32255
L71331 32283
L71302 32311
L71274 32367
L71274 32424
L71302 32508
L71640 32845
L71274 32845
" />
<path d="M71077 32255
L70712 32255
L70909 32480
L70824 32480
L70768 32508
L70740 32536
L70712 32592
L70712 32733
L70740 32789
L70768 32817
L70824 32845
L70993 32845
L71049 32817
L71077 32789
" />
<text x="71162.3" y="33858.3"
textLength="1278.4" font-size="787.402" lengthAdjust="spacingAndGlyphs"
text-anchor="middle" opacity="0">22</text>
<path d="M71612 33295
L71584 33267
L71527 33239
L71387 33239
L71331 33267
L71302 33295
L71274 33352
L71274 33408
L71302 33492
L71640 33830
L71274 33830
" />
<path d="M71049 33295
L71021 33267
L70965 33239
L70824 33239
L70768 33267
L70740 33295
L70712 33352
L70712 33408
L70740 33492
L71077 33830
L70712 33830
" />
<text x="71162.3" y="34940.9"
textLength="1278.4" font-size="787.402" lengthAdjust="spacingAndGlyphs"
text-anchor="middle" opacity="0">21</text>
<path d="M71612 34378
L71584 34350
L71527 34322
L71387 34322
L71331 34350
L71302 34378
L71274 34434
L71274 34491
L71302 34575
L71640 34912
L71274 34912
" />
<path d="M70712 34912
L71049 34912
" />
<path d="M70881 34912
L70881 34322
L70937 34406
L70993 34462
L71049 34491
" />
<text x="82973.3" y="35039.4"
textLength="1278.4" font-size="787.402" lengthAdjust="spacingAndGlyphs"
text-anchor="middle" opacity="0">20</text>
<path d="M83423 34476
L83395 34448
L83338 34420
L83198 34420
L83142 34448
L83113 34476
L83085 34533
L83085 34589
L83113 34673
L83451 35011
L83085 35011
" />
<path d="M82720 34420
L82663 34420
L82607 34448
L82579 34476
L82551 34533
L82523 34645
L82523 34786
L82551 34898
L82579 34955
L82607 34983
L82663 35011
L82720 35011
L82776 34983
L82804 34955
L82832 34898
L82860 34786
L82860 34645
L82832 34533
L82804 34476
L82776 34448
L82720 34420
" />
<text x="82973.3" y="33956.7"
textLength="1278.4" font-size="787.402" lengthAdjust="spacingAndGlyphs"
text-anchor="middle" opacity="0">19</text>
<path d="M83085 33928
L83423 33928
" />
<path d="M83254 33928
L83254 33338
L83310 33422
L83367 33478
L83423 33506
" />
<path d="M82804 33928
L82692 33928
L82635 33900
L82607 33872
L82551 33787
L82523 33675
L82523 33450
L82551 33394
L82579 33366
L82635 33338
L82748 33338
L82804 33366
L82832 33394
L82860 33450
L82860 33591
L82832 33647
L82804 33675
L82748 33703
L82635 33703
L82579 33675
L82551 33647
L82523 33591
" />
<text x="82973.3" y="32972.4"
textLength="1278.4" font-size="787.402" lengthAdjust="spacingAndGlyphs"
text-anchor="middle" opacity="0">18</text>
<path d="M83085 32944
L83423 32944
" />
<path d="M83254 32944
L83254 32353
L83310 32438
L83367 32494
L83423 32522
" />
<path d="M82748 32606
L82804 32578
L82832 32550
L82860 32494
L82860 32466
L82832 32410
L82804 32381
L82748 32353
L82635 32353
L82579 32381
L82551 32410
L82523 32466
L82523 32494
L82551 32550
L82579 32578
L82635 32606
L82748 32606
L82804 32634
L82832 32663
L82860 32719
L82860 32831
L82832 32888
L82804 32916
L82748 32944
L82635 32944
L82579 32916
L82551 32888
L82523 32831
L82523 32719
L82551 32663
L82579 32634
L82635 32606
" />
<text x="82973.3" y="31889.8"
textLength="1278.4" font-size="787.402" lengthAdjust="spacingAndGlyphs"
text-anchor="middle" opacity="0">17</text>
<path d="M83085 31861
L83423 31861
" />
<path d="M83254 31861
L83254 31271
L83310 31355
L83367 31411
L83423 31439
" />
<path d="M82888 31271
L82495 31271
L82748 31861
" />
<text x="82973.3" y="30905.5"
textLength="1278.4" font-size="787.402" lengthAdjust="spacingAndGlyphs"
text-anchor="middle" opacity="0">16</text>
<path d="M83085 30877
L83423 30877
" />
<path d="M83254 30877
L83254 30286
L83310 30371
L83367 30427
L83423 30455
" />
<path d="M82579 30286
L82692 30286
L82748 30314
L82776 30343
L82832 30427
L82860 30539
L82860 30764
L82832 30821
L82804 30849
L82748 30877
L82635 30877
L82579 30849
L82551 30821
L82523 30764
L82523 30624
L82551 30568
L82579 30539
L82635 30511
L82748 30511
L82804 30539
L82832 30568
L82860 30624
" />
<text x="82973.3" y="29921.3"
textLength="1278.4" font-size="787.402" lengthAdjust="spacingAndGlyphs"
text-anchor="middle" opacity="0">15</text>
<path d="M83085 29893
L83423 29893
" />
<path d="M83254 29893
L83254 29302
L83310 29386
L83367 29443
L83423 29471
" />
<path d="M82551 29302
L82832 29302
L82860 29583
L82832 29555
L82776 29527
L82635 29527
L82579 29555
L82551 29583
L82523 29640
L82523 29780
L82551 29836
L82579 29865
L82635 29893
L82776 29893
L82832 29865
L82860 29836
" />
<text x="82874.9" y="28937"
textLength="1165.92" font-size="787.402" lengthAdjust="spacingAndGlyphs"
text-anchor="middle" opacity="0">5v</text>
<path d="M82959 28318
L83240 28318
L83268 28599
L83240 28571
L83184 28543
L83043 28543
L82987 28571
L82959 28599
L82931 28655
L82931 28796
L82959 28852
L82987 28880
L83043 28908
L83184 28908
L83240 28880
L83268 28852
" />
<path d="M82734 28515
L82593 28908
L82453 28515
" />
<text x="83071.7" y="27952.8"
textLength="1137.8" font-size="787.402" lengthAdjust="spacingAndGlyphs"
text-anchor="middle" opacity="0">xV</text>
<path d="M83479 27924
L83170 27530
" />
<path d="M83479 27530
L83170 27924
" />
<path d="M83029 27334
L82832 27924
L82635 27334
" />
<text x="83071.7" y="26968.5"
textLength="1953.32" font-size="787.402" lengthAdjust="spacingAndGlyphs"
text-anchor="middle" opacity="0">GND</text>
<path d="M83521 26377
L83577 26349
L83662 26349
L83746 26377
L83802 26434
L83831 26490
L83859 26602
L83859 26687
L83831 26799
L83802 26856
L83746 26912
L83662 26940
L83606 26940
L83521 26912
L83493 26884
L83493 26687
L83606 26687
" />
<path d="M83240 26940
L83240 26349
L82903 26940
L82903 26349
" />
<path d="M82621 26940
L82621 26349
L82481 26349
L82396 26377
L82340 26434
L82312 26490
L82284 26602
L82284 26687
L82312 26799
L82340 26856
L82396 26912
L82481 26940
L82621 26940
" />
<text x="82973.3" y="25885.8"
textLength="2009.56" font-size="787.402" lengthAdjust="spacingAndGlyphs"
text-anchor="middle" opacity="0">3.3v</text>
<path d="M83816 25267
L83451 25267
L83648 25492
L83563 25492
L83507 25520
L83479 25548
L83451 25604
L83451 25745
L83479 25801
L83507 25829
L83563 25857
L83732 25857
L83788 25829
L83816 25801
" />
<path d="M83198 25801
L83170 25829
L83198 25857
L83226 25829
L83198 25801
L83198 25857
" />
<path d="M82973 25267
L82607 25267
L82804 25492
L82720 25492
L82663 25520
L82635 25548
L82607 25604
L82607 25745
L82635 25801
L82663 25829
L82720 25857
L82888 25857
L82945 25829
L82973 25801
" />
<path d="M82410 25464
L82270 25857
L82129 25464
" />
<text x="82973.3" y="24901.6"
textLength="1278.4" font-size="787.402" lengthAdjust="spacingAndGlyphs"
text-anchor="middle" opacity="0">10</text>
<path d="M83085 24873
L83423 24873
" />
<path d="M83254 24873
L83254 24282
L83310 24367
L83367 24423
L83423 24451
" />
<path d="M82720 24282
L82663 24282
L82607 24311
L82579 24339
L82551 24395
L82523 24507
L82523 24648
L82551 24760
L82579 24817
L82607 24845
L82663 24873
L82720 24873
L82776 24845
L82804 24817
L82832 24760
L82860 24648
L82860 24507
L82832 24395
L82804 24339
L82776 24311
L82720 24282
" />
<text x="82973.3" y="23917.3"
textLength="715.973" font-size="787.402" lengthAdjust="spacingAndGlyphs"
text-anchor="middle" opacity="0">9</text>
<path d="M83085 23889
L82973 23889
L82917 23861
L82888 23832
L82832 23748
L82804 23636
L82804 23411
L82832 23354
L82860 23326
L82917 23298
L83029 23298
L83085 23326
L83113 23354
L83142 23411
L83142 23551
L83113 23607
L83085 23636
L83029 23664
L82917 23664
L82860 23636
L82832 23607
L82804 23551
" />
<text x="82973.3" y="22933.1"
textLength="715.973" font-size="787.402" lengthAdjust="spacingAndGlyphs"
text-anchor="middle" opacity="0">8</text>
<path d="M83029 22567
L83085 22539
L83113 22511
L83142 22455
L83142 22426
L83113 22370
L83085 22342
L83029 22314
L82917 22314
L82860 22342
L82832 22370
L82804 22426
L82804 22455
L82832 22511
L82860 22539
L82917 22567
L83029 22567
L83085 22595
L83113 22623
L83142 22679
L83142 22792
L83113 22848
L83085 22876
L83029 22904
L82917 22904
L82860 22876
L82832 22848
L82804 22792
L82804 22679
L82832 22623
L82860 22595
L82917 22567
" />
<text x="82973.3" y="21948.8"
textLength="715.973" font-size="787.402" lengthAdjust="spacingAndGlyphs"
text-anchor="middle" opacity="0">7</text>
<path d="M83170 21330
L82776 21330
L83029 21920
" />
<text x="82973.3" y="20964.6"
textLength="715.973" font-size="787.402" lengthAdjust="spacingAndGlyphs"
text-anchor="middle" opacity="0">6</text>
<path d="M82860 20345
L82973 20345
L83029 20374
L83057 20402
L83113 20486
L83142 20598
L83142 20823
L83113 20880
L83085 20908
L83029 20936
L82917 20936
L82860 20908
L82832 20880
L82804 20823
L82804 20683
L82832 20627
L82860 20598
L82917 20570
L83029 20570
L83085 20598
L83113 20627
L83142 20683
" />
<text x="82973.3" y="19980.3"
textLength="715.973" font-size="787.402" lengthAdjust="spacingAndGlyphs"
text-anchor="middle" opacity="0">5</text>
<path d="M82832 19361
L83113 19361
L83142 19642
L83113 19614
L83057 19586
L82917 19586
L82860 19614
L82832 19642
L82804 19699
L82804 19839
L82832 19895
L82860 19924
L82917 19952
L83057 19952
L83113 19924
L83142 19895
" />
<text x="82973.3" y="18996.1"
textLength="715.973" font-size="787.402" lengthAdjust="spacingAndGlyphs"
text-anchor="middle" opacity="0">4</text>
<path d="M82860 18574
L82860 18967
" />
<path d="M83001 18349
L83142 18771
L82776 18771
" />
<text x="82973.3" y="18011.8"
textLength="715.973" font-size="787.402" lengthAdjust="spacingAndGlyphs"
text-anchor="middle" opacity="0">3</text>
<path d="M83170 17393
L82804 17393
L83001 17618
L82917 17618
L82860 17646
L82832 17674
L82804 17730
L82804 17871
L82832 17927
L82860 17955
L82917 17983
L83085 17983
L83142 17955
L83170 17927
" />
<text x="82973.3" y="17027.6"
textLength="715.973" font-size="787.402" lengthAdjust="spacingAndGlyphs"
text-anchor="middle" opacity="0">2</text>
<path d="M83142 16465
L83113 16437
L83057 16408
L82917 16408
L82860 16437
L82832 16465
L82804 16521
L82804 16577
L82832 16661
L83170 16999
L82804 16999
" />
<text x="82973.3" y="15944.9"
textLength="715.973" font-size="787.402" lengthAdjust="spacingAndGlyphs"
text-anchor="middle" opacity="0">1</text>
<path d="M82804 15916
L83142 15916
" />
<path d="M82973 15916
L82973 15326
L83029 15410
L83085 15466
L83142 15494
" />
</g>
<g style="fill:#000000; fill-opacity:1.0; 
stroke:#000000; stroke-width:3.93701; stroke-opacity:1; 
stroke-linecap:round; stroke-linejoin:round;">
<path style="fill:#000000; fill-opacity:1.0; 
stroke:#000000; stroke-width:3.93701; stroke-opacity:1; 
stroke-linecap:round; stroke-linejoin:round;fill-rule:evenodd;"
d="M 83013.9,12505.1
82892,12569.1
82796.4,12622.6
82739.9,12658.2
82730.2,12667.7
82758.1,12688
82836.2,12734.4
82955.5,12801.8
83107.2,12885.2
83282.4,12979.7
83313.3,12996.2
83896.7,13307.1
83896.3,13628.6
83896,13950
83595.8,14110.6
83295.7,14271.2
82871.2,14047.9
82701,13958
82535.4,13869.7
82391.5,13792.3
82286.4,13734.8
82271.7,13726.6
82096.7,13628.4
82096.7,14258.9
82696.3,14579.5
82877.4,14676
83037.4,14760.6
83167.5,14828.6
83258.7,14875.6
83302.2,14896.7
83304.6,14897.4
83335.2,14881.6
83415.6,14838.9
83536.9,14774.1
83690.1,14692.1
83866.4,14597.5
83905.7,14576.3
84498.1,14257.9
84489,13623.3
84480,12988.8
83888.8,12674.5
83297.6,12360.3
Z" /> 
<path style="fill:#000000; fill-opacity:1.0; 
stroke:#000000; stroke-width:3.93701; stroke-opacity:1; 
stroke-linecap:round; stroke-linejoin:round;fill-rule:evenodd;"
d="M 82096.7,13473.5
82124.4,13498.9
82200.3,13549.2
82313.7,13618.4
82453.7,13700.7
82609.7,13789.8
82770.8,13879.7
82926.3,13964.5
83065.4,14038
83177.3,14094.3
83251.3,14127.2
83273.3,14133.3
83296.3,14108
83296.7,14102.5
83268.7,14076.9
83191.9,14027.2
83076.7,13959.9
82933.6,13881.1
82871.7,13848.2
82701.4,13758.2
82535.8,13669.9
82391.9,13592.4
82286.6,13534.9
82271.7,13526.6
82165.8,13472.9
82109.2,13458.7
Z" /> 
<path style="fill:#000000; fill-opacity:1.0; 
stroke:#000000; stroke-width:3.93701; stroke-opacity:1; 
stroke-linecap:round; stroke-linejoin:round;fill-rule:evenodd;"
d="M 82090.4,13278.4
82118.9,13313.9
82205.8,13374
82351.9,13459.2
82555,13568.7
82726.6,13659.3
82889.1,13745.9
83027.8,13820.8
83128.1,13875.9
83155,13891.2
83243,13937
83286.9,13945.2
83296.7,13925.7
83268.9,13900
83192.9,13849.4
83079.4,13780
82939.2,13697.7
82783.1,13608.6
82621.8,13518.7
82466.2,13434.2
82327,13360.9
82214.9,13305
82140.9,13272.5
82119.1,13266.7
Z" /> 
<path style="fill:#000000; fill-opacity:1.0; 
stroke:#000000; stroke-width:3.93701; stroke-opacity:1; 
stroke-linecap:round; stroke-linejoin:round;fill-rule:evenodd;"
d="M 82097.9,13078.9
82096.7,13092.8
82096.7,13094.5
82124.2,13123.9
82197.9,13175
82304.9,13239.4
82371.7,13276.4
82630.6,13415.9
82836.9,13526.3
82996.3,13610.3
83114.7,13670.8
83198,13710.7
83251.9,13732.8
83282.2,13740
83294.8,13735
83296.3,13727.9
83268,13699.2
83189.5,13645.6
83069.8,13572.7
82918,13486.1
82743.2,13391.1
82728.5,13383.3
82520.4,13273.4
82363.8,13191.1
82251.5,13133.3
82176.2,13096.6
82130.3,13077.5
82106.7,13072.7
Z" /> 
<path style="fill:#000000; fill-opacity:1.0; 
stroke:#000000; stroke-width:3.93701; stroke-opacity:1; 
stroke-linecap:round; stroke-linejoin:round;fill-rule:evenodd;"
d="M 82164,12957.2
82164,12958.3
82191.9,12978.4
82268.2,13023.6
82382.3,13088.1
82523.6,13166.3
82681.4,13252.3
82845,13340.4
83003.9,13424.8
83147.3,13499.7
83264.7,13559.4
83335.3,13593.4
83370.3,13580.9
83375.7,13573.7
83355.8,13547
83287.8,13498.3
83183,13435.1
83087.1,13382.8
82918.8,13293.8
82735.6,13195.8
82568.8,13105.5
82517.6,13077.6
82357,12993.5
82247.2,12946.3
82184.2,12934.7
Z" /> 
<path style="fill:#000000; fill-opacity:1.0; 
stroke:#000000; stroke-width:3.93701; stroke-opacity:1; 
stroke-linecap:round; stroke-linejoin:round;fill-rule:evenodd;"
d="M 82370.3,12842.6
82363.5,12857.4
82363.3,12862.1
82391.1,12883.6
82467.2,12929.9
82580.9,12995.2
82721.3,13073.6
82877.5,13159.4
83038.8,13246.5
83194.4,13329.2
83333.4,13401.7
83445,13458
83518.4,13492.2
83541.4,13500
83573.1,13476.5
83580,13466.7
83582.2,13435.7
83573.6,13433.2
83537.1,13418.2
83451.4,13376.4
83326,13312.8
83170.7,13232.2
82994.8,13139.4
82983.1,13133.2
82776.7,13023.8
82621.6,12943
82510.7,12887.6
82436.6,12854.5
82392.2,12840.6
Z" /> 
<path style="fill:#000000; fill-opacity:1.0; 
stroke:#000000; stroke-width:3.93701; stroke-opacity:1; 
stroke-linecap:round; stroke-linejoin:round;fill-rule:evenodd;"
d="M 82580.5,12778.5
82650.4,12824.5
82758.1,12889.7
82893.1,12968.4
83044.7,13054.6
83202.5,13142.4
83355.7,13225.9
83493.8,13299.2
83606.3,13356.4
83682.6,13391.6
83709.5,13400
83740,13377.2
83741.4,13375
83719.4,13351.3
83648.1,13304.2
83538.2,13239.5
83400.4,13162.8
83245.5,13079.5
83084.2,12995.5
82927.4,12916.1
82785.6,12847.2
82669.7,12794.2
82590.4,12762.7
82558.9,12757.8
Z" /> 
</g>
<g style="fill:#000000; fill-opacity:1.0; 
stroke:#000000; stroke-width:47.2441; stroke-opacity:1; 
stroke-linecap:round; stroke-linejoin:round;">
</g>
<g style="fill:#000000; fill-opacity:0.0; 
stroke:#000000; stroke-width:47.2441; stroke-opacity:1; 
stroke-linecap:round; stroke-linejoin:round;">
<path d="M72626 40286
L72430 40483
" />
<path d="M72233 40286
L72626 40286
" />
<path d="M72430 40483
L72233 40286
" />
<path d="M75347 47152
L75347 43861
" />
<path d="M70496 47152
L75347 47152
" />
<path d="M70496 43861
L70496 47152
" />
<path d="M75347 40570
L75347 42247
" />
<path d="M70496 40570
L75347 40570
" />
<path d="M70496 42247
L70496 40570
" />
<path d="M82204 37902
L82204 38099
" />
<path d="M82302 38001
L82105 38001
" />
<path d="M80174 38470
L80174 38693
" />
<path d="M80190 38377
L80190 38785
" />
<path d="M80205 38315
L80205 38848
" />
<path d="M80221 38264
L80221 38898
" />
<path d="M80237 38221
L80237 38942
" />
<path d="M80253 38183
L80253 38979
" />
<path d="M80268 38149
L80268 39014
" />
<path d="M80284 38118
L80284 39045
" />
<path d="M80300 38089
L80300 39074
" />
<path d="M80316 38062
L80316 39101
" />
<path d="M80331 38037
L80331 39126
" />
<path d="M80347 38013
L80347 39150
" />
<path d="M80363 37991
L80363 39172
" />
<path d="M80379 37970
L80379 39193
" />
<path d="M80394 37950
L80394 39213
" />
<path d="M80410 38991
L80410 39232
" />
<path d="M80410 37931
L80410 38172
" />
<path d="M80426 38991
L80426 39250
" />
<path d="M80426 37912
L80426 38172
" />
<path d="M80442 38991
L80442 39268
" />
<path d="M80442 37895
L80442 38172
" />
<path d="M80457 38991
L80457 39284
" />
<path d="M80457 37879
L80457 38172
" />
<path d="M80473 38991
L80473 39300
" />
<path d="M80473 37862
L80473 38172
" />
<path d="M80489 38991
L80489 39315
" />
<path d="M80489 37848
L80489 38172
" />
<path d="M80505 38991
L80505 39330
" />
<path d="M80505 37833
L80505 38172
" />
<path d="M80520 38991
L80520 39344
" />
<path d="M80520 37819
L80520 38172
" />
<path d="M80536 38991
L80536 39357
" />
<path d="M80536 37805
L80536 38172
" />
<path d="M80552 38991
L80552 39370
" />
<path d="M80552 37792
L80552 38172
" />
<path d="M80568 38991
L80568 39383
" />
<path d="M80568 37780
L80568 38172
" />
<path d="M80583 38991
L80583 39394
" />
<path d="M80583 37768
L80583 38172
" />
<path d="M80599 38991
L80599 39406
" />
<path d="M80599 37757
L80599 38172
" />
<path d="M80615 38991
L80615 39417
" />
<path d="M80615 37746
L80615 38172
" />
<path d="M80631 38991
L80631 39427
" />
<path d="M80631 37735
L80631 38172
" />
<path d="M80646 38991
L80646 39438
" />
<path d="M80646 37725
L80646 38172
" />
<path d="M80662 38991
L80662 39448
" />
<path d="M80662 37715
L80662 38172
" />
<path d="M80678 38991
L80678 39457
" />
<path d="M80678 37706
L80678 38172
" />
<path d="M80694 38991
L80694 39466
" />
<path d="M80694 37697
L80694 38172
" />
<path d="M80709 38991
L80709 39474
" />
<path d="M80709 37688
L80709 38172
" />
<path d="M80725 38991
L80725 39483
" />
<path d="M80725 37680
L80725 38172
" />
<path d="M80741 38991
L80741 39491
" />
<path d="M80741 37672
L80741 38172
" />
<path d="M80757 38991
L80757 39498
" />
<path d="M80757 37664
L80757 38172
" />
<path d="M80772 38991
L80772 39506
" />
<path d="M80772 37657
L80772 38172
" />
<path d="M80788 38991
L80788 39512
" />
<path d="M80788 37650
L80788 38172
" />
<path d="M80804 38991
L80804 39519
" />
<path d="M80804 37644
L80804 38172
" />
<path d="M80820 38991
L80820 39525
" />
<path d="M80820 37637
L80820 38172
" />
<path d="M80835 38991
L80835 39532
" />
<path d="M80835 37631
L80835 38172
" />
<path d="M80851 38991
L80851 39537
" />
<path d="M80851 37625
L80851 38172
" />
<path d="M80867 38991
L80867 39543
" />
<path d="M80867 37620
L80867 38172
" />
<path d="M80883 38991
L80883 39548
" />
<path d="M80883 37615
L80883 38172
" />
<path d="M80898 38991
L80898 39553
" />
<path d="M80898 37610
L80898 38172
" />
<path d="M80914 38991
L80914 39558
" />
<path d="M80914 37605
L80914 38172
" />
<path d="M80930 38991
L80930 39562
" />
<path d="M80930 37601
L80930 38172
" />
<path d="M80946 38991
L80946 39566
" />
<path d="M80946 37597
L80946 38172
" />
<path d="M80962 38991
L80962 39570
" />
<path d="M80962 37593
L80962 38172
" />
<path d="M80978 38991
L80978 39574
" />
<path d="M80978 37589
L80978 38172
" />
<path d="M80993 38991
L80993 39577
" />
<path d="M80993 37586
L80993 38172
" />
<path d="M81009 38991
L81009 39580
" />
<path d="M81009 37583
L81009 38172
" />
<path d="M81025 38991
L81025 39583
" />
<path d="M81025 37580
L81025 38172
" />
<path d="M81041 38991
L81041 39585
" />
<path d="M81041 37577
L81041 38172
" />
<path d="M81056 38991
L81056 39588
" />
<path d="M81056 37575
L81056 38172
" />
<path d="M81072 38991
L81072 39590
" />
<path d="M81072 37573
L81072 38172
" />
<path d="M81088 38991
L81088 39591
" />
<path d="M81088 37572
L81088 38172
" />
<path d="M81104 38991
L81104 39593
" />
<path d="M81104 37570
L81104 38172
" />
<path d="M81119 38991
L81119 39594
" />
<path d="M81119 37568
L81119 38172
" />
<path d="M81135 38991
L81135 39596
" />
<path d="M81135 37567
L81135 38172
" />
<path d="M81151 38991
L81151 39596
" />
<path d="M81151 37566
L81151 38172
" />
<path d="M81167 38991
L81167 39597
" />
<path d="M81167 37566
L81167 38172
" />
<path d="M81182 37566
L81182 38172
" />
<path d="M81182 38991
L81182 39597
" />
<path d="M81198 37566
L81198 38172
" />
<path d="M81198 38991
L81198 39597
" />
<circle cx="81198.5" cy="38581.9" r="1031.5" /> 
<path d="M74498 15108
L76648 15108
" />
<path d="M74498 35155
L74498 15108
" />
<path d="M79585 35155
L74498 35155
" />
<path d="M79585 15108
L79585 35155
" />
<path d="M77435 15108
L79585 15108
" />
<path d="M76648.5 15108.3 A393.701 393.701 0.0 0 0 77435.9 15108.3 " />
<path d="M71099 37398
L71099 38737
" />
<path d="M71099 36752
L71099 36965
" />
<path d="M72213 39587
L72414 39587
" />
<path d="M72414 39382
L72414 39587
" />
<path d="M72213 39382
L72414 39382
" />
<path d="M71099 39170
L71099 39382
" />
<path d="M72213 36548
L72414 36548
" />
<path d="M72213 36752
L72414 36752
" />
<path d="M71099 39382
L71189 39382
" />
<path d="M69654 36548
L71189 36548
" />
<path d="M72414 36548
L72414 36752
" />
<path d="M69654 39587
L71189 39587
" />
<path d="M69654 36548
L69654 39587
" />
<path d="M71099 36752
L71189 36752
" />
<path d="M75672.3 35712.8 A994.094 994.094 0.0 0 0 75672.3 37701 " />
<path d="M78133 37701 A994.094 994.094 0.0 0 0 78133 35712.8 " />
<path d="M78132 37700
L75672 37700
" />
<path d="M78132 35712
L75672 35712
" />
<path d="M84517 37121
L83922 37121
" />
<path d="M84517 38578
L83922 38578
" />
<path d="M83922 39865
L83922 35834
" />
<path d="M84517 35834
L82690 35834
" />
<path d="M84517 39865
L82690 39865
" />
<path d="M82690 39865
L82690 35834
" />
<path d="M84517 39865
L84517 35834
" />
<path d="M77846 40024
L77846 39606
" />
<path d="M77429 40024
L77846 40024
" />
<path d="M77035 40024
L77035 39189
" />
<path d="M77035 39189
L75437 39189
" />
<path d="M77035 40024
L75437 40024
" />
<path d="M75437 40024
L75437 39189
" />
<path d="M82209 37299
L82209 36881
" />
<path d="M81792 37299
L82209 37299
" />
<path d="M82209 36488
L82209 35677
" />
<path d="M81398 36488
L82209 36488
" />
<path d="M81398 37299
L81398 36488
" />
<path d="M82209 35677
L80587 35677
" />
<path d="M81398 37299
L80587 37299
" />
<path d="M80587 37299
L80587 35677
" />
<path d="M76728 45056
L76728 44995
" />
<path d="M76728 45968
L76728 45907
" />
<path d="M77752.1 45056.8 A590.551 590.551 0.0 0 0 76932.4 45056.7 " />
<path d="M76932.4 45907.1 A590.551 590.551 0.0 0 0 77752.1 45907 " />
<path d="M78000.6 45057.2 A783.465 783.465 0.0 0 0 76728 44995.5 " />
<path d="M76728 45968.3 A783.465 783.465 0.0 0 0 78000.6 45906.5 " />
<path d="M77536 37919
L78031 37919
" />
<path d="M77536 38644
L78031 38644
" />
<path d="M75536 37919
L76031 37919
" />
<path d="M75536 38644
L76031 38644
" />
<path d="M78813 39569
L79009 39569
" />
<path d="M78911 39471
L78911 39668
" />
<path d="M79380 41599
L79604 41599
" />
<path d="M79288 41583
L79696 41583
" />
<path d="M79225 41568
L79758 41568
" />
<path d="M79175 41552
L79809 41552
" />
<path d="M79131 41536
L79852 41536
" />
<path d="M79094 41520
L79890 41520
" />
<path d="M79059 41505
L79924 41505
" />
<path d="M79028 41489
L79955 41489
" />
<path d="M78999 41473
L79984 41473
" />
<path d="M78972 41457
L80011 41457
" />
<path d="M78947 41442
L80036 41442
" />
<path d="M78924 41426
L80060 41426
" />
<path d="M78901 41410
L80082 41410
" />
<path d="M78880 41394
L80104 41394
" />
<path d="M78860 41379
L80124 41379
" />
<path d="M79901 41363
L80142 41363
" />
<path d="M78841 41363
L79082 41363
" />
<path d="M79901 41347
L80161 41347
" />
<path d="M78823 41347
L79082 41347
" />
<path d="M79901 41331
L80178 41331
" />
<path d="M78805 41331
L79082 41331
" />
<path d="M79901 41316
L80194 41316
" />
<path d="M78789 41316
L79082 41316
" />
<path d="M79901 41300
L80211 41300
" />
<path d="M78773 41300
L79082 41300
" />
<path d="M79901 41284
L80226 41284
" />
<path d="M78758 41284
L79082 41284
" />
<path d="M79901 41268
L80240 41268
" />
<path d="M78743 41268
L79082 41268
" />
<path d="M79901 41253
L80254 41253
" />
<path d="M78729 41253
L79082 41253
" />
<path d="M79901 41237
L80268 41237
" />
<path d="M78716 41237
L79082 41237
" />
<path d="M79901 41221
L80281 41221
" />
<path d="M78703 41221
L79082 41221
" />
<path d="M79901 41205
L80293 41205
" />
<path d="M78691 41205
L79082 41205
" />
<path d="M79901 41190
L80305 41190
" />
<path d="M78679 41190
L79082 41190
" />
<path d="M79901 41174
L80317 41174
" />
<path d="M78667 41174
L79082 41174
" />
<path d="M79901 41158
L80327 41158
" />
<path d="M78656 41158
L79082 41158
" />
<path d="M79901 41142
L80338 41142
" />
<path d="M78646 41142
L79082 41142
" />
<path d="M79901 41127
L80348 41127
" />
<path d="M78635 41127
L79082 41127
" />
<path d="M79901 41111
L80358 41111
" />
<path d="M78626 41111
L79082 41111
" />
<path d="M79901 41095
L80367 41095
" />
<path d="M78616 41095
L79082 41095
" />
<path d="M79901 41079
L80376 41079
" />
<path d="M78607 41079
L79082 41079
" />
<path d="M79901 41064
L80385 41064
" />
<path d="M78599 41064
L79082 41064
" />
<path d="M79901 41048
L80393 41048
" />
<path d="M78590 41048
L79082 41048
" />
<path d="M79901 41032
L80401 41032
" />
<path d="M78582 41032
L79082 41032
" />
<path d="M79901 41016
L80409 41016
" />
<path d="M78575 41016
L79082 41016
" />
<path d="M79901 41001
L80416 41001
" />
<path d="M78567 41001
L79082 41001
" />
<path d="M79901 40985
L80423 40985
" />
<path d="M78561 40985
L79082 40985
" />
<path d="M79901 40969
L80430 40969
" />
<path d="M78554 40969
L79082 40969
" />
<path d="M79901 40953
L80436 40953
" />
<path d="M78548 40953
L79082 40953
" />
<path d="M79901 40938
L80442 40938
" />
<path d="M78541 40938
L79082 40938
" />
<path d="M79901 40922
L80448 40922
" />
<path d="M78536 40922
L79082 40922
" />
<path d="M79901 40906
L80453 40906
" />
<path d="M78530 40906
L79082 40906
" />
<path d="M79901 40890
L80458 40890
" />
<path d="M78525 40890
L79082 40890
" />
<path d="M79901 40875
L80463 40875
" />
<path d="M78520 40875
L79082 40875
" />
<path d="M79901 40859
L80468 40859
" />
<path d="M78515 40859
L79082 40859
" />
<path d="M79901 40843
L80472 40843
" />
<path d="M78511 40843
L79082 40843
" />
<path d="M79901 40827
L80476 40827
" />
<path d="M78507 40827
L79082 40827
" />
<path d="M79901 40811
L80480 40811
" />
<path d="M78503 40811
L79082 40811
" />
<path d="M79901 40796
L80484 40796
" />
<path d="M78500 40796
L79082 40796
" />
<path d="M79901 40780
L80487 40780
" />
<path d="M78496 40780
L79082 40780
" />
<path d="M79901 40764
L80490 40764
" />
<path d="M78493 40764
L79082 40764
" />
<path d="M79901 40748
L80493 40748
" />
<path d="M78491 40748
L79082 40748
" />
<path d="M79901 40733
L80496 40733
" />
<path d="M78488 40733
L79082 40733
" />
<path d="M79901 40717
L80498 40717
" />
<path d="M78485 40717
L79082 40717
" />
<path d="M79901 40701
L80500 40701
" />
<path d="M78483 40701
L79082 40701
" />
<path d="M79901 40685
L80502 40685
" />
<path d="M78482 40685
L79082 40685
" />
<path d="M79901 40670
L80503 40670
" />
<path d="M78480 40670
L79082 40670
" />
<path d="M79901 40654
L80505 40654
" />
<path d="M78479 40654
L79082 40654
" />
<path d="M79901 40638
L80506 40638
" />
<path d="M78478 40638
L79082 40638
" />
<path d="M79901 40622
L80507 40622
" />
<path d="M78477 40622
L79082 40622
" />
<path d="M79901 40607
L80507 40607
" />
<path d="M78476 40607
L79082 40607
" />
<path d="M78476 40591
L79082 40591
" />
<path d="M79901 40591
L80507 40591
" />
<path d="M78476 40575
L79082 40575
" />
<path d="M79901 40575
L80507 40575
" />
<circle cx="79492.2" cy="40575.6" r="1031.5" /> 
<path d="M78371 43594
L78174 43594
" />
<path d="M78272 43692
L78272 43495
" />
<path d="M77804 41564
L77580 41564
" />
<path d="M77896 41579
L77488 41579
" />
<path d="M77958 41595
L77425 41595
" />
<path d="M78009 41611
L77375 41611
" />
<path d="M78052 41627
L77331 41627
" />
<path d="M78090 41642
L77294 41642
" />
<path d="M78124 41658
L77259 41658
" />
<path d="M78155 41674
L77228 41674
" />
<path d="M78184 41690
L77199 41690
" />
<path d="M78211 41705
L77172 41705
" />
<path d="M78236 41721
L77147 41721
" />
<path d="M78260 41737
L77124 41737
" />
<path d="M78282 41753
L77101 41753
" />
<path d="M78304 41768
L77080 41768
" />
<path d="M78324 41784
L77060 41784
" />
<path d="M77282 41800
L77041 41800
" />
<path d="M78342 41800
L78101 41800
" />
<path d="M77282 41816
L77023 41816
" />
<path d="M78361 41816
L78101 41816
" />
<path d="M77282 41831
L77005 41831
" />
<path d="M78378 41831
L78101 41831
" />
<path d="M77282 41847
L76989 41847
" />
<path d="M78394 41847
L78101 41847
" />
<path d="M77282 41863
L76973 41863
" />
<path d="M78411 41863
L78101 41863
" />
<path d="M77282 41879
L76958 41879
" />
<path d="M78426 41879
L78101 41879
" />
<path d="M77282 41894
L76943 41894
" />
<path d="M78440 41894
L78101 41894
" />
<path d="M77282 41910
L76929 41910
" />
<path d="M78454 41910
L78101 41910
" />
<path d="M77282 41926
L76916 41926
" />
<path d="M78468 41926
L78101 41926
" />
<path d="M77282 41942
L76903 41942
" />
<path d="M78481 41942
L78101 41942
" />
<path d="M77282 41957
L76891 41957
" />
<path d="M78493 41957
L78101 41957
" />
<path d="M77282 41973
L76879 41973
" />
<path d="M78505 41973
L78101 41973
" />
<path d="M77282 41989
L76867 41989
" />
<path d="M78517 41989
L78101 41989
" />
<path d="M77282 42005
L76856 42005
" />
<path d="M78527 42005
L78101 42005
" />
<path d="M77282 42020
L76846 42020
" />
<path d="M78538 42020
L78101 42020
" />
<path d="M77282 42036
L76835 42036
" />
<path d="M78548 42036
L78101 42036
" />
<path d="M77282 42052
L76826 42052
" />
<path d="M78558 42052
L78101 42052
" />
<path d="M77282 42068
L76816 42068
" />
<path d="M78567 42068
L78101 42068
" />
<path d="M77282 42083
L76807 42083
" />
<path d="M78576 42083
L78101 42083
" />
<path d="M77282 42099
L76799 42099
" />
<path d="M78585 42099
L78101 42099
" />
<path d="M77282 42115
L76790 42115
" />
<path d="M78593 42115
L78101 42115
" />
<path d="M77282 42131
L76782 42131
" />
<path d="M78601 42131
L78101 42131
" />
<path d="M77282 42146
L76775 42146
" />
<path d="M78609 42146
L78101 42146
" />
<path d="M77282 42162
L76767 42162
" />
<path d="M78616 42162
L78101 42162
" />
<path d="M77282 42178
L76761 42178
" />
<path d="M78623 42178
L78101 42178
" />
<path d="M77282 42194
L76754 42194
" />
<path d="M78630 42194
L78101 42194
" />
<path d="M77282 42209
L76748 42209
" />
<path d="M78636 42209
L78101 42209
" />
<path d="M77282 42225
L76741 42225
" />
<path d="M78642 42225
L78101 42225
" />
<path d="M77282 42241
L76736 42241
" />
<path d="M78648 42241
L78101 42241
" />
<path d="M77282 42257
L76730 42257
" />
<path d="M78653 42257
L78101 42257
" />
<path d="M77282 42272
L76725 42272
" />
<path d="M78658 42272
L78101 42272
" />
<path d="M77282 42288
L76720 42288
" />
<path d="M78663 42288
L78101 42288
" />
<path d="M77282 42304
L76715 42304
" />
<path d="M78668 42304
L78101 42304
" />
<path d="M77282 42320
L76711 42320
" />
<path d="M78672 42320
L78101 42320
" />
<path d="M77282 42336
L76707 42336
" />
<path d="M78676 42336
L78101 42336
" />
<path d="M77282 42351
L76703 42351
" />
<path d="M78680 42351
L78101 42351
" />
<path d="M77282 42367
L76700 42367
" />
<path d="M78684 42367
L78101 42367
" />
<path d="M77282 42383
L76696 42383
" />
<path d="M78687 42383
L78101 42383
" />
<path d="M77282 42399
L76693 42399
" />
<path d="M78690 42399
L78101 42399
" />
<path d="M77282 42414
L76691 42414
" />
<path d="M78693 42414
L78101 42414
" />
<path d="M77282 42430
L76688 42430
" />
<path d="M78696 42430
L78101 42430
" />
<path d="M77282 42446
L76685 42446
" />
<path d="M78698 42446
L78101 42446
" />
<path d="M77282 42462
L76683 42462
" />
<path d="M78700 42462
L78101 42462
" />
<path d="M77282 42477
L76682 42477
" />
<path d="M78702 42477
L78101 42477
" />
<path d="M77282 42493
L76680 42493
" />
<path d="M78703 42493
L78101 42493
" />
<path d="M77282 42509
L76679 42509
" />
<path d="M78705 42509
L78101 42509
" />
<path d="M77282 42525
L76678 42525
" />
<path d="M78706 42525
L78101 42525
" />
<path d="M77282 42540
L76677 42540
" />
<path d="M78707 42540
L78101 42540
" />
<path d="M77282 42556
L76676 42556
" />
<path d="M78707 42556
L78101 42556
" />
<path d="M78707 42572
L78101 42572
" />
<path d="M77282 42572
L76676 42572
" />
<path d="M78707 42588
L78101 42588
" />
<path d="M77282 42588
L76676 42588
" />
<circle cx="77692.2" cy="42588.2" r="1031.5" /> 
<path d="M80781 43779
L80781 47125
" />
<path d="M80781 47125
L84403 47125
" />
<path d="M84403 47125
L84403 41338
" />
<path d="M81607 41338
L80781 41338
" />
<path d="M80781 41338
L80781 42047
" />
<path d="M83852 41220
L84521 41220
" />
<path d="M84521 41220
L84521 41850
" />
<path d="M84403 41338
L83576 41338
" />
<path d="M74004 14204
L74004 13157
" />
<path d="M79028 14204
L74004 14204
" />
<path d="M79028 13157
L74004 13157
" />
<path d="M79028 14204
L79028 13157
" />
<path d="M79528 14204
L80052 14204
" />
<path d="M80052 14204
L80052 13681
" />
</g>
<g style="fill:#000000; fill-opacity:0.0; 
stroke:#000000; stroke-width:59.0551; stroke-opacity:1; 
stroke-linecap:round; stroke-linejoin:round;">
<text x="74030" y="44596.9"
textLength="1709.6" font-size="524.934" lengthAdjust="spacingAndGlyphs"
text-anchor="middle" opacity="0">USB1</text>
<path d="M74714 44184
L74714 44503
L74695 44540
L74676 44559
L74639 44578
L74564 44578
L74526 44559
L74508 44540
L74489 44503
L74489 44184
" />
<path d="M74320 44559
L74264 44578
L74170 44578
L74133 44559
L74114 44540
L74095 44503
L74095 44465
L74114 44428
L74133 44409
L74170 44390
L74245 44371
L74283 44353
L74301 44334
L74320 44296
L74320 44259
L74301 44221
L74283 44203
L74245 44184
L74151 44184
L74095 44203
" />
<path d="M73795 44371
L73739 44390
L73720 44409
L73701 44446
L73701 44503
L73720 44540
L73739 44559
L73776 44578
L73926 44578
L73926 44184
L73795 44184
L73758 44203
L73739 44221
L73720 44259
L73720 44296
L73739 44334
L73758 44353
L73795 44371
L73926 44371
" />
<path d="M73326 44578
L73551 44578
" />
<path d="M73439 44578
L73439 44184
L73476 44240
L73514 44278
L73551 44296
" />
<text x="81398.5" y="40157.5"
textLength="1520.34" font-size="524.934" lengthAdjust="spacingAndGlyphs"
text-anchor="middle" opacity="0">C9v1</text>
<path d="M81801 40101
L81820 40119
L81876 40138
L81914 40138
L81970 40119
L82007 40082
L82026 40044
L82045 39970
L82045 39913
L82026 39838
L82007 39801
L81970 39763
L81914 39745
L81876 39745
L81820 39763
L81801 39782
" />
<path d="M81614 40138
L81539 40138
L81501 40119
L81482 40101
L81445 40044
L81426 39970
L81426 39820
L81445 39782
L81464 39763
L81501 39745
L81576 39745
L81614 39763
L81632 39782
L81651 39820
L81651 39913
L81632 39951
L81614 39970
L81576 39988
L81501 39988
L81464 39970
L81445 39951
L81426 39913
" />
<path d="M81295 39876
L81201 40138
L81107 39876
" />
<path d="M80751 40138
L80976 40138
" />
<path d="M80864 40138
L80864 39745
L80901 39801
L80939 39838
L80976 39857
" />
<text x="77016.6" y="25862.2"
textLength="1295.37" font-size="524.934" lengthAdjust="spacingAndGlyphs"
text-anchor="middle" opacity="0">MC1</text>
<path d="M77532 25843
L77532 25449
L77400 25730
L77269 25449
L77269 25843
" />
<path d="M76857 25805
L76876 25824
L76932 25843
L76969 25843
L77025 25824
L77063 25787
L77082 25749
L77100 25674
L77100 25618
L77082 25543
L77063 25505
L77025 25468
L76969 25449
L76932 25449
L76876 25468
L76857 25487
" />
<path d="M76482 25843
L76707 25843
" />
<path d="M76594 25843
L76594 25449
L76632 25505
L76669 25543
L76707 25562
" />
<text x="70276.5" y="38287.4"
textLength="1520.34" font-size="524.934" lengthAdjust="spacingAndGlyphs"
text-anchor="middle" opacity="0">RST1</text>
<path d="M70679 38268
L70810 38081
" />
<path d="M70904 38268
L70904 37874
L70754 37874
L70717 37893
L70698 37912
L70679 37949
L70679 38006
L70698 38043
L70717 38062
L70754 38081
L70904 38081
" />
<path d="M70529 38249
L70473 38268
L70379 38268
L70342 38249
L70323 38231
L70304 38193
L70304 38156
L70323 38118
L70342 38099
L70379 38081
L70454 38062
L70492 38043
L70510 38024
L70529 37987
L70529 37949
L70510 37912
L70492 37893
L70454 37874
L70360 37874
L70304 37893
" />
<path d="M70192 37874
L69967 37874
" />
<path d="M70079 38268
L70079 37874
" />
<path d="M69629 38268
L69854 38268
" />
<path d="M69742 38268
L69742 37874
L69779 37931
L69817 37968
L69854 37987
" />
<text x="76870.9" y="36220.5"
textLength="1782.81" font-size="524.934" lengthAdjust="spacingAndGlyphs"
text-anchor="middle" opacity="0">XTAL1</text>
<path d="M77667 35808
L77405 36201
" />
<path d="M77405 35808
L77667 36201
" />
<path d="M77311 35808
L77086 35808
" />
<path d="M77199 36201
L77199 35808
" />
<path d="M76974 36089
L76786 36089
" />
<path d="M77011 36201
L76880 35808
L76749 36201
" />
<path d="M76430 36201
L76617 36201
L76617 35808
" />
<path d="M76092 36201
L76317 36201
" />
<path d="M76205 36201
L76205 35808
L76242 35864
L76280 35901
L76317 35920
" />
<text x="83751.7" y="35696.5"
textLength="2345.24" font-size="524.934" lengthAdjust="spacingAndGlyphs"
text-anchor="middle" opacity="0">LM7805</text>
<path d="M84604 35677
L84792 35677
L84792 35284
" />
<path d="M84473 35677
L84473 35284
L84342 35565
L84210 35284
L84210 35677
" />
<path d="M84060 35284
L83798 35284
L83967 35677
" />
<path d="M83592 35452
L83629 35433
L83648 35415
L83667 35377
L83667 35358
L83648 35321
L83629 35302
L83592 35284
L83517 35284
L83479 35302
L83461 35321
L83442 35358
L83442 35377
L83461 35415
L83479 35433
L83517 35452
L83592 35452
L83629 35471
L83648 35490
L83667 35527
L83667 35602
L83648 35640
L83629 35658
L83592 35677
L83517 35677
L83479 35658
L83461 35640
L83442 35602
L83442 35527
L83461 35490
L83479 35471
L83517 35452
" />
<path d="M83198 35284
L83161 35284
L83123 35302
L83104 35321
L83086 35358
L83067 35433
L83067 35527
L83086 35602
L83104 35640
L83123 35658
L83161 35677
L83198 35677
L83236 35658
L83254 35640
L83273 35602
L83292 35527
L83292 35433
L83273 35358
L83254 35321
L83236 35302
L83198 35284
" />
<path d="M82711 35284
L82898 35284
L82917 35471
L82898 35452
L82861 35433
L82767 35433
L82729 35452
L82711 35471
L82692 35508
L82692 35602
L82711 35640
L82729 35658
L82767 35677
L82861 35677
L82898 35658
L82917 35640
" />
<text x="76575.7" y="39173.2"
textLength="1145.39" font-size="524.934" lengthAdjust="spacingAndGlyphs"
text-anchor="middle" opacity="0">JP1</text>
<path d="M76903 38760
L76903 39041
L76922 39098
L76959 39135
L77016 39154
L77053 39154
" />
<path d="M76716 39154
L76716 38760
L76566 38760
L76528 38779
L76510 38798
L76491 38835
L76491 38892
L76510 38929
L76528 38948
L76566 38967
L76716 38967
" />
<path d="M76116 39154
L76341 39154
" />
<path d="M76228 39154
L76228 38760
L76266 38817
L76303 38854
L76341 38873
" />
<text x="80020.6" y="36614.2"
textLength="751.687" font-size="524.934" lengthAdjust="spacingAndGlyphs"
text-anchor="middle" opacity="0">J1</text>
<path d="M80151 36201
L80151 36482
L80170 36539
L80208 36576
L80264 36595
L80301 36595
" />
<path d="M79758 36595
L79983 36595
" />
<path d="M79870 36595
L79870 36201
L79908 36257
L79945 36295
L79983 36314
" />
<text x="77342.2" y="46844.1"
textLength="1614.08" font-size="524.934" lengthAdjust="spacingAndGlyphs"
text-anchor="middle" opacity="0">Dpw1</text>
<path d="M78017 46825
L78017 46431
L77923 46431
L77867 46450
L77829 46487
L77810 46525
L77792 46600
L77792 46656
L77810 46731
L77829 46769
L77867 46806
L77923 46825
L78017 46825
" />
<path d="M77623 46562
L77623 46956
" />
<path d="M77623 46581
L77585 46562
L77510 46562
L77473 46581
L77454 46600
L77435 46637
L77435 46750
L77454 46787
L77473 46806
L77510 46825
L77585 46825
L77623 46806
" />
<path d="M77304 46562
L77229 46825
L77154 46637
L77079 46825
L77004 46562
" />
<path d="M76648 46825
L76873 46825
" />
<path d="M76761 46825
L76761 46431
L76798 46487
L76836 46525
L76873 46544
" />
<text x="79430" y="37992.1"
textLength="1520.34" font-size="524.934" lengthAdjust="spacingAndGlyphs"
text-anchor="middle" opacity="0">CXT2</text>
<path d="M79833 37935
L79851 37954
L79908 37973
L79945 37973
L80001 37954
L80039 37917
L80058 37879
L80076 37804
L80076 37748
L80058 37673
L80039 37635
L80001 37598
L79945 37579
L79908 37579
L79851 37598
L79833 37617
" />
<path d="M79701 37579
L79439 37973
" />
<path d="M79439 37579
L79701 37973
" />
<path d="M79345 37579
L79120 37579
" />
<path d="M79233 37973
L79233 37579
" />
<path d="M79008 37617
L78989 37598
L78951 37579
L78858 37579
L78820 37598
L78801 37617
L78783 37654
L78783 37692
L78801 37748
L79026 37973
L78783 37973
" />
<text x="74311.9" y="37992.1"
textLength="1520.34" font-size="524.934" lengthAdjust="spacingAndGlyphs"
text-anchor="middle" opacity="0">CXT1</text>
<path d="M74714 37935
L74733 37954
L74789 37973
L74827 37973
L74883 37954
L74921 37917
L74939 37879
L74958 37804
L74958 37748
L74939 37673
L74921 37635
L74883 37598
L74827 37579
L74789 37579
L74733 37598
L74714 37617
" />
<path d="M74583 37579
L74321 37973
" />
<path d="M74321 37579
L74583 37973
" />
<path d="M74227 37579
L74002 37579
" />
<path d="M74115 37973
L74115 37579
" />
<path d="M73665 37973
L73890 37973
" />
<path d="M73777 37973
L73777 37579
L73815 37635
L73852 37673
L73890 37692
" />
<text x="79331.6" y="39370.1"
textLength="1520.34" font-size="524.934" lengthAdjust="spacingAndGlyphs"
text-anchor="middle" opacity="0">C5v1</text>
<path d="M79734 39313
L79753 39332
L79809 39351
L79847 39351
L79903 39332
L79940 39295
L79959 39257
L79978 39182
L79978 39126
L79959 39051
L79940 39013
L79903 38976
L79847 38957
L79809 38957
L79753 38976
L79734 38995
" />
<path d="M79378 38957
L79565 38957
L79584 39145
L79565 39126
L79528 39107
L79434 39107
L79397 39126
L79378 39145
L79359 39182
L79359 39276
L79378 39313
L79397 39332
L79434 39351
L79528 39351
L79565 39332
L79584 39313
" />
<path d="M79228 39088
L79134 39351
L79040 39088
" />
<path d="M78684 39351
L78909 39351
" />
<path d="M78797 39351
L78797 38957
L78834 39013
L78872 39051
L78909 39070
" />
<text x="77559.9" y="44192.9"
textLength="2082.77" font-size="524.934" lengthAdjust="spacingAndGlyphs"
text-anchor="middle" opacity="0">C3.3v1</text>
<path d="M78244 44136
L78262 44155
L78319 44174
L78356 44174
L78412 44155
L78450 44117
L78469 44080
L78487 44005
L78487 43949
L78469 43874
L78450 43836
L78412 43799
L78356 43780
L78319 43780
L78262 43799
L78244 43817
" />
<path d="M78112 43780
L77869 43780
L78000 43930
L77944 43930
L77906 43949
L77888 43967
L77869 44005
L77869 44099
L77888 44136
L77906 44155
L77944 44174
L78056 44174
L78094 44155
L78112 44136
" />
<path d="M77700 44136
L77681 44155
L77700 44174
L77719 44155
L77700 44136
L77700 44174
" />
<path d="M77550 43780
L77306 43780
L77438 43930
L77381 43930
L77344 43949
L77325 43967
L77306 44005
L77306 44099
L77325 44136
L77344 44155
L77381 44174
L77494 44174
L77531 44155
L77550 44136
" />
<path d="M77175 43911
L77081 44174
L76988 43911
" />
<path d="M76631 44174
L76856 44174
" />
<path d="M76744 44174
L76744 43780
L76781 43836
L76819 43874
L76856 43892
" />
<text x="82592.2" y="40944.9"
textLength="789.183" font-size="524.934" lengthAdjust="spacingAndGlyphs"
text-anchor="middle" opacity="0">V1</text>
<path d="M82910 40532
L82779 40926
L82648 40532
" />
<path d="M82310 40926
L82535 40926
" />
<path d="M82423 40926
L82423 40532
L82460 40588
L82498 40626
L82535 40644
" />
<text x="76969.4" y="14763.8"
textLength="3788.81" font-size="524.934" lengthAdjust="spacingAndGlyphs"
text-anchor="middle" opacity="0">PICKIT_port1</text>
<path d="M78731 14745
L78731 14351
L78581 14351
L78544 14370
L78525 14388
L78506 14426
L78506 14482
L78525 14520
L78544 14538
L78581 14557
L78731 14557
" />
<path d="M78337 14745
L78337 14351
" />
<path d="M77925 14707
L77944 14726
L78000 14745
L78037 14745
L78094 14726
L78131 14688
L78150 14651
L78169 14576
L78169 14520
L78150 14445
L78131 14407
L78094 14370
L78037 14351
L78000 14351
L77944 14370
L77925 14388
" />
<path d="M77756 14745
L77756 14351
" />
<path d="M77531 14745
L77700 14520
" />
<path d="M77531 14351
L77756 14576
" />
<path d="M77363 14745
L77363 14351
" />
<path d="M77231 14351
L77006 14351
" />
<path d="M77119 14745
L77119 14351
" />
<path d="M76969 14782
L76669 14782
" />
<path d="M76575 14482
L76575 14876
" />
<path d="M76575 14501
L76538 14482
L76463 14482
L76425 14501
L76406 14520
L76388 14557
L76388 14670
L76406 14707
L76425 14726
L76463 14745
L76538 14745
L76575 14726
" />
<path d="M76163 14745
L76200 14726
L76219 14707
L76238 14670
L76238 14557
L76219 14520
L76200 14501
L76163 14482
L76106 14482
L76069 14501
L76050 14520
L76031 14557
L76031 14670
L76050 14707
L76069 14726
L76106 14745
L76163 14745
" />
<path d="M75863 14745
L75863 14482
" />
<path d="M75863 14557
L75844 14520
L75825 14501
L75788 14482
L75750 14482
" />
<path d="M75675 14482
L75525 14482
" />
<path d="M75619 14351
L75619 14688
L75600 14726
L75563 14745
L75525 14745
" />
<path d="M75188 14745
L75413 14745
" />
<path d="M75300 14745
L75300 14351
L75338 14407
L75375 14445
L75413 14463
" />
<g >
</g>
</g> 
</svg>
