<?xml version="1.0" standalone="no"?>
 <!DOCTYPE svg PUBLIC "-//W3C//DTD SVG 1.1//EN" 
 "http://www.w3.org/Graphics/SVG/1.1/DTD/svg11.dtd"> 
<svg xmlns="http://www.w3.org/2000/svg" version="1.1" 
    width="29.7002cm" height="21.0007cm" viewBox="0 0 116930 82680 ">
<title>SVG Picture created as AutoUSB-KIT-v6-B_CrtYd.svg date 2022/01/24 08:35:17 </title>
  <desc>Picture generated by PCBNEW </desc>
<g style="fill:#000000; fill-opacity:1;stroke:#000000; stroke-opacity:1;
stroke-linecap:round; stroke-linejoin:round; "
 transform="translate(0 0) scale(1 1)">
</g>
<g style="fill:#000000; fill-opacity:0.0; 
stroke:#000000; stroke-width:-0.000393701; stroke-opacity:1; 
stroke-linecap:round; stroke-linejoin:round;">
</g>
<g style="fill:#000000; fill-opacity:0.0; 
stroke:#000000; stroke-width:19.685; stroke-opacity:1; 
stroke-linecap:round; stroke-linejoin:round;">
<path d="M75808 24644
L75808 23305
" />
<path d="M76501 24644
L75808 24644
" />
<path d="M76501 23305
L76501 24644
" />
<path d="M75808 23305
L76501 23305
" />
<path d="M82108 37868
L82108 36530
" />
<path d="M82801 37868
L82108 37868
" />
<path d="M82801 36530
L82801 37868
" />
<path d="M82108 36530
L82801 36530
" />
<path d="M82210 39453
L83548 39453
" />
<path d="M82210 40146
L82210 39453
" />
<path d="M83548 40146
L82210 40146
" />
<path d="M83548 39453
L83548 40146
" />
<path d="M76261 43909
L76261 45838
" />
<path d="M75379 43909
L76261 43909
" />
<path d="M75379 45838
L75379 43909
" />
<path d="M76261 45838
L75379 45838
" />
<path d="M77672 32235
L79011 32235
" />
<path d="M77672 32928
L77672 32235
" />
<path d="M79011 32928
L77672 32928
" />
<path d="M79011 32235
L79011 32928
" />
<path d="M78959 43864
L78959 46699
" />
<path d="M78959 46699
L82424 46699
" />
<path d="M82424 46699
L82424 43864
" />
<path d="M82424 43864
L78959 43864
" />
<path d="M82219 42265
L84014 42265
" />
<path d="M82219 43147
L82219 42265
" />
<path d="M84014 43147
L82219 43147
" />
<path d="M84014 42265
L84014 43147
" />
<path d="M71527 37865
L73456 37865
" />
<path d="M71527 38747
L71527 37865
" />
<path d="M73456 38747
L71527 38747
" />
<path d="M73456 37865
L73456 38747
" />
<path d="M80958 12842
L80958 14771
" />
<path d="M80076 12842
L80958 12842
" />
<path d="M80076 14771
L80076 12842
" />
<path d="M80958 14771
L80076 14771
" />
<path d="M80241 35778
L80241 37235
" />
<path d="M79493 35778
L80241 35778
" />
<path d="M79493 37235
L79493 35778
" />
<path d="M80241 37235
L79493 37235
" />
<path d="M84420 40855
L82963 40855
" />
<path d="M84420 40107
L84420 40855
" />
<path d="M82963 40107
L84420 40107
" />
<path d="M82963 40855
L82963 40107
" />
<path d="M73536 37703
L72197 37703
" />
<path d="M73536 37010
L73536 37703
" />
<path d="M72197 37010
L73536 37010
" />
<path d="M72197 37703
L72197 37010
" />
<path d="M73250 14923
L71833 14923
" />
<path d="M73250 35336
L73250 14923
" />
<path d="M71833 35336
L73250 35336
" />
<path d="M71833 14923
L71833 35336
" />
<path d="M82250 14923
L80833 14923
" />
<path d="M82250 35336
L82250 14923
" />
<path d="M80833 35336
L82250 35336
" />
<path d="M80833 14923
L80833 35336
" />
<path d="M73764 39469
L73764 40217
" />
<path d="M73764 40217
L72307 40217
" />
<path d="M72307 40217
L72307 39469
" />
<path d="M72307 39469
L73764 39469
" />
<g >
</g>
<g >
</g>
<g >
</g>
<g >
</g>
<g >
</g>
<g >
</g>
<g >
</g>
<g >
</g>
<g >
</g>
<g >
</g>
<g >
</g>
<g >
</g>
<g >
</g>
<g >
</g>
<g >
</g>
<g >
</g>
<g >
</g>
<g >
</g>
<g >
</g>
<g >
</g>
<g >
</g>
<g >
</g>
<g >
</g>
<g >
</g>
<g >
</g>
<g >
</g>
<g >
</g>
<g >
</g>
<g >
</g>
<g >
</g>
<g >
</g>
<g >
</g>
</g> 
</svg>
