<?xml version="1.0" standalone="no"?>
 <!DOCTYPE svg PUBLIC "-//W3C//DTD SVG 1.1//EN" 
 "http://www.w3.org/Graphics/SVG/1.1/DTD/svg11.dtd"> 
<svg xmlns="http://www.w3.org/2000/svg" version="1.1" 
    width="29.7002cm" height="21.0007cm" viewBox="0 0 116930 82680 ">
<title>SVG Picture created as AutoUSB-KIT-v6-B_Fab.svg date 2022/01/24 08:35:17 </title>
  <desc>Picture generated by PCBNEW </desc>
<g style="fill:#000000; fill-opacity:1;stroke:#000000; stroke-opacity:1;
stroke-linecap:round; stroke-linejoin:round; "
 transform="translate(0 0) scale(1 1)">
</g>
<g style="fill:#000000; fill-opacity:0.0; 
stroke:#000000; stroke-width:-0.000393701; stroke-opacity:1; 
stroke-linecap:round; stroke-linejoin:round;">
</g>
<g style="fill:#000000; fill-opacity:0.0; 
stroke:#000000; stroke-width:39.3701; stroke-opacity:1; 
stroke-linecap:round; stroke-linejoin:round;">
<path d="M75908 24368
L76401 24368
" />
<path d="M75908 23581
L75908 24368
" />
<path d="M76278 23581
L75908 23581
" />
<path d="M76401 23704
L76278 23581
" />
<path d="M76401 24368
L76401 23704
" />
<path d="M82208 37593
L82701 37593
" />
<path d="M82208 36805
L82208 37593
" />
<path d="M82578 36805
L82208 36805
" />
<path d="M82701 36928
L82578 36805
" />
<path d="M82701 37593
L82701 36928
" />
<path d="M82485 39553
L82485 40046
" />
<path d="M83273 39553
L82485 39553
" />
<path d="M83273 39923
L83273 39553
" />
<path d="M83150 40046
L83273 39923
" />
<path d="M82485 40046
L83150 40046
" />
<path d="M76135 44243
L76135 45503
" />
<path d="M75505 44243
L76135 44243
" />
<path d="M75505 45503
L75505 44243
" />
<path d="M76135 45503
L75505 45503
" />
<path d="M77948 32335
L77948 32827
" />
<path d="M78735 32335
L77948 32335
" />
<path d="M78735 32704
L78735 32335
" />
<path d="M78612 32827
L78735 32704
" />
<path d="M77948 32827
L78612 32827
" />
<path d="M81420 43962
L81420 46600
" />
<path d="M79963 46600
L81420 46600
" />
<path d="M80357 43962
L81420 43962
" />
<path d="M79963 44356
L79963 46600
" />
<path d="M79963 44356
L80357 43962
" />
<path d="M82487 42391
L82487 43021
" />
<path d="M83747 42391
L82487 42391
" />
<path d="M83747 42864
L83747 42391
" />
<path d="M83589 43021
L83747 42864
" />
<path d="M82487 43021
L83589 43021
" />
<path d="M71862 37991
L73122 37991
" />
<path d="M71862 38621
L71862 37991
" />
<path d="M73122 38621
L71862 38621
" />
<path d="M73122 37991
L73122 38621
" />
<path d="M80832 13176
L80832 14436
" />
<path d="M80202 13176
L80832 13176
" />
<path d="M80202 14436
L80202 13176
" />
<path d="M80832 14436
L80202 14436
" />
<path d="M80103 36113
L80103 36900
" />
<path d="M79630 36113
L80103 36113
" />
<path d="M79630 36900
L79630 36113
" />
<path d="M80103 36900
L79630 36900
" />
<path d="M84085 40718
L83298 40718
" />
<path d="M84085 40245
L84085 40718
" />
<path d="M83298 40245
L84085 40245
" />
<path d="M83298 40718
L83298 40245
" />
<path d="M73260 37602
L73260 37110
" />
<path d="M72473 37602
L73260 37602
" />
<path d="M72473 37233
L72473 37602
" />
<path d="M72596 37110
L72473 37233
" />
<path d="M73260 37110
L72596 37110
" />
<path d="M72042 15381
L72292 15131
" />
<path d="M72042 35131
L72042 15381
" />
<path d="M73042 35131
L72042 35131
" />
<path d="M73042 15131
L73042 35131
" />
<path d="M72292 15131
L73042 15131
" />
<path d="M81042 15381
L81292 15131
" />
<path d="M81042 35131
L81042 15381
" />
<path d="M82042 35131
L81042 35131
" />
<path d="M82042 15131
L82042 35131
" />
<path d="M81292 15131
L82042 15131
" />
<path d="M72642 40080
L73311 40080
" />
<path d="M73311 40080
L73429 39962
" />
<path d="M73429 39962
L73429 39607
" />
<path d="M73429 39607
L72642 39607
" />
<path d="M72642 39607
L72642 40080
" />
<g >
</g>
<g >
</g>
<g >
</g>
<g >
</g>
<g >
</g>
<g >
</g>
<g >
</g>
<g >
</g>
<g >
</g>
<g >
</g>
<g >
</g>
<g >
</g>
<g >
</g>
<g >
</g>
<g >
</g>
<g >
</g>
<g >
</g>
<g >
</g>
<g >
</g>
<g >
</g>
<g >
</g>
<g >
</g>
<g >
</g>
<g >
</g>
<g >
</g>
<g >
</g>
<g >
</g>
<g >
</g>
<g >
</g>
<g >
</g>
<g >
</g>
</g>
<g style="fill:#000000; fill-opacity:0.0; 
stroke:#000000; stroke-width:39.3701; stroke-opacity:1; 
stroke-linecap:round; stroke-linejoin:round;">
</g>
<g style="fill:#000000; fill-opacity:0.0; 
stroke:#000000; stroke-width:59.0551; stroke-opacity:1; 
stroke-linecap:round; stroke-linejoin:round;">
<g transform="rotate(-90 75533 23975)">
<text x="75533" y="24171.9"
textLength="-1216.82" font-size="-524.934" lengthAdjust="spacingAndGlyphs"
text-anchor="middle" opacity="0">0.1u</text>
</g>
<path d="M75748 23496
L75748 23534
L75729 23571
L75711 23590
L75673 23609
L75598 23628
L75504 23628
L75429 23609
L75392 23590
L75373 23571
L75354 23534
L75354 23496
L75373 23459
L75392 23440
L75429 23421
L75504 23403
L75598 23403
L75673 23421
L75711 23440
L75729 23459
L75748 23496
" />
<path d="M75392 23796
L75373 23815
L75354 23796
L75373 23778
L75392 23796
L75354 23796
" />
<path d="M75354 24190
L75354 23965
" />
<path d="M75354 24078
L75748 24078
L75692 24040
L75654 24003
L75636 23965
" />
<path d="M75617 24528
L75354 24528
" />
<path d="M75617 24359
L75411 24359
L75373 24378
L75354 24415
L75354 24471
L75373 24509
L75392 24528
" />
</g>
<g style="fill:#000000; fill-opacity:0.0; 
stroke:#000000; stroke-width:31.4961; stroke-opacity:1; 
stroke-linecap:round; stroke-linejoin:round;">
<g transform="rotate(-90 76155 23975)">
<text x="76155" y="24073.4"
textLength="-307.555" font-size="-262.467" lengthAdjust="spacingAndGlyphs"
text-anchor="middle" opacity="0">C4</text>
</g>
<path d="M76084 23942
L76075 23932
L76065 23904
L76065 23885
L76075 23857
L76094 23839
L76112 23829
L76150 23820
L76178 23820
L76215 23829
L76234 23839
L76253 23857
L76262 23885
L76262 23904
L76253 23932
L76244 23942
" />
<path d="M76197 24110
L76065 24110
" />
<path d="M76272 24064
L76131 24017
L76131 24139
" />
</g>
<g style="fill:#000000; fill-opacity:0.0; 
stroke:#000000; stroke-width:59.0551; stroke-opacity:1; 
stroke-linecap:round; stroke-linejoin:round;">
<g transform="rotate(-90 81833 37199.4)">
<text x="81833" y="37396.3"
textLength="-1252.64" font-size="-524.934" lengthAdjust="spacingAndGlyphs"
text-anchor="middle" opacity="0">0.1u</text>
</g>
<path d="M82048 36721
L82048 36758
L82029 36796
L82011 36815
L81973 36833
L81898 36852
L81804 36852
L81729 36833
L81692 36815
L81673 36796
L81654 36758
L81654 36721
L81673 36683
L81692 36665
L81729 36646
L81804 36627
L81898 36627
L81973 36646
L82011 36665
L82029 36683
L82048 36721
" />
<path d="M81692 37021
L81673 37040
L81654 37021
L81673 37002
L81692 37021
L81654 37021
" />
<path d="M81654 37415
L81654 37190
" />
<path d="M81654 37302
L82048 37302
L81992 37265
L81954 37227
L81936 37190
" />
<path d="M81917 37752
L81654 37752
" />
<path d="M81917 37583
L81711 37583
L81673 37602
L81654 37639
L81654 37696
L81673 37733
L81692 37752
" />
</g>
<g style="fill:#000000; fill-opacity:0.0; 
stroke:#000000; stroke-width:31.4961; stroke-opacity:1; 
stroke-linecap:round; stroke-linejoin:round;">
<g transform="rotate(-90 82455 37199.4)">
<text x="82455" y="37297.8"
textLength="-307.555" font-size="-262.467" lengthAdjust="spacingAndGlyphs"
text-anchor="middle" opacity="0">C3</text>
</g>
<path d="M82384 37166
L82375 37157
L82365 37129
L82365 37110
L82375 37082
L82394 37063
L82412 37054
L82450 37044
L82478 37044
L82515 37054
L82534 37063
L82553 37082
L82562 37110
L82562 37129
L82553 37157
L82544 37166
" />
<path d="M82562 37232
L82562 37354
L82487 37288
L82487 37316
L82478 37335
L82469 37344
L82450 37354
L82403 37354
L82384 37344
L82375 37335
L82365 37316
L82365 37260
L82375 37241
L82384 37232
" />
</g>
<g style="fill:#000000; fill-opacity:0.0; 
stroke:#000000; stroke-width:59.0551; stroke-opacity:1; 
stroke-linecap:round; stroke-linejoin:round;">
<text x="82879.4" y="39374.8"
textLength="-1252.64" font-size="-524.934" lengthAdjust="spacingAndGlyphs"
text-anchor="middle" opacity="0">0.1u</text>
<path d="M82401 38962
L82438 38962
L82476 38981
L82495 38999
L82513 39037
L82532 39112
L82532 39206
L82513 39281
L82495 39318
L82476 39337
L82438 39356
L82401 39356
L82363 39337
L82345 39318
L82326 39281
L82307 39206
L82307 39112
L82326 39037
L82345 38999
L82363 38981
L82401 38962
" />
<path d="M82701 39318
L82720 39337
L82701 39356
L82682 39337
L82701 39318
L82701 39356
" />
<path d="M83095 39356
L82870 39356
" />
<path d="M82982 39356
L82982 38962
L82945 39018
L82907 39056
L82870 39074
" />
<path d="M83432 39093
L83432 39356
" />
<path d="M83263 39093
L83263 39299
L83282 39337
L83319 39356
L83376 39356
L83413 39337
L83432 39318
" />
</g>
<g style="fill:#000000; fill-opacity:0.0; 
stroke:#000000; stroke-width:31.4961; stroke-opacity:1; 
stroke-linecap:round; stroke-linejoin:round;">
<text x="82879.4" y="39898.4"
textLength="-307.555" font-size="-262.467" lengthAdjust="spacingAndGlyphs"
text-anchor="middle" opacity="0">C2</text>
<path d="M82846 39870
L82837 39879
L82809 39889
L82790 39889
L82762 39879
L82743 39860
L82734 39842
L82724 39804
L82724 39776
L82734 39739
L82743 39720
L82762 39701
L82790 39692
L82809 39692
L82837 39701
L82846 39710
" />
<path d="M82921 39710
L82930 39701
L82949 39692
L82996 39692
L83015 39701
L83024 39710
L83034 39729
L83034 39748
L83024 39776
L82912 39889
L83034 39889
" />
</g>
<g style="fill:#000000; fill-opacity:0.0; 
stroke:#000000; stroke-width:59.0551; stroke-opacity:1; 
stroke-linecap:round; stroke-linejoin:round;">
<g transform="rotate(-90 76536.7 44873.9)">
<text x="76536.7" y="45070.7"
textLength="-1083.91" font-size="-524.934" lengthAdjust="spacingAndGlyphs"
text-anchor="middle" opacity="0">100</text>
</g>
<path d="M76358 44611
L76358 44386
" />
<path d="M76358 44498
L76752 44498
L76696 44461
L76658 44423
L76639 44386
" />
<path d="M76752 44855
L76752 44892
L76733 44930
L76714 44948
L76677 44967
L76602 44986
L76508 44986
L76433 44967
L76396 44948
L76377 44930
L76358 44892
L76358 44855
L76377 44817
L76396 44798
L76433 44780
L76508 44761
L76602 44761
L76677 44780
L76714 44798
L76733 44817
L76752 44855
" />
<path d="M76752 45230
L76752 45267
L76733 45305
L76714 45323
L76677 45342
L76602 45361
L76508 45361
L76433 45342
L76396 45323
L76377 45305
L76358 45267
L76358 45230
L76377 45192
L76396 45173
L76433 45155
L76508 45136
L76602 45136
L76677 45155
L76714 45173
L76733 45192
L76752 45230
" />
</g>
<g style="fill:#000000; fill-opacity:0.0; 
stroke:#000000; stroke-width:47.2441; stroke-opacity:1; 
stroke-linecap:round; stroke-linejoin:round;">
<g transform="rotate(-90 75820.2 44873.9)">
<text x="75820.2" y="45031.4"
textLength="-1468.04" font-size="-419.947" lengthAdjust="spacingAndGlyphs"
text-anchor="middle" opacity="0">RDpw1</text>
</g>
<path d="M75677 44356
L75827 44251
" />
<path d="M75677 44176
L75992 44176
L75992 44296
L75977 44326
L75962 44341
L75932 44356
L75887 44356
L75857 44341
L75842 44326
L75827 44296
L75827 44176
" />
<path d="M75677 44491
L75992 44491
L75992 44566
L75977 44611
L75947 44641
L75917 44656
L75857 44671
L75812 44671
L75752 44656
L75722 44641
L75692 44611
L75677 44566
L75677 44491
" />
<path d="M75887 44806
L75572 44806
" />
<path d="M75872 44806
L75887 44836
L75887 44896
L75872 44926
L75857 44941
L75827 44956
L75737 44956
L75707 44941
L75692 44926
L75677 44896
L75677 44836
L75692 44806
" />
<path d="M75887 45061
L75677 45121
L75827 45181
L75677 45241
L75887 45301
" />
<path d="M75677 45586
L75677 45406
" />
<path d="M75677 45496
L75992 45496
L75947 45466
L75917 45436
L75902 45406
" />
</g>
<g style="fill:#000000; fill-opacity:0.0; 
stroke:#000000; stroke-width:59.0551; stroke-opacity:1; 
stroke-linecap:round; stroke-linejoin:round;">
<text x="78342.2" y="32156.7"
textLength="-1232.17" font-size="-524.934" lengthAdjust="spacingAndGlyphs"
text-anchor="middle" opacity="0">0.1u</text>
<path d="M77864 31744
L77901 31744
L77939 31762
L77957 31781
L77976 31819
L77995 31894
L77995 31987
L77976 32062
L77957 32100
L77939 32119
L77901 32137
L77864 32137
L77826 32119
L77807 32100
L77789 32062
L77770 31987
L77770 31894
L77789 31819
L77807 31781
L77826 31762
L77864 31744
" />
<path d="M78164 32100
L78182 32119
L78164 32137
L78145 32119
L78164 32100
L78164 32137
" />
<path d="M78557 32137
L78332 32137
" />
<path d="M78445 32137
L78445 31744
L78407 31800
L78370 31837
L78332 31856
" />
<path d="M78895 31875
L78895 32137
" />
<path d="M78726 31875
L78726 32081
L78745 32119
L78782 32137
L78839 32137
L78876 32119
L78895 32100
" />
</g>
<g style="fill:#000000; fill-opacity:0.0; 
stroke:#000000; stroke-width:31.4961; stroke-opacity:1; 
stroke-linecap:round; stroke-linejoin:round;">
<text x="78342.2" y="32680.3"
textLength="-973.097" font-size="-262.467" lengthAdjust="spacingAndGlyphs"
text-anchor="middle" opacity="0">Cvusb1</text>
<path d="M77976 32652
L77967 32661
L77939 32670
L77920 32670
L77892 32661
L77873 32642
L77864 32624
L77854 32586
L77854 32558
L77864 32520
L77873 32502
L77892 32483
L77920 32474
L77939 32474
L77967 32483
L77976 32492
" />
<path d="M78042 32539
L78089 32670
L78135 32539
" />
<path d="M78295 32539
L78295 32670
" />
<path d="M78210 32539
L78210 32642
L78220 32661
L78239 32670
L78267 32670
L78285 32661
L78295 32652
" />
<path d="M78379 32661
L78398 32670
L78435 32670
L78454 32661
L78464 32642
L78464 32633
L78454 32614
L78435 32605
L78407 32605
L78389 32595
L78379 32577
L78379 32567
L78389 32549
L78407 32539
L78435 32539
L78454 32549
" />
<path d="M78548 32670
L78548 32474
" />
<path d="M78548 32549
L78567 32539
L78604 32539
L78623 32549
L78632 32558
L78642 32577
L78642 32633
L78632 32652
L78623 32661
L78604 32670
L78567 32670
L78548 32661
" />
<path d="M78829 32670
L78717 32670
" />
<path d="M78773 32670
L78773 32474
L78754 32502
L78735 32520
L78717 32530
" />
</g>
<g style="fill:#000000; fill-opacity:0.0; 
stroke:#000000; stroke-width:59.0551; stroke-opacity:1; 
stroke-linecap:round; stroke-linejoin:round;">
<text x="80692.2" y="47250.4"
textLength="-3427.37" font-size="-524.934" lengthAdjust="spacingAndGlyphs"
text-anchor="middle" opacity="0">AP1117-15</text>
<path d="M79033 47119
L79220 47119
" />
<path d="M78995 47231
L79126 46837
L79258 47231
" />
<path d="M79389 47231
L79389 46837
L79539 46837
L79576 46856
L79595 46875
L79614 46912
L79614 46969
L79595 47006
L79576 47025
L79539 47044
L79389 47044
" />
<path d="M79989 47231
L79764 47231
" />
<path d="M79876 47231
L79876 46837
L79839 46894
L79801 46931
L79764 46950
" />
<path d="M80364 47231
L80139 47231
" />
<path d="M80251 47231
L80251 46837
L80214 46894
L80176 46931
L80139 46950
" />
<path d="M80739 47231
L80514 47231
" />
<path d="M80626 47231
L80626 46837
L80589 46894
L80551 46931
L80514 46950
" />
<path d="M80870 46837
L81132 46837
L80964 47231
" />
<path d="M81282 47081
L81582 47081
" />
<path d="M81976 47231
L81751 47231
" />
<path d="M81863 47231
L81863 46837
L81826 46894
L81788 46931
L81751 46950
" />
<path d="M82332 46837
L82145 46837
L82126 47025
L82145 47006
L82182 46987
L82276 46987
L82313 47006
L82332 47025
L82351 47062
L82351 47156
L82332 47194
L82313 47212
L82276 47231
L82182 47231
L82145 47212
L82126 47194
" />
</g>
<g style="fill:#000000; fill-opacity:0.0; 
stroke:#000000; stroke-width:47.2441; stroke-opacity:1; 
stroke-linecap:round; stroke-linejoin:round;">
<g transform="rotate(-90 80692.2 45281.9)">
<text x="80692.2" y="45439.4"
textLength="-1738" font-size="-419.947" lengthAdjust="spacingAndGlyphs"
text-anchor="middle" opacity="0">LM1117</text>
</g>
<path d="M80549 44599
L80549 44449
L80864 44449
" />
<path d="M80549 44704
L80864 44704
L80639 44809
L80864 44914
L80549 44914
" />
<path d="M80549 45229
L80549 45049
" />
<path d="M80549 45139
L80864 45139
L80819 45109
L80789 45079
L80774 45049
" />
<path d="M80549 45529
L80549 45349
" />
<path d="M80549 45439
L80864 45439
L80819 45409
L80789 45379
L80774 45349
" />
<path d="M80549 45829
L80549 45649
" />
<path d="M80549 45739
L80864 45739
L80819 45709
L80789 45679
L80774 45649
" />
<path d="M80864 45934
L80864 46144
L80549 46009
" />
</g>
<g style="fill:#000000; fill-opacity:0.0; 
stroke:#000000; stroke-width:59.0551; stroke-opacity:1; 
stroke-linecap:round; stroke-linejoin:round;">
<text x="83117.2" y="42187.2"
textLength="-332.283" font-size="-524.934" lengthAdjust="spacingAndGlyphs"
text-anchor="middle" opacity="0">D</text>
<path d="M83014 42168
L83014 41774
L83107 41774
L83164 41793
L83201 41830
L83220 41868
L83239 41943
L83239 41999
L83220 42074
L83201 42112
L83164 42149
L83107 42168
L83014 42168
" />
</g>
<g style="fill:#000000; fill-opacity:0.0; 
stroke:#000000; stroke-width:47.2441; stroke-opacity:1; 
stroke-linecap:round; stroke-linejoin:round;">
<text x="83117.2" y="42864.4"
textLength="-538.152" font-size="-419.947" lengthAdjust="spacingAndGlyphs"
text-anchor="middle" opacity="0">D9</text>
<path d="M82884 42849
L82884 42534
L82959 42534
L83004 42549
L83034 42579
L83049 42609
L83064 42669
L83064 42714
L83049 42774
L83034 42804
L83004 42834
L82959 42849
L82884 42849
" />
<path d="M83214 42849
L83274 42849
L83304 42834
L83319 42819
L83349 42774
L83364 42714
L83364 42594
L83349 42564
L83334 42549
L83304 42534
L83244 42534
L83214 42549
L83199 42564
L83184 42594
L83184 42669
L83199 42699
L83214 42714
L83244 42729
L83304 42729
L83334 42714
L83349 42699
L83364 42669
" />
</g>
<g style="fill:#000000; fill-opacity:0.0; 
stroke:#000000; stroke-width:59.0551; stroke-opacity:1; 
stroke-linecap:round; stroke-linejoin:round;">
<text x="72492.2" y="37787.2"
textLength="-707.237" font-size="-524.934" lengthAdjust="spacingAndGlyphs"
text-anchor="middle" opacity="0">5K</text>
<path d="M72389 37374
L72201 37374
L72182 37562
L72201 37543
L72239 37524
L72332 37524
L72370 37543
L72389 37562
L72407 37599
L72407 37693
L72389 37730
L72370 37749
L72332 37768
L72239 37768
L72201 37749
L72182 37730
" />
<path d="M72576 37768
L72576 37374
" />
<path d="M72801 37768
L72632 37543
" />
<path d="M72801 37374
L72576 37599
" />
</g>
<g style="fill:#000000; fill-opacity:0.0; 
stroke:#000000; stroke-width:47.2441; stroke-opacity:1; 
stroke-linecap:round; stroke-linejoin:round;">
<text x="72492.2" y="38464.4"
textLength="-538.152" font-size="-419.947" lengthAdjust="spacingAndGlyphs"
text-anchor="middle" opacity="0">R2</text>
<path d="M72439 38449
L72334 38299
" />
<path d="M72259 38449
L72259 38134
L72379 38134
L72409 38149
L72424 38164
L72439 38194
L72439 38239
L72424 38269
L72409 38284
L72379 38299
L72259 38299
" />
<path d="M72559 38164
L72574 38149
L72604 38134
L72679 38134
L72709 38149
L72724 38164
L72739 38194
L72739 38224
L72724 38269
L72544 38449
L72739 38449
" />
</g>
<g style="fill:#000000; fill-opacity:0.0; 
stroke:#000000; stroke-width:59.0551; stroke-opacity:1; 
stroke-linecap:round; stroke-linejoin:round;">
<g transform="rotate(-90 81233.7 13806.9)">
<text x="81233.7" y="14003.7"
textLength="-707.237" font-size="-524.934" lengthAdjust="spacingAndGlyphs"
text-anchor="middle" opacity="0">5K</text>
</g>
<path d="M81449 13703
L81449 13516
L81261 13497
L81280 13516
L81299 13553
L81299 13647
L81280 13685
L81261 13703
L81224 13722
L81130 13722
L81093 13703
L81074 13685
L81055 13647
L81055 13553
L81074 13516
L81093 13497
" />
<path d="M81055 13891
L81449 13891
" />
<path d="M81055 14116
L81280 13947
" />
<path d="M81449 14116
L81224 13891
" />
</g>
<g style="fill:#000000; fill-opacity:0.0; 
stroke:#000000; stroke-width:47.2441; stroke-opacity:1; 
stroke-linecap:round; stroke-linejoin:round;">
<g transform="rotate(-90 80517.2 13806.9)">
<text x="80517.2" y="13964.4"
textLength="-538.152" font-size="-419.947" lengthAdjust="spacingAndGlyphs"
text-anchor="middle" opacity="0">R1</text>
</g>
<path d="M80374 13754
L80524 13649
" />
<path d="M80374 13574
L80689 13574
L80689 13694
L80674 13724
L80659 13739
L80629 13754
L80584 13754
L80554 13739
L80539 13724
L80524 13694
L80524 13574
" />
<path d="M80374 14054
L80374 13874
" />
<path d="M80374 13964
L80689 13964
L80644 13934
L80614 13904
L80599 13874
" />
</g>
<g style="fill:#000000; fill-opacity:0.0; 
stroke:#000000; stroke-width:59.0551; stroke-opacity:1; 
stroke-linecap:round; stroke-linejoin:round;">
<g transform="rotate(-90 80516.8 36506.9)">
<text x="80516.8" y="36703.7"
textLength="-1925.83" font-size="-524.934" lengthAdjust="spacingAndGlyphs"
text-anchor="middle" opacity="0">200mA</text>
</g>
<path d="M80694 35588
L80713 35607
L80732 35644
L80732 35738
L80713 35775
L80694 35794
L80657 35813
L80619 35813
L80563 35794
L80338 35569
L80338 35813
" />
<path d="M80732 36056
L80732 36094
L80713 36131
L80694 36150
L80657 36169
L80582 36188
L80488 36188
L80413 36169
L80376 36150
L80357 36131
L80338 36094
L80338 36056
L80357 36019
L80376 36000
L80413 35981
L80488 35963
L80582 35963
L80657 35981
L80694 36000
L80713 36019
L80732 36056
" />
<path d="M80732 36431
L80732 36469
L80713 36506
L80694 36525
L80657 36544
L80582 36563
L80488 36563
L80413 36544
L80376 36525
L80357 36506
L80338 36469
L80338 36431
L80357 36394
L80376 36375
L80413 36356
L80488 36338
L80582 36338
L80657 36356
L80694 36375
L80713 36394
L80732 36431
" />
<path d="M80338 36731
L80601 36731
" />
<path d="M80563 36731
L80582 36750
L80601 36788
L80601 36844
L80582 36881
L80544 36900
L80338 36900
" />
<path d="M80544 36900
L80582 36919
L80601 36956
L80601 37013
L80582 37050
L80544 37069
L80338 37069
" />
<path d="M80451 37238
L80451 37425
" />
<path d="M80338 37200
L80732 37331
L80338 37463
" />
</g>
<g style="fill:#000000; fill-opacity:0.0; 
stroke:#000000; stroke-width:31.4961; stroke-opacity:1; 
stroke-linecap:round; stroke-linejoin:round;">
<g transform="rotate(-90 79867.2 36506.9)">
<text x="79867.2" y="36605.3"
textLength="-279.434" font-size="-262.467" lengthAdjust="spacingAndGlyphs"
text-anchor="middle" opacity="0">F1</text>
</g>
<path d="M79881 36441
L79881 36375
" />
<path d="M79778 36375
L79975 36375
L79975 36469
" />
<path d="M79778 36647
L79778 36535
" />
<path d="M79778 36591
L79975 36591
L79946 36572
L79928 36553
L79918 36535
" />
</g>
<g style="fill:#000000; fill-opacity:0.0; 
stroke:#000000; stroke-width:59.0551; stroke-opacity:1; 
stroke-linecap:round; stroke-linejoin:round;">
<text x="83692.2" y="41328.3"
textLength="-671.466" font-size="-524.934" lengthAdjust="spacingAndGlyphs"
text-anchor="middle" opacity="0">1A</text>
<path d="M83635 41309
L83410 41309
" />
<path d="M83523 41309
L83523 40915
L83485 40972
L83448 41009
L83410 41028
" />
<path d="M83785 41197
L83973 41197
" />
<path d="M83748 41309
L83879 40915
L84010 41309
" />
</g>
<g style="fill:#000000; fill-opacity:0.0; 
stroke:#000000; stroke-width:31.4961; stroke-opacity:1; 
stroke-linecap:round; stroke-linejoin:round;">
<text x="83692.2" y="40580.3"
textLength="-279.434" font-size="-262.467" lengthAdjust="spacingAndGlyphs"
text-anchor="middle" opacity="0">F0</text>
<path d="M83626 40467
L83560 40467
" />
<path d="M83560 40570
L83560 40374
L83654 40374
" />
<path d="M83767 40374
L83785 40374
L83804 40383
L83814 40392
L83823 40411
L83832 40449
L83832 40495
L83823 40533
L83814 40552
L83804 40561
L83785 40570
L83767 40570
L83748 40561
L83739 40552
L83729 40533
L83720 40495
L83720 40449
L83729 40411
L83739 40392
L83748 40383
L83767 40374
" />
</g>
<g style="fill:#000000; fill-opacity:0.0; 
stroke:#000000; stroke-width:59.0551; stroke-opacity:1; 
stroke-linecap:round; stroke-linejoin:round;">
<text x="72867.2" y="38175.8"
textLength="-1065.17" font-size="-524.934" lengthAdjust="spacingAndGlyphs"
text-anchor="middle" opacity="0">10u</text>
<path d="M72614 38157
L72389 38157
" />
<path d="M72501 38157
L72501 37763
L72464 37819
L72426 37857
L72389 37875
" />
<path d="M72857 37763
L72895 37763
L72932 37782
L72951 37800
L72970 37838
L72989 37913
L72989 38007
L72970 38082
L72951 38119
L72932 38138
L72895 38157
L72857 38157
L72820 38138
L72801 38119
L72782 38082
L72764 38007
L72764 37913
L72782 37838
L72801 37800
L72820 37782
L72857 37763
" />
<path d="M73326 37894
L73326 38157
" />
<path d="M73157 37894
L73157 38100
L73176 38138
L73214 38157
L73270 38157
L73307 38138
L73326 38119
" />
</g>
<g style="fill:#000000; fill-opacity:0.0; 
stroke:#000000; stroke-width:31.4961; stroke-opacity:1; 
stroke-linecap:round; stroke-linejoin:round;">
<text x="72867.2" y="37455.3"
textLength="-307.555" font-size="-262.467" lengthAdjust="spacingAndGlyphs"
text-anchor="middle" opacity="0">C1</text>
<path d="M72834 37427
L72825 37436
L72796 37445
L72778 37445
L72750 37436
L72731 37417
L72721 37399
L72712 37361
L72712 37333
L72721 37295
L72731 37277
L72750 37258
L72778 37249
L72796 37249
L72825 37258
L72834 37267
" />
<path d="M73021 37445
L72909 37445
" />
<path d="M72965 37445
L72965 37249
L72946 37277
L72928 37295
L72909 37305
" />
</g>
<g style="fill:#000000; fill-opacity:0.0; 
stroke:#000000; stroke-width:59.0551; stroke-opacity:1; 
stroke-linecap:round; stroke-linejoin:round;">
<text x="72542.2" y="35746.1"
textLength="-5189.65" font-size="-524.934" lengthAdjust="spacingAndGlyphs"
text-anchor="middle" opacity="0">Conn_01x20_Male</text>
<path d="M70245 35689
L70226 35708
L70170 35727
L70133 35727
L70076 35708
L70039 35671
L70020 35633
L70001 35558
L70001 35502
L70020 35427
L70039 35389
L70076 35352
L70133 35333
L70170 35333
L70226 35352
L70245 35371
" />
<path d="M70470 35727
L70433 35708
L70414 35689
L70395 35652
L70395 35539
L70414 35502
L70433 35483
L70470 35464
L70526 35464
L70564 35483
L70583 35502
L70601 35539
L70601 35652
L70583 35689
L70564 35708
L70526 35727
L70470 35727
" />
<path d="M70770 35464
L70770 35727
" />
<path d="M70770 35502
L70789 35483
L70826 35464
L70883 35464
L70920 35483
L70939 35521
L70939 35727
" />
<path d="M71126 35464
L71126 35727
" />
<path d="M71126 35502
L71145 35483
L71183 35464
L71239 35464
L71276 35483
L71295 35521
L71295 35727
" />
<path d="M71389 35764
L71689 35764
" />
<path d="M71857 35333
L71895 35333
L71932 35352
L71951 35371
L71970 35408
L71989 35483
L71989 35577
L71970 35652
L71951 35689
L71932 35708
L71895 35727
L71857 35727
L71820 35708
L71801 35689
L71782 35652
L71764 35577
L71764 35483
L71782 35408
L71801 35371
L71820 35352
L71857 35333
" />
<path d="M72364 35727
L72139 35727
" />
<path d="M72251 35727
L72251 35333
L72214 35389
L72176 35427
L72139 35446
" />
<path d="M72495 35727
L72701 35464
" />
<path d="M72495 35464
L72701 35727
" />
<path d="M72832 35371
L72851 35352
L72889 35333
L72982 35333
L73020 35352
L73039 35371
L73057 35408
L73057 35446
L73039 35502
L72814 35727
L73057 35727
" />
<path d="M73301 35333
L73338 35333
L73376 35352
L73395 35371
L73413 35408
L73432 35483
L73432 35577
L73413 35652
L73395 35689
L73376 35708
L73338 35727
L73301 35727
L73263 35708
L73245 35689
L73226 35652
L73207 35577
L73207 35483
L73226 35408
L73245 35371
L73263 35352
L73301 35333
" />
<path d="M73507 35764
L73807 35764
" />
<path d="M73901 35727
L73901 35333
L74032 35614
L74163 35333
L74163 35727
" />
<path d="M74520 35727
L74520 35521
L74501 35483
L74463 35464
L74388 35464
L74351 35483
" />
<path d="M74520 35708
L74482 35727
L74388 35727
L74351 35708
L74332 35671
L74332 35633
L74351 35596
L74388 35577
L74482 35577
L74520 35558
" />
<path d="M74763 35727
L74726 35708
L74707 35671
L74707 35333
" />
<path d="M75063 35708
L75026 35727
L74951 35727
L74913 35708
L74895 35671
L74895 35521
L74913 35483
L74951 35464
L75026 35464
L75063 35483
L75082 35521
L75082 35558
L74895 35596
" />
<g transform="rotate(-90 72542.2 25131.9)">
<text x="72542.2" y="25328.7"
textLength="-2210.44" font-size="-524.934" lengthAdjust="spacingAndGlyphs"
text-anchor="middle" opacity="0">R_CON1</text>
</g>
<path d="M72364 24306
L72551 24175
" />
<path d="M72364 24082
L72757 24082
L72757 24232
L72739 24269
L72720 24288
L72682 24306
L72626 24306
L72589 24288
L72570 24269
L72551 24232
L72551 24082
" />
<path d="M72326 24381
L72326 24681
" />
<path d="M72401 25000
L72382 24981
L72364 24925
L72364 24888
L72382 24831
L72420 24794
L72457 24775
L72532 24756
L72589 24756
L72664 24775
L72701 24794
L72739 24831
L72757 24888
L72757 24925
L72739 24981
L72720 25000
" />
<path d="M72757 25244
L72757 25319
L72739 25356
L72701 25394
L72626 25413
L72495 25413
L72420 25394
L72382 25356
L72364 25319
L72364 25244
L72382 25206
L72420 25169
L72495 25150
L72626 25150
L72701 25169
L72739 25206
L72757 25244
" />
<path d="M72364 25581
L72757 25581
L72364 25806
L72757 25806
" />
<path d="M72364 26200
L72364 25975
" />
<path d="M72364 26088
L72757 26088
L72701 26050
L72664 26013
L72645 25975
" />
<text x="81542.2" y="35746.1"
textLength="-5153.82" font-size="-524.934" lengthAdjust="spacingAndGlyphs"
text-anchor="middle" opacity="0">Conn_01x20_Male</text>
<path d="M79245 35689
L79226 35708
L79170 35727
L79133 35727
L79076 35708
L79039 35671
L79020 35633
L79001 35558
L79001 35502
L79020 35427
L79039 35389
L79076 35352
L79133 35333
L79170 35333
L79226 35352
L79245 35371
" />
<path d="M79470 35727
L79433 35708
L79414 35689
L79395 35652
L79395 35539
L79414 35502
L79433 35483
L79470 35464
L79526 35464
L79564 35483
L79583 35502
L79601 35539
L79601 35652
L79583 35689
L79564 35708
L79526 35727
L79470 35727
" />
<path d="M79770 35464
L79770 35727
" />
<path d="M79770 35502
L79789 35483
L79826 35464
L79883 35464
L79920 35483
L79939 35521
L79939 35727
" />
<path d="M80126 35464
L80126 35727
" />
<path d="M80126 35502
L80145 35483
L80183 35464
L80239 35464
L80276 35483
L80295 35521
L80295 35727
" />
<path d="M80389 35764
L80689 35764
" />
<path d="M80857 35333
L80895 35333
L80932 35352
L80951 35371
L80970 35408
L80989 35483
L80989 35577
L80970 35652
L80951 35689
L80932 35708
L80895 35727
L80857 35727
L80820 35708
L80801 35689
L80782 35652
L80764 35577
L80764 35483
L80782 35408
L80801 35371
L80820 35352
L80857 35333
" />
<path d="M81364 35727
L81139 35727
" />
<path d="M81251 35727
L81251 35333
L81214 35389
L81176 35427
L81139 35446
" />
<path d="M81495 35727
L81701 35464
" />
<path d="M81495 35464
L81701 35727
" />
<path d="M81832 35371
L81851 35352
L81889 35333
L81982 35333
L82020 35352
L82039 35371
L82057 35408
L82057 35446
L82039 35502
L81814 35727
L82057 35727
" />
<path d="M82301 35333
L82338 35333
L82376 35352
L82395 35371
L82413 35408
L82432 35483
L82432 35577
L82413 35652
L82395 35689
L82376 35708
L82338 35727
L82301 35727
L82263 35708
L82245 35689
L82226 35652
L82207 35577
L82207 35483
L82226 35408
L82245 35371
L82263 35352
L82301 35333
" />
<path d="M82507 35764
L82807 35764
" />
<path d="M82901 35727
L82901 35333
L83032 35614
L83163 35333
L83163 35727
" />
<path d="M83520 35727
L83520 35521
L83501 35483
L83463 35464
L83388 35464
L83351 35483
" />
<path d="M83520 35708
L83482 35727
L83388 35727
L83351 35708
L83332 35671
L83332 35633
L83351 35596
L83388 35577
L83482 35577
L83520 35558
" />
<path d="M83763 35727
L83726 35708
L83707 35671
L83707 35333
" />
<path d="M84063 35708
L84026 35727
L83951 35727
L83913 35708
L83895 35671
L83895 35521
L83913 35483
L83951 35464
L84026 35464
L84063 35483
L84082 35521
L84082 35558
L83895 35596
" />
<g transform="rotate(-90 81542.2 25131.9)">
<text x="81542.2" y="25328.7"
textLength="-2135.45" font-size="-524.934" lengthAdjust="spacingAndGlyphs"
text-anchor="middle" opacity="0">L_CON1</text>
</g>
<path d="M81364 24306
L81364 24119
L81757 24119
" />
<path d="M81326 24344
L81326 24644
" />
<path d="M81401 24963
L81382 24944
L81364 24888
L81364 24850
L81382 24794
L81420 24756
L81457 24738
L81532 24719
L81589 24719
L81664 24738
L81701 24756
L81739 24794
L81757 24850
L81757 24888
L81739 24944
L81720 24963
" />
<path d="M81757 25206
L81757 25281
L81739 25319
L81701 25356
L81626 25375
L81495 25375
L81420 25356
L81382 25319
L81364 25281
L81364 25206
L81382 25169
L81420 25131
L81495 25113
L81626 25113
L81701 25131
L81739 25169
L81757 25206
" />
<path d="M81364 25544
L81757 25544
L81364 25769
L81757 25769
" />
<path d="M81364 26163
L81364 25938
" />
<path d="M81364 26050
L81757 26050
L81701 26013
L81664 25975
L81645 25938
" />
<text x="73036.2" y="39391.1"
textLength="-316.929" font-size="-524.934" lengthAdjust="spacingAndGlyphs"
text-anchor="middle" opacity="0">D</text>
<path d="M72933 39372
L72933 38978
L73026 38978
L73083 38997
L73120 39034
L73139 39072
L73158 39147
L73158 39203
L73139 39278
L73120 39316
L73083 39353
L73026 39372
L72933 39372
" />
</g>
<g style="fill:#000000; fill-opacity:0.0; 
stroke:#000000; stroke-width:31.4961; stroke-opacity:1; 
stroke-linecap:round; stroke-linejoin:round;">
<text x="73036.2" y="39942.3"
textLength="-991.845" font-size="-262.467" lengthAdjust="spacingAndGlyphs"
text-anchor="middle" opacity="0">D_RST1</text>
<path d="M72548 39932
L72548 39736
L72595 39736
L72623 39745
L72642 39764
L72651 39782
L72661 39820
L72661 39848
L72651 39886
L72642 39904
L72623 39923
L72595 39932
L72548 39932
" />
<path d="M72698 39951
L72848 39951
" />
<path d="M73008 39932
L72942 39839
" />
<path d="M72895 39932
L72895 39736
L72970 39736
L72989 39745
L72998 39754
L73008 39773
L73008 39801
L72998 39820
L72989 39829
L72970 39839
L72895 39839
" />
<path d="M73083 39923
L73111 39932
L73158 39932
L73176 39923
L73186 39914
L73195 39895
L73195 39876
L73186 39857
L73176 39848
L73158 39839
L73120 39829
L73101 39820
L73092 39811
L73083 39792
L73083 39773
L73092 39754
L73101 39745
L73120 39736
L73167 39736
L73195 39745
" />
<path d="M73251 39736
L73364 39736
" />
<path d="M73308 39932
L73308 39736
" />
<path d="M73533 39932
L73420 39932
" />
<path d="M73476 39932
L73476 39736
L73458 39764
L73439 39782
L73420 39792
" />
<g >
</g>
</g> 
</svg>
