<?xml version="1.0" standalone="no"?>
 <!DOCTYPE svg PUBLIC "-//W3C//DTD SVG 1.1//EN" 
 "http://www.w3.org/Graphics/SVG/1.1/DTD/svg11.dtd"> 
<svg xmlns="http://www.w3.org/2000/svg" version="1.1" 
    width="29.7002cm" height="21.0007cm" viewBox="0 0 116930 82680 ">
<title>SVG Picture created as AutoUSB-KIT-v6-F_Fab.svg date 2022/01/24 08:35:17 </title>
  <desc>Picture generated by PCBNEW </desc>
<g style="fill:#000000; fill-opacity:1;stroke:#000000; stroke-opacity:1;
stroke-linecap:round; stroke-linejoin:round; "
 transform="translate(0 0) scale(1 1)">
</g>
<g style="fill:#000000; fill-opacity:0.0; 
stroke:#000000; stroke-width:-0.000393701; stroke-opacity:1; 
stroke-linecap:round; stroke-linejoin:round;">
</g>
<g style="fill:#000000; fill-opacity:0.0; 
stroke:#000000; stroke-width:39.3701; stroke-opacity:1; 
stroke-linecap:round; stroke-linejoin:round;">
<path d="M70933 40613
L70540 41007
" />
<path d="M75304 40613
L70933 40613
" />
<path d="M75304 47109
L75304 40613
" />
<path d="M70540 47109
L75304 47109
" />
<path d="M70540 41007
L70540 47109
" />
<path d="M81940 38055
L81940 38252
" />
<path d="M82038 38153
L81841 38153
" />
<circle cx="81198.5" cy="38581.9" r="984.252" /> 
<path d="M79941 15525
L79548 15131
" />
<path d="M79941 35131
L79941 15525
" />
<path d="M74142 35131
L79941 35131
" />
<path d="M74142 15131
L74142 35131
" />
<path d="M79548 15131
L74142 15131
" />
<path d="M72370 36709
L71055 36709
" />
<path d="M72370 39425
L72370 39544
" />
<path d="M72370 36591
L69697 36591
" />
<path d="M69697 36591
L69697 39544
" />
<path d="M72370 39544
L69697 39544
" />
<path d="M71055 36709
L71055 39425
" />
<path d="M72370 36591
L72370 36709
" />
<path d="M72370 39425
L71055 39425
" />
<path d="M69201 37378
L69201 38756
" />
<path d="M69201 38756
L69697 38756
" />
<path d="M69201 37378
L69697 37378
" />
<path d="M75721.5 35919.5 A787.402 787.402 0.0 0 0 75721.5 37494.3 " />
<path d="M78083.7 37494.3 A787.402 787.402 0.0 0 0 78083.7 35919.5 " />
<path d="M75672.3 35791.5 A915.354 915.354 0.0 0 0 75672.3 37622.2 " />
<path d="M78133 37622.2 A915.354 915.354 0.0 0 0 78133 35791.5 " />
<path d="M78083 37494
L75721 37494
" />
<path d="M78083 35919
L75721 35919
" />
<path d="M78132 37622
L75672 37622
" />
<path d="M78132 35791
L75672 35791
" />
<path d="M84470 37121
L83970 37121
" />
<path d="M84470 38578
L83970 38578
" />
<path d="M83970 39818
L83970 35881
" />
<path d="M84470 35881
L84470 39818
" />
<path d="M82737 35881
L84470 35881
" />
<path d="M82737 39818
L82737 35881
" />
<path d="M84470 39818
L82737 39818
" />
<path d="M77626 40000
L77823 39803
" />
<path d="M75461 40000
L77626 40000
" />
<path d="M75461 39213
L75461 40000
" />
<path d="M77823 39213
L75461 39213
" />
<path d="M77823 39803
L77823 39213
" />
<path d="M81792 37275
L82185 36881
" />
<path d="M80611 37275
L81792 37275
" />
<path d="M80611 35700
L80611 37275
" />
<path d="M82185 35700
L80611 35700
" />
<path d="M82185 36881
L82185 35700
" />
<path d="M76751 45941
L76751 45022
" />
<circle cx="77342.2" cy="45481.9" r="590.551" /> 
<path d="M76751.7 45941 A748.031 748.031 0.0 1 0 76751.4 45023 " />
<path d="M78374 38596
L77193 38596
" />
<path d="M78374 37966
L78374 38596
" />
<path d="M77193 37966
L78374 37966
" />
<path d="M77193 38596
L77193 37966
" />
<path d="M76374 38596
L75193 38596
" />
<path d="M76374 37966
L76374 38596
" />
<path d="M75193 37966
L76374 37966
" />
<path d="M75193 38596
L75193 37966
" />
<path d="M78965 39834
L79162 39834
" />
<path d="M79064 39735
L79064 39932
" />
<circle cx="79492.2" cy="40575.6" r="984.252" /> 
<path d="M78218 43329
L78021 43329
" />
<path d="M78120 43428
L78120 43231
" />
<circle cx="77692.2" cy="42588.2" r="984.252" /> 
<path d="M84363 41771
L83970 41377
" />
<path d="M80820 41377
L83970 41377
" />
<path d="M80820 41377
L80820 47086
" />
<path d="M80820 47086
L84363 47086
" />
<path d="M84363 47086
L84363 41771
" />
<path d="M80028 13931
L80028 13181
" />
<path d="M80028 13181
L74028 13181
" />
<path d="M74028 13181
L74028 14181
" />
<path d="M74028 14181
L79778 14181
" />
<path d="M79778 14181
L80028 13931
" />
<g >
</g>
<g >
</g>
<g >
</g>
<g >
</g>
<g >
</g>
<g >
</g>
<g >
</g>
<g >
</g>
<g >
</g>
<g >
</g>
<g >
</g>
<g >
</g>
<g >
</g>
<g >
</g>
<g >
</g>
<g >
</g>
<g >
</g>
<g >
</g>
<g >
</g>
<g >
</g>
<g >
</g>
<g >
</g>
<g >
</g>
<g >
</g>
<g >
</g>
<g >
</g>
<g >
</g>
<g >
</g>
<g >
</g>
<g >
</g>
<g >
</g>
</g>
<g style="fill:#000000; fill-opacity:0.0; 
stroke:#000000; stroke-width:39.3701; stroke-opacity:1; 
stroke-linecap:round; stroke-linejoin:round;">
</g>
<g style="fill:#000000; fill-opacity:0.0; 
stroke:#000000; stroke-width:59.0551; stroke-opacity:1; 
stroke-linecap:round; stroke-linejoin:round;">
<g transform="rotate(-90 76473.3 43861.4)">
<text x="76473.3" y="44058.3"
textLength="1951.54" font-size="524.934" lengthAdjust="spacingAndGlyphs"
text-anchor="middle" opacity="0">USB_B</text>
</g>
<path d="M76688 44705
L76370 44705
L76332 44686
L76313 44667
L76295 44630
L76295 44555
L76313 44517
L76332 44498
L76370 44480
L76688 44480
" />
<path d="M76313 44311
L76295 44255
L76295 44161
L76313 44123
L76332 44105
L76370 44086
L76407 44086
L76445 44105
L76463 44123
L76482 44161
L76501 44236
L76520 44273
L76538 44292
L76576 44311
L76613 44311
L76651 44292
L76670 44273
L76688 44236
L76688 44142
L76670 44086
" />
<path d="M76501 43786
L76482 43730
L76463 43711
L76426 43692
L76370 43692
L76332 43711
L76313 43730
L76295 43767
L76295 43917
L76688 43917
L76688 43786
L76670 43748
L76651 43730
L76613 43711
L76576 43711
L76538 43730
L76520 43748
L76501 43786
L76501 43917
" />
<path d="M76257 43617
L76257 43317
" />
<path d="M76501 43092
L76482 43036
L76463 43017
L76426 42999
L76370 42999
L76332 43017
L76313 43036
L76295 43074
L76295 43223
L76688 43223
L76688 43092
L76670 43055
L76651 43036
L76613 43017
L76576 43017
L76538 43036
L76520 43055
L76501 43092
L76501 43223
" />
<g transform="rotate(-90 72922.1 43861.4)">
<text x="72922.1" y="44058.3"
textLength="1632.83" font-size="524.934" lengthAdjust="spacingAndGlyphs"
text-anchor="middle" opacity="0">USB1</text>
</g>
<path d="M73137 44545
L72819 44545
L72781 44526
L72762 44508
L72744 44470
L72744 44395
L72762 44358
L72781 44339
L72819 44320
L73137 44320
" />
<path d="M72762 44152
L72744 44095
L72744 44002
L72762 43964
L72781 43945
L72819 43927
L72856 43927
L72894 43945
L72912 43964
L72931 44002
L72950 44077
L72968 44114
L72987 44133
L73025 44152
L73062 44152
L73100 44133
L73118 44114
L73137 44077
L73137 43983
L73118 43927
" />
<path d="M72950 43627
L72931 43570
L72912 43552
L72875 43533
L72819 43533
L72781 43552
L72762 43570
L72744 43608
L72744 43758
L73137 43758
L73137 43627
L73118 43589
L73100 43570
L73062 43552
L73025 43552
L72987 43570
L72968 43589
L72950 43627
L72950 43758
" />
<path d="M72744 43158
L72744 43383
" />
<path d="M72744 43270
L73137 43270
L73081 43308
L73043 43345
L73025 43383
" />
<text x="81198.5" y="40255.1"
textLength="1557.84" font-size="524.934" lengthAdjust="spacingAndGlyphs"
text-anchor="middle" opacity="0">100u</text>
<path d="M81639 40236
L81864 40236
" />
<path d="M81751 40236
L81751 39842
L81789 39898
L81826 39936
L81864 39955
" />
<path d="M81395 39842
L81357 39842
L81320 39861
L81301 39880
L81282 39917
L81264 39992
L81264 40086
L81282 40161
L81301 40198
L81320 40217
L81357 40236
L81395 40236
L81432 40217
L81451 40198
L81470 40161
L81489 40086
L81489 39992
L81470 39917
L81451 39880
L81432 39861
L81395 39842
" />
<path d="M81020 39842
L80982 39842
L80945 39861
L80926 39880
L80907 39917
L80889 39992
L80889 40086
L80907 40161
L80926 40198
L80945 40217
L80982 40236
L81020 40236
L81057 40217
L81076 40198
L81095 40161
L81114 40086
L81114 39992
L81095 39917
L81076 39880
L81057 39861
L81020 39842
" />
<path d="M80551 39973
L80551 40236
" />
<path d="M80720 39973
L80720 40180
L80701 40217
L80664 40236
L80607 40236
L80570 40217
L80551 40198
" />
<text x="81198.5" y="38778.7"
textLength="1520.34" font-size="524.934" lengthAdjust="spacingAndGlyphs"
text-anchor="middle" opacity="0">C9v1</text>
<path d="M81601 38722
L81620 38741
L81676 38759
L81714 38759
L81770 38741
L81807 38703
L81826 38666
L81845 38591
L81845 38535
L81826 38460
L81807 38422
L81770 38385
L81714 38366
L81676 38366
L81620 38385
L81601 38403
" />
<path d="M81414 38759
L81339 38759
L81301 38741
L81282 38722
L81245 38666
L81226 38591
L81226 38441
L81245 38403
L81264 38385
L81301 38366
L81376 38366
L81414 38385
L81432 38403
L81451 38441
L81451 38535
L81432 38572
L81414 38591
L81376 38610
L81301 38610
L81264 38591
L81245 38572
L81226 38535
" />
<path d="M81095 38497
L81001 38759
L80907 38497
" />
<path d="M80551 38759
L80776 38759
" />
<path d="M80664 38759
L80664 38366
L80701 38422
L80739 38460
L80776 38478
" />
<text x="77042.2" y="35746.1"
textLength="4707.44" font-size="524.934" lengthAdjust="spacingAndGlyphs"
text-anchor="middle" opacity="0">PIC18F4550-IP</text>
<path d="M79263 35727
L79263 35333
L79113 35333
L79076 35352
L79057 35371
L79038 35408
L79038 35464
L79057 35502
L79076 35521
L79113 35539
L79263 35539
" />
<path d="M78870 35727
L78870 35333
" />
<path d="M78457 35689
L78476 35708
L78532 35727
L78570 35727
L78626 35708
L78663 35671
L78682 35633
L78701 35558
L78701 35502
L78682 35427
L78663 35389
L78626 35352
L78570 35333
L78532 35333
L78476 35352
L78457 35371
" />
<path d="M78082 35727
L78307 35727
" />
<path d="M78195 35727
L78195 35333
L78232 35389
L78270 35427
L78307 35446
" />
<path d="M77857 35502
L77895 35483
L77913 35464
L77932 35427
L77932 35408
L77913 35371
L77895 35352
L77857 35333
L77782 35333
L77745 35352
L77726 35371
L77707 35408
L77707 35427
L77726 35464
L77745 35483
L77782 35502
L77857 35502
L77895 35521
L77913 35539
L77932 35577
L77932 35652
L77913 35689
L77895 35708
L77857 35727
L77782 35727
L77745 35708
L77726 35689
L77707 35652
L77707 35577
L77726 35539
L77745 35521
L77782 35502
" />
<path d="M77407 35521
L77539 35521
" />
<path d="M77539 35727
L77539 35333
L77351 35333
" />
<path d="M77032 35464
L77032 35727
" />
<path d="M77126 35314
L77220 35596
L76976 35596
" />
<path d="M76639 35333
L76826 35333
L76845 35521
L76826 35502
L76789 35483
L76695 35483
L76657 35502
L76639 35521
L76620 35558
L76620 35652
L76639 35689
L76657 35708
L76695 35727
L76789 35727
L76826 35708
L76845 35689
" />
<path d="M76264 35333
L76451 35333
L76470 35521
L76451 35502
L76414 35483
L76320 35483
L76282 35502
L76264 35521
L76245 35558
L76245 35652
L76264 35689
L76282 35708
L76320 35727
L76414 35727
L76451 35708
L76470 35689
" />
<path d="M76001 35333
L75964 35333
L75926 35352
L75907 35371
L75889 35408
L75870 35483
L75870 35577
L75889 35652
L75907 35689
L75926 35708
L75964 35727
L76001 35727
L76039 35708
L76057 35689
L76076 35652
L76095 35577
L76095 35483
L76076 35408
L76057 35371
L76039 35352
L76001 35333
" />
<path d="M75701 35577
L75401 35577
" />
<path d="M75214 35727
L75214 35333
" />
<path d="M75026 35727
L75026 35333
L74876 35333
L74839 35352
L74820 35371
L74801 35408
L74801 35464
L74820 35502
L74839 35521
L74876 35539
L75026 35539
" />
<text x="77042.2" y="25328.7"
textLength="1295.37" font-size="524.934" lengthAdjust="spacingAndGlyphs"
text-anchor="middle" opacity="0">MC1</text>
<path d="M77557 25309
L77557 24916
L77426 25197
L77295 24916
L77295 25309
" />
<path d="M76882 25272
L76901 25291
L76957 25309
L76995 25309
L77051 25291
L77089 25253
L77107 25216
L77126 25141
L77126 25085
L77107 25010
L77089 24972
L77051 24935
L76995 24916
L76957 24916
L76901 24935
L76882 24953
" />
<path d="M76507 25309
L76732 25309
" />
<path d="M76620 25309
L76620 24916
L76657 24972
L76695 25010
L76732 25028
" />
<g transform="rotate(-90 72839.2 38067.7)">
<text x="72839.2" y="38264.6"
textLength="770.435" font-size="524.934" lengthAdjust="spacingAndGlyphs"
text-anchor="middle" opacity="0">BT</text>
</g>
<path d="M72867 38189
L72848 38133
L72829 38114
L72792 38095
L72736 38095
L72698 38114
L72679 38133
L72661 38170
L72661 38320
L73054 38320
L73054 38189
L73036 38152
L73017 38133
L72979 38114
L72942 38114
L72904 38133
L72886 38152
L72867 38189
L72867 38320
" />
<path d="M73054 37983
L73054 37758
" />
<path d="M72661 37870
L73054 37870
" />
<g transform="rotate(-90 71378.6 38067.7)">
<text x="71378.6" y="38264.6"
textLength="1520.34" font-size="524.934" lengthAdjust="spacingAndGlyphs"
text-anchor="middle" opacity="0">RST1</text>
</g>
<path d="M71200 38470
L71387 38602
" />
<path d="M71200 38695
L71594 38695
L71594 38545
L71575 38508
L71556 38489
L71519 38470
L71462 38470
L71425 38489
L71406 38508
L71387 38545
L71387 38695
" />
<path d="M71219 38320
L71200 38264
L71200 38170
L71219 38133
L71238 38114
L71275 38095
L71313 38095
L71350 38114
L71369 38133
L71387 38170
L71406 38245
L71425 38283
L71444 38302
L71481 38320
L71519 38320
L71556 38302
L71575 38283
L71594 38245
L71594 38152
L71575 38095
" />
<path d="M71594 37983
L71594 37758
" />
<path d="M71200 37870
L71594 37870
" />
<path d="M71200 37420
L71200 37645
" />
<path d="M71200 37533
L71594 37533
L71537 37570
L71500 37608
L71481 37645
" />
<text x="76902.6" y="38291.5"
textLength="2007.78" font-size="524.934" lengthAdjust="spacingAndGlyphs"
text-anchor="middle" opacity="0">20MHz</text>
<path d="M77793 37916
L77774 37897
L77736 37879
L77643 37879
L77605 37897
L77586 37916
L77568 37954
L77568 37991
L77586 38047
L77811 38272
L77568 38272
" />
<path d="M77324 37879
L77286 37879
L77249 37897
L77230 37916
L77211 37954
L77193 38029
L77193 38122
L77211 38197
L77230 38235
L77249 38254
L77286 38272
L77324 38272
L77361 38254
L77380 38235
L77399 38197
L77418 38122
L77418 38029
L77399 37954
L77380 37916
L77361 37897
L77324 37879
" />
<path d="M77024 38272
L77024 37879
L76893 38160
L76762 37879
L76762 38272
" />
<path d="M76574 38272
L76574 37879
" />
<path d="M76574 38066
L76349 38066
" />
<path d="M76349 38272
L76349 37879
" />
<path d="M76199 38010
L75993 38010
L76199 38272
L75993 38272
" />
<text x="76902.6" y="36903.7"
textLength="1782.81" font-size="524.934" lengthAdjust="spacingAndGlyphs"
text-anchor="middle" opacity="0">XTAL1</text>
<path d="M77699 36491
L77436 36884
" />
<path d="M77436 36491
L77699 36884
" />
<path d="M77343 36491
L77118 36491
" />
<path d="M77230 36884
L77230 36491
" />
<path d="M77005 36772
L76818 36772
" />
<path d="M77043 36884
L76912 36491
L76780 36884
" />
<path d="M76462 36884
L76649 36884
L76649 36491
" />
<path d="M76124 36884
L76349 36884
" />
<path d="M76237 36884
L76237 36491
L76274 36547
L76312 36585
L76349 36603
" />
<g transform="rotate(-90 82245.7 37850)">
<text x="82245.7" y="38046.9"
textLength="1895.29" font-size="524.934" lengthAdjust="spacingAndGlyphs"
text-anchor="middle" opacity="0">L7805</text>
</g>
<path d="M82067 38478
L82067 38665
L82461 38665
" />
<path d="M82461 38384
L82461 38121
L82067 38290
" />
<path d="M82292 37915
L82311 37953
L82330 37971
L82367 37990
L82386 37990
L82423 37971
L82442 37953
L82461 37915
L82461 37840
L82442 37803
L82423 37784
L82386 37765
L82367 37765
L82330 37784
L82311 37803
L82292 37840
L82292 37915
L82273 37953
L82255 37971
L82217 37990
L82142 37990
L82105 37971
L82086 37953
L82067 37915
L82067 37840
L82086 37803
L82105 37784
L82142 37765
L82217 37765
L82255 37784
L82273 37803
L82292 37840
" />
<path d="M82461 37521
L82461 37484
L82442 37446
L82423 37428
L82386 37409
L82311 37390
L82217 37390
L82142 37409
L82105 37428
L82086 37446
L82067 37484
L82067 37521
L82086 37559
L82105 37578
L82142 37596
L82217 37615
L82311 37615
L82386 37596
L82423 37578
L82442 37559
L82461 37521
" />
<path d="M82461 37034
L82461 37221
L82273 37240
L82292 37221
L82311 37184
L82311 37090
L82292 37053
L82273 37034
L82236 37015
L82142 37015
L82105 37034
L82086 37053
L82067 37090
L82067 37184
L82086 37221
L82105 37240
" />
<g transform="rotate(-90 84911.1 37850)">
<text x="84911.1" y="38046.9"
textLength="2345.24" font-size="524.934" lengthAdjust="spacingAndGlyphs"
text-anchor="middle" opacity="0">LM7805</text>
</g>
<path d="M84733 38703
L84733 38890
L85126 38890
" />
<path d="M84733 38571
L85126 38571
L84845 38440
L85126 38309
L84733 38309
" />
<path d="M85126 38159
L85126 37896
L84733 38065
" />
<path d="M84957 37690
L84976 37728
L84995 37746
L85032 37765
L85051 37765
L85089 37746
L85107 37728
L85126 37690
L85126 37615
L85107 37578
L85089 37559
L85051 37540
L85032 37540
L84995 37559
L84976 37578
L84957 37615
L84957 37690
L84939 37728
L84920 37746
L84882 37765
L84807 37765
L84770 37746
L84751 37728
L84733 37690
L84733 37615
L84751 37578
L84770 37559
L84807 37540
L84882 37540
L84920 37559
L84939 37578
L84957 37615
" />
<path d="M85126 37296
L85126 37259
L85107 37221
L85089 37203
L85051 37184
L84976 37165
L84882 37165
L84807 37184
L84770 37203
L84751 37221
L84733 37259
L84733 37296
L84751 37334
L84770 37353
L84807 37371
L84882 37390
L84976 37390
L85051 37371
L85089 37353
L85107 37334
L85126 37296
" />
<path d="M85126 36809
L85126 36996
L84939 37015
L84957 36996
L84976 36959
L84976 36865
L84957 36828
L84939 36809
L84901 36790
L84807 36790
L84770 36809
L84751 36828
L84733 36865
L84733 36959
L84751 36996
L84770 37015
" />
<g transform="rotate(-90 75043.8 39606.9)">
<text x="75043.8" y="39803.7"
textLength="1801.56" font-size="524.934" lengthAdjust="spacingAndGlyphs"
text-anchor="middle" opacity="0">3.3/5</text>
</g>
<path d="M75259 40413
L75259 40169
L75109 40300
L75109 40244
L75090 40206
L75071 40188
L75034 40169
L74940 40169
L74903 40188
L74884 40206
L74865 40244
L74865 40356
L74884 40394
L74903 40413
" />
<path d="M74903 40000
L74884 39981
L74865 40000
L74884 40019
L74903 40000
L74865 40000
" />
<path d="M75259 39850
L75259 39606
L75109 39738
L75109 39681
L75090 39644
L75071 39625
L75034 39606
L74940 39606
L74903 39625
L74884 39644
L74865 39681
L74865 39794
L74884 39831
L74903 39850
" />
<path d="M75278 39156
L74771 39494
" />
<path d="M75259 38838
L75259 39025
L75071 39044
L75090 39025
L75109 38988
L75109 38894
L75090 38856
L75071 38838
L75034 38819
L74940 38819
L74903 38838
L74884 38856
L74865 38894
L74865 38988
L74884 39025
L74903 39044
" />
<text x="76642.2" y="39803.7"
textLength="1145.39" font-size="524.934" lengthAdjust="spacingAndGlyphs"
text-anchor="middle" opacity="0">JP1</text>
<path d="M76970 39391
L76970 39672
L76989 39728
L77026 39766
L77082 39784
L77120 39784
" />
<path d="M76782 39784
L76782 39391
L76632 39391
L76595 39410
L76576 39428
L76557 39466
L76557 39522
L76576 39560
L76595 39578
L76632 39597
L76782 39597
" />
<path d="M76182 39784
L76407 39784
" />
<path d="M76295 39784
L76295 39391
L76332 39447
L76370 39485
L76407 39503
" />
<g transform="rotate(-90 80193.8 36488.2)">
<text x="80193.8" y="36685"
textLength="6732.19" font-size="524.934" lengthAdjust="spacingAndGlyphs"
text-anchor="middle" opacity="0">Conn_02x02_Odd_Even</text>
</g>
<path d="M80053 39497
L80034 39515
L80015 39572
L80015 39609
L80034 39665
L80071 39703
L80109 39722
L80184 39740
L80240 39740
L80315 39722
L80353 39703
L80390 39665
L80409 39609
L80409 39572
L80390 39515
L80371 39497
" />
<path d="M80015 39272
L80034 39309
L80053 39328
L80090 39347
L80203 39347
L80240 39328
L80259 39309
L80278 39272
L80278 39215
L80259 39178
L80240 39159
L80203 39140
L80090 39140
L80053 39159
L80034 39178
L80015 39215
L80015 39272
" />
<path d="M80278 38972
L80015 38972
" />
<path d="M80240 38972
L80259 38953
L80278 38916
L80278 38859
L80259 38822
L80221 38803
L80015 38803
" />
<path d="M80278 38616
L80015 38616
" />
<path d="M80240 38616
L80259 38597
L80278 38559
L80278 38503
L80259 38466
L80221 38447
L80015 38447
" />
<path d="M79978 38353
L79978 38053
" />
<path d="M80409 37884
L80409 37847
L80390 37809
L80371 37791
L80334 37772
L80259 37753
L80165 37753
L80090 37772
L80053 37791
L80034 37809
L80015 37847
L80015 37884
L80034 37922
L80053 37941
L80090 37959
L80165 37978
L80259 37978
L80334 37959
L80371 37941
L80390 37922
L80409 37884
" />
<path d="M80371 37603
L80390 37584
L80409 37547
L80409 37453
L80390 37416
L80371 37397
L80334 37378
L80296 37378
L80240 37397
L80015 37622
L80015 37378
" />
<path d="M80015 37247
L80278 37041
" />
<path d="M80278 37247
L80015 37041
" />
<path d="M80409 36816
L80409 36778
L80390 36741
L80371 36722
L80334 36703
L80259 36685
L80165 36685
L80090 36703
L80053 36722
L80034 36741
L80015 36778
L80015 36816
L80034 36853
L80053 36872
L80090 36891
L80165 36910
L80259 36910
L80334 36891
L80371 36872
L80390 36853
L80409 36816
" />
<path d="M80371 36535
L80390 36516
L80409 36478
L80409 36385
L80390 36347
L80371 36328
L80334 36310
L80296 36310
L80240 36328
L80015 36553
L80015 36310
" />
<path d="M79978 36235
L79978 35935
" />
<path d="M80409 35766
L80409 35691
L80390 35653
L80353 35616
L80278 35597
L80146 35597
L80071 35616
L80034 35653
L80015 35691
L80015 35766
L80034 35803
L80071 35841
L80146 35860
L80278 35860
L80353 35841
L80390 35803
L80409 35766
" />
<path d="M80015 35260
L80409 35260
" />
<path d="M80034 35260
L80015 35297
L80015 35372
L80034 35410
L80053 35428
L80090 35447
L80203 35447
L80240 35428
L80259 35410
L80278 35372
L80278 35297
L80259 35260
" />
<path d="M80015 34904
L80409 34904
" />
<path d="M80034 34904
L80015 34941
L80015 35016
L80034 35053
L80053 35072
L80090 35091
L80203 35091
L80240 35072
L80259 35053
L80278 35016
L80278 34941
L80259 34904
" />
<path d="M79978 34810
L79978 34510
" />
<path d="M80221 34416
L80221 34285
" />
<path d="M80015 34229
L80015 34416
L80409 34416
L80409 34229
" />
<path d="M80278 34097
L80015 34004
L80278 33910
" />
<path d="M80034 33610
L80015 33647
L80015 33722
L80034 33760
L80071 33779
L80221 33779
L80259 33760
L80278 33722
L80278 33647
L80259 33610
L80221 33591
L80184 33591
L80146 33779
" />
<path d="M80278 33422
L80015 33422
" />
<path d="M80240 33422
L80259 33404
L80278 33366
L80278 33310
L80259 33272
L80221 33254
L80015 33254
" />
<text x="81398.5" y="36685"
textLength="751.687" font-size="524.934" lengthAdjust="spacingAndGlyphs"
text-anchor="middle" opacity="0">J1</text>
<path d="M81529 36272
L81529 36553
L81548 36610
L81585 36647
L81642 36666
L81679 36666
" />
<path d="M81136 36666
L81361 36666
" />
<path d="M81248 36666
L81248 36272
L81286 36328
L81323 36366
L81361 36385
" />
<text x="77342.2" y="44513.4"
textLength="1145.39" font-size="524.934" lengthAdjust="spacingAndGlyphs"
text-anchor="middle" opacity="0">LED</text>
<path d="M77595 44494
L77782 44494
L77782 44100
" />
<path d="M77464 44288
L77332 44288
" />
<path d="M77276 44494
L77464 44494
L77464 44100
L77276 44100
" />
<path d="M77107 44494
L77107 44100
L77014 44100
L76957 44119
L76920 44157
L76901 44194
L76882 44269
L76882 44325
L76901 44400
L76920 44438
L76957 44475
L77014 44494
L77107 44494
" />
<text x="77784.3" y="37671.7"
textLength="1520.34" font-size="524.934" lengthAdjust="spacingAndGlyphs"
text-anchor="middle" opacity="0">15pF</text>
<path d="M78206 37652
L78431 37652
" />
<path d="M78318 37652
L78318 37259
L78356 37315
L78393 37352
L78431 37371
" />
<path d="M77849 37259
L78037 37259
L78056 37446
L78037 37427
L77999 37409
L77906 37409
L77868 37427
L77849 37446
L77831 37484
L77831 37577
L77849 37615
L77868 37634
L77906 37652
L77999 37652
L78037 37634
L78056 37615
" />
<path d="M77662 37390
L77662 37784
" />
<path d="M77662 37409
L77624 37390
L77549 37390
L77512 37409
L77493 37427
L77474 37465
L77474 37577
L77493 37615
L77512 37634
L77549 37652
L77624 37652
L77662 37634
" />
<path d="M77175 37446
L77306 37446
" />
<path d="M77306 37652
L77306 37259
L77118 37259
" />
</g>
<g style="fill:#000000; fill-opacity:0.0; 
stroke:#000000; stroke-width:35.4331; stroke-opacity:1; 
stroke-linecap:round; stroke-linejoin:round;">
<text x="77784.3" y="38400"
textLength="942.913" font-size="314.961" lengthAdjust="spacingAndGlyphs"
text-anchor="middle" opacity="0">CXT2</text>
<path d="M78026 38366
L78037 38377
L78071 38388
L78093 38388
L78127 38377
L78149 38355
L78161 38332
L78172 38287
L78172 38253
L78161 38208
L78149 38186
L78127 38163
L78093 38152
L78071 38152
L78037 38163
L78026 38175
" />
<path d="M77947 38152
L77789 38388
" />
<path d="M77789 38152
L77947 38388
" />
<path d="M77733 38152
L77598 38152
" />
<path d="M77666 38388
L77666 38152
" />
<path d="M77531 38175
L77519 38163
L77497 38152
L77441 38152
L77418 38163
L77407 38175
L77396 38197
L77396 38220
L77407 38253
L77542 38388
L77396 38388
" />
</g>
<g style="fill:#000000; fill-opacity:0.0; 
stroke:#000000; stroke-width:59.0551; stroke-opacity:1; 
stroke-linecap:round; stroke-linejoin:round;">
<text x="75784.3" y="37671.7"
textLength="1489.63" font-size="524.934" lengthAdjust="spacingAndGlyphs"
text-anchor="middle" opacity="0">15pF</text>
<path d="M76206 37652
L76431 37652
" />
<path d="M76318 37652
L76318 37259
L76356 37315
L76393 37352
L76431 37371
" />
<path d="M75849 37259
L76037 37259
L76056 37446
L76037 37427
L75999 37409
L75906 37409
L75868 37427
L75849 37446
L75831 37484
L75831 37577
L75849 37615
L75868 37634
L75906 37652
L75999 37652
L76037 37634
L76056 37615
" />
<path d="M75662 37390
L75662 37784
" />
<path d="M75662 37409
L75624 37390
L75549 37390
L75512 37409
L75493 37427
L75474 37465
L75474 37577
L75493 37615
L75512 37634
L75549 37652
L75624 37652
L75662 37634
" />
<path d="M75175 37446
L75306 37446
" />
<path d="M75306 37652
L75306 37259
L75118 37259
" />
</g>
<g style="fill:#000000; fill-opacity:0.0; 
stroke:#000000; stroke-width:35.4331; stroke-opacity:1; 
stroke-linecap:round; stroke-linejoin:round;">
<text x="75784.3" y="38400"
textLength="942.913" font-size="314.961" lengthAdjust="spacingAndGlyphs"
text-anchor="middle" opacity="0">CXT1</text>
<path d="M76026 38366
L76037 38377
L76071 38388
L76093 38388
L76127 38377
L76149 38355
L76161 38332
L76172 38287
L76172 38253
L76161 38208
L76149 38186
L76127 38163
L76093 38152
L76071 38152
L76037 38163
L76026 38175
" />
<path d="M75947 38152
L75789 38388
" />
<path d="M75789 38152
L75947 38388
" />
<path d="M75733 38152
L75598 38152
" />
<path d="M75666 38388
L75666 38152
" />
<path d="M75396 38388
L75531 38388
" />
<path d="M75463 38388
L75463 38152
L75486 38186
L75508 38208
L75531 38220
" />
</g>
<g style="fill:#000000; fill-opacity:0.0; 
stroke:#000000; stroke-width:59.0551; stroke-opacity:1; 
stroke-linecap:round; stroke-linejoin:round;">
<g transform="rotate(-90 80968.6 40575.6)">
<text x="80968.6" y="40772.4"
textLength="1152.17" font-size="524.934" lengthAdjust="spacingAndGlyphs"
text-anchor="middle" opacity="0">47u</text>
</g>
<path d="M81052 40866
L80790 40866
" />
<path d="M81202 40959
L80921 41053
L80921 40809
" />
<path d="M81184 40697
L81184 40434
L80790 40603
" />
<path d="M81052 40116
L80790 40116
" />
<path d="M81052 40285
L80846 40285
L80809 40266
L80790 40228
L80790 40172
L80809 40135
L80827 40116
" />
<g transform="rotate(-90 79492.2 40575.6)">
<text x="79492.2" y="40772.4"
textLength="1520.34" font-size="524.934" lengthAdjust="spacingAndGlyphs"
text-anchor="middle" opacity="0">C5v1</text>
</g>
<path d="M79351 40978
L79332 40997
L79314 41053
L79314 41091
L79332 41147
L79370 41184
L79407 41203
L79482 41222
L79539 41222
L79614 41203
L79651 41184
L79689 41147
L79707 41091
L79707 41053
L79689 40997
L79670 40978
" />
<path d="M79707 40622
L79707 40809
L79520 40828
L79539 40809
L79557 40772
L79557 40678
L79539 40641
L79520 40622
L79482 40603
L79389 40603
L79351 40622
L79332 40641
L79314 40678
L79314 40772
L79332 40809
L79351 40828
" />
<path d="M79576 40472
L79314 40378
L79576 40285
" />
<path d="M79314 39928
L79314 40153
" />
<path d="M79314 40041
L79707 40041
L79651 40078
L79614 40116
L79595 40153
" />
<g transform="rotate(-90 76215.8 42588.2)">
<text x="76215.8" y="42785"
textLength="1182.88" font-size="524.934" lengthAdjust="spacingAndGlyphs"
text-anchor="middle" opacity="0">47u</text>
</g>
<path d="M76300 42878
L76037 42878
" />
<path d="M76450 42972
L76168 43066
L76168 42822
" />
<path d="M76431 42710
L76431 42447
L76037 42616
" />
<path d="M76300 42128
L76037 42128
" />
<path d="M76300 42297
L76093 42297
L76056 42278
L76037 42241
L76037 42185
L76056 42147
L76075 42128
" />
<g transform="rotate(-90 77692.2 42588.2)">
<text x="77692.2" y="42785"
textLength="2082.77" font-size="524.934" lengthAdjust="spacingAndGlyphs"
text-anchor="middle" opacity="0">C3.3v1</text>
</g>
<path d="M77551 43272
L77532 43291
L77514 43347
L77514 43384
L77532 43441
L77570 43478
L77607 43497
L77682 43516
L77739 43516
L77814 43497
L77851 43478
L77889 43441
L77907 43384
L77907 43347
L77889 43291
L77870 43272
" />
<path d="M77907 43141
L77907 42897
L77757 43028
L77757 42972
L77739 42935
L77720 42916
L77682 42897
L77589 42897
L77551 42916
L77532 42935
L77514 42972
L77514 43085
L77532 43122
L77551 43141
" />
<path d="M77551 42728
L77532 42710
L77514 42728
L77532 42747
L77551 42728
L77514 42728
" />
<path d="M77907 42578
L77907 42335
L77757 42466
L77757 42410
L77739 42372
L77720 42353
L77682 42335
L77589 42335
L77551 42353
L77532 42372
L77514 42410
L77514 42522
L77532 42560
L77551 42578
" />
<path d="M77776 42203
L77514 42110
L77776 42016
" />
<path d="M77514 41660
L77514 41885
" />
<path d="M77514 41772
L77907 41772
L77851 41810
L77814 41847
L77795 41885
" />
<text x="82592.2" y="48031.5"
textLength="2663.95" font-size="524.934" lengthAdjust="spacingAndGlyphs"
text-anchor="middle" opacity="0">Jack-DC</text>
<path d="M83679 47619
L83679 47900
L83698 47956
L83735 47994
L83792 48012
L83829 48012
" />
<path d="M83323 48012
L83323 47806
L83342 47769
L83379 47750
L83454 47750
L83492 47769
" />
<path d="M83323 47994
L83360 48012
L83454 48012
L83492 47994
L83510 47956
L83510 47919
L83492 47881
L83454 47862
L83360 47862
L83323 47844
" />
<path d="M82967 47994
L83004 48012
L83079 48012
L83117 47994
L83135 47975
L83154 47937
L83154 47825
L83135 47787
L83117 47769
L83079 47750
L83004 47750
L82967 47769
" />
<path d="M82798 48012
L82798 47619
" />
<path d="M82760 47862
L82648 48012
" />
<path d="M82648 47750
L82798 47900
" />
<path d="M82479 47862
L82179 47862
" />
<path d="M81992 48012
L81992 47619
L81898 47619
L81842 47637
L81804 47675
L81786 47712
L81767 47787
L81767 47844
L81786 47919
L81804 47956
L81842 47994
L81898 48012
L81992 48012
" />
<path d="M81373 47975
L81392 47994
L81448 48012
L81486 48012
L81542 47994
L81579 47956
L81598 47919
L81617 47844
L81617 47787
L81598 47712
L81579 47675
L81542 47637
L81486 47619
L81448 47619
L81392 47637
L81373 47656
" />
<text x="82592.2" y="44881.9"
textLength="789.183" font-size="524.934" lengthAdjust="spacingAndGlyphs"
text-anchor="middle" opacity="0">V1</text>
<path d="M82910 44469
L82779 44863
L82648 44469
" />
<path d="M82310 44863
L82535 44863
" />
<path d="M82423 44863
L82423 44469
L82460 44525
L82498 44563
L82535 44581
" />
<g transform="rotate(-90 73611.1 13681.1)">
<text x="73611.1" y="13878"
textLength="3413.85" font-size="524.934" lengthAdjust="spacingAndGlyphs"
text-anchor="middle" opacity="0">PICKIT_port</text>
</g>
<path d="M73433 15255
L73826 15255
L73826 15105
L73807 15068
L73789 15049
L73751 15030
L73695 15030
L73657 15049
L73639 15068
L73620 15105
L73620 15255
" />
<path d="M73433 14862
L73826 14862
" />
<path d="M73470 14449
L73451 14468
L73433 14524
L73433 14562
L73451 14618
L73489 14655
L73526 14674
L73601 14693
L73657 14693
L73732 14674
L73770 14655
L73807 14618
L73826 14562
L73826 14524
L73807 14468
L73789 14449
" />
<path d="M73433 14281
L73826 14281
" />
<path d="M73433 14056
L73657 14224
" />
<path d="M73826 14056
L73601 14281
" />
<path d="M73433 13887
L73826 13887
" />
<path d="M73826 13756
L73826 13531
" />
<path d="M73433 13643
L73826 13643
" />
<path d="M73395 13493
L73395 13193
" />
<path d="M73695 13099
L73301 13099
" />
<path d="M73676 13099
L73695 13062
L73695 12987
L73676 12949
L73657 12931
L73620 12912
L73507 12912
L73470 12931
L73451 12949
L73433 12987
L73433 13062
L73451 13099
" />
<path d="M73433 12687
L73451 12724
L73470 12743
L73507 12762
L73620 12762
L73657 12743
L73676 12724
L73695 12687
L73695 12631
L73676 12593
L73657 12574
L73620 12556
L73507 12556
L73470 12574
L73451 12593
L73433 12631
L73433 12687
" />
<path d="M73433 12387
L73695 12387
" />
<path d="M73620 12387
L73657 12368
L73676 12350
L73695 12312
L73695 12275
" />
<path d="M73695 12200
L73695 12050
" />
<path d="M73826 12143
L73489 12143
L73451 12125
L73433 12087
L73433 12050
" />
<text x="77028.4" y="13878"
textLength="3788.81" font-size="524.934" lengthAdjust="spacingAndGlyphs"
text-anchor="middle" opacity="0">PICKIT_port1</text>
<path d="M78790 13859
L78790 13465
L78640 13465
L78603 13484
L78584 13502
L78565 13540
L78565 13596
L78584 13634
L78603 13652
L78640 13671
L78790 13671
" />
<path d="M78397 13859
L78397 13465
" />
<path d="M77984 13821
L78003 13840
L78059 13859
L78097 13859
L78153 13840
L78190 13802
L78209 13765
L78228 13690
L78228 13634
L78209 13559
L78190 13521
L78153 13484
L78097 13465
L78059 13465
L78003 13484
L77984 13502
" />
<path d="M77815 13859
L77815 13465
" />
<path d="M77590 13859
L77759 13634
" />
<path d="M77590 13465
L77815 13690
" />
<path d="M77422 13859
L77422 13465
" />
<path d="M77290 13465
L77065 13465
" />
<path d="M77178 13859
L77178 13465
" />
<path d="M77028 13896
L76728 13896
" />
<path d="M76634 13596
L76634 13990
" />
<path d="M76634 13615
L76597 13596
L76522 13596
L76484 13615
L76465 13634
L76447 13671
L76447 13784
L76465 13821
L76484 13840
L76522 13859
L76597 13859
L76634 13840
" />
<path d="M76222 13859
L76259 13840
L76278 13821
L76297 13784
L76297 13671
L76278 13634
L76259 13615
L76222 13596
L76166 13596
L76128 13615
L76109 13634
L76091 13671
L76091 13784
L76109 13821
L76128 13840
L76166 13859
L76222 13859
" />
<path d="M75922 13859
L75922 13596
" />
<path d="M75922 13671
L75903 13634
L75884 13615
L75847 13596
L75809 13596
" />
<path d="M75734 13596
L75584 13596
" />
<path d="M75678 13465
L75678 13802
L75659 13840
L75622 13859
L75584 13859
" />
<path d="M75247 13859
L75472 13859
" />
<path d="M75359 13859
L75359 13465
L75397 13521
L75434 13559
L75472 13577
" />
<g >
</g>
</g> 
</svg>
