<?xml version="1.0" standalone="no"?>
 <!DOCTYPE svg PUBLIC "-//W3C//DTD SVG 1.1//EN" 
 "http://www.w3.org/Graphics/SVG/1.1/DTD/svg11.dtd"> 
<svg xmlns="http://www.w3.org/2000/svg" version="1.1" 
    width="29.7002cm" height="21.0007cm" viewBox="0 0 116930 82680 ">
<title>SVG Picture created as AutoUSB-KIT-v6-B_Paste.svg date 2022/01/24 08:35:16 </title>
  <desc>Picture generated by PCBNEW </desc>
<g style="fill:#000000; fill-opacity:1;stroke:#000000; stroke-opacity:1;
stroke-linecap:round; stroke-linejoin:round; "
 transform="translate(0 0) scale(1 1)">
</g>
<g style="fill:#000000; fill-opacity:0.0; 
stroke:#000000; stroke-width:-0.000393701; stroke-opacity:1; 
stroke-linecap:round; stroke-linejoin:round;">
<g >
</g>
<g >
</g>
<g >
</g>
<g >
</g>
<g style="fill:#000000; fill-opacity:0.0; 
stroke:#000000; stroke-width:-0.000393701; stroke-opacity:1; 
stroke-linecap:round; stroke-linejoin:round;">
</g>
<g style="fill:#000000; fill-opacity:0.0; 
stroke:#000000; stroke-width:0; stroke-opacity:1; 
stroke-linecap:round; stroke-linejoin:round;">
</g>
<g style="fill:#000000; fill-opacity:1.0; 
stroke:#000000; stroke-width:0; stroke-opacity:1; 
stroke-linecap:round; stroke-linejoin:round;">
<path style="fill:#000000; fill-opacity:1.0; 
stroke:#000000; stroke-width:0; stroke-opacity:1; 
stroke-linecap:round; stroke-linejoin:round;fill-rule:evenodd;"
d="M 76037.1,24103.4
76027.5,24104.8
76018.2,24107.2
76009.1,24110.4
76000.3,24114.6
75992.1,24119.5
75984.3,24125.3
75977.1,24131.8
75970.6,24138.9
75964.9,24146.7
75959.9,24155
75955.8,24163.7
75952.5,24172.8
75950.2,24182.2
75948.8,24191.7
75948.3,24201.4
75948.3,24447.4
75948.8,24457.1
75950.2,24466.6
75952.5,24476
75955.8,24485.1
75959.9,24493.8
75964.9,24502.1
75970.6,24509.9
75977.1,24517
75984.3,24523.5
75992.1,24529.3
76000.3,24534.2
76009.1,24538.4
76018.2,24541.6
76027.5,24544
76037.1,24545.4
76046.7,24545.9
76263.3,24545.9
76272.9,24545.4
76282.5,24544
76291.8,24541.6
76300.9,24538.4
76309.7,24534.2
76317.9,24529.3
76325.7,24523.5
76332.9,24517
76339.4,24509.9
76345.1,24502.1
76350.1,24493.8
76354.2,24485.1
76357.5,24476
76359.8,24466.6
76361.2,24457.1
76361.7,24447.4
76361.7,24201.4
76361.2,24191.7
76359.8,24182.2
76357.5,24172.8
76354.2,24163.7
76350.1,24155
76345.1,24146.7
76339.4,24138.9
76332.9,24131.8
76325.7,24125.3
76317.9,24119.5
76309.7,24114.6
76300.9,24110.4
76291.8,24107.2
76282.5,24104.8
76272.9,24103.4
76263.3,24103
76046.7,24103
Z" /> 
<path style="fill:#000000; fill-opacity:1.0; 
stroke:#000000; stroke-width:0; stroke-opacity:1; 
stroke-linecap:round; stroke-linejoin:round;fill-rule:evenodd;"
d="M 76037.1,23404.6
76027.5,23406
76018.2,23408.4
76009.1,23411.6
76000.3,23415.8
75992.1,23420.7
75984.3,23426.5
75977.1,23433
75970.6,23440.1
75964.9,23447.9
75959.9,23456.2
75955.8,23464.9
75952.5,23474
75950.2,23483.4
75948.8,23492.9
75948.3,23502.6
75948.3,23748.6
75948.8,23758.3
75950.2,23767.8
75952.5,23777.2
75955.8,23786.3
75959.9,23795
75964.9,23803.3
75970.6,23811.1
75977.1,23818.2
75984.3,23824.7
75992.1,23830.5
76000.3,23835.4
76009.1,23839.6
76018.2,23842.8
76027.5,23845.2
76037.1,23846.6
76046.7,23847
76263.3,23847
76272.9,23846.6
76282.5,23845.2
76291.8,23842.8
76300.9,23839.6
76309.7,23835.4
76317.9,23830.5
76325.7,23824.7
76332.9,23818.2
76339.4,23811.1
76345.1,23803.3
76350.1,23795
76354.2,23786.3
76357.5,23777.2
76359.8,23767.8
76361.2,23758.3
76361.7,23748.6
76361.7,23502.6
76361.2,23492.9
76359.8,23483.4
76357.5,23474
76354.2,23464.9
76350.1,23456.2
76345.1,23447.9
76339.4,23440.1
76332.9,23433
76325.7,23426.5
76317.9,23420.7
76309.7,23415.8
76300.9,23411.6
76291.8,23408.4
76282.5,23406
76272.9,23404.6
76263.3,23404.1
76046.7,23404.1
Z" /> 
</g>
<g >
</g>
<g style="fill:#000000; fill-opacity:1.0; 
stroke:#000000; stroke-width:0; stroke-opacity:1; 
stroke-linecap:round; stroke-linejoin:round;">
<path style="fill:#000000; fill-opacity:1.0; 
stroke:#000000; stroke-width:0; stroke-opacity:1; 
stroke-linecap:round; stroke-linejoin:round;fill-rule:evenodd;"
d="M 82337.1,37327.8
82327.5,37329.3
82318.2,37331.6
82309.1,37334.9
82300.3,37339
82292.1,37343.9
82284.3,37349.7
82277.1,37356.2
82270.6,37363.3
82264.9,37371.1
82259.9,37379.4
82255.8,37388.1
82252.5,37397.2
82250.2,37406.6
82248.8,37416.1
82248.3,37425.8
82248.3,37671.9
82248.8,37681.5
82250.2,37691.1
82252.5,37700.4
82255.8,37709.5
82259.9,37718.2
82264.9,37726.5
82270.6,37734.3
82277.1,37741.4
82284.3,37747.9
82292.1,37753.7
82300.3,37758.7
82309.1,37762.8
82318.2,37766
82327.5,37768.4
82337.1,37769.8
82346.7,37770.3
82563.3,37770.3
82572.9,37769.8
82582.5,37768.4
82591.8,37766
82600.9,37762.8
82609.7,37758.7
82617.9,37753.7
82625.7,37747.9
82632.9,37741.4
82639.4,37734.3
82645.1,37726.5
82650.1,37718.2
82654.2,37709.5
82657.5,37700.4
82659.8,37691.1
82661.2,37681.5
82661.7,37671.9
82661.7,37425.8
82661.2,37416.1
82659.8,37406.6
82657.5,37397.2
82654.2,37388.1
82650.1,37379.4
82645.1,37371.1
82639.4,37363.3
82632.9,37356.2
82625.7,37349.7
82617.9,37343.9
82609.7,37339
82600.9,37334.9
82591.8,37331.6
82582.5,37329.3
82572.9,37327.8
82563.3,37327.4
82346.7,37327.4
Z" /> 
<path style="fill:#000000; fill-opacity:1.0; 
stroke:#000000; stroke-width:0; stroke-opacity:1; 
stroke-linecap:round; stroke-linejoin:round;fill-rule:evenodd;"
d="M 82337.1,36629
82327.5,36630.4
82318.2,36632.8
82309.1,36636
82300.3,36640.2
82292.1,36645.1
82284.3,36650.9
82277.1,36657.4
82270.6,36664.5
82264.9,36672.3
82259.9,36680.6
82255.8,36689.3
82252.5,36698.4
82250.2,36707.8
82248.8,36717.3
82248.3,36727
82248.3,36973
82248.8,36982.7
82250.2,36992.2
82252.5,37001.6
82255.8,37010.7
82259.9,37019.4
82264.9,37027.7
82270.6,37035.5
82277.1,37042.6
82284.3,37049.1
82292.1,37054.9
82300.3,37059.8
82309.1,37064
82318.2,37067.2
82327.5,37069.6
82337.1,37071
82346.7,37071.5
82563.3,37071.5
82572.9,37071
82582.5,37069.6
82591.8,37067.2
82600.9,37064
82609.7,37059.8
82617.9,37054.9
82625.7,37049.1
82632.9,37042.6
82639.4,37035.5
82645.1,37027.7
82650.1,37019.4
82654.2,37010.7
82657.5,37001.6
82659.8,36992.2
82661.2,36982.7
82661.7,36973
82661.7,36727
82661.2,36717.3
82659.8,36707.8
82657.5,36698.4
82654.2,36689.3
82650.1,36680.6
82645.1,36672.3
82639.4,36664.5
82632.9,36657.4
82625.7,36650.9
82617.9,36645.1
82609.7,36640.2
82600.9,36636
82591.8,36632.8
82582.5,36630.4
82572.9,36629
82563.3,36628.5
82346.7,36628.5
Z" /> 
</g>
<g >
</g>
<g style="fill:#000000; fill-opacity:1.0; 
stroke:#000000; stroke-width:0; stroke-opacity:1; 
stroke-linecap:round; stroke-linejoin:round;">
<path style="fill:#000000; fill-opacity:1.0; 
stroke:#000000; stroke-width:0; stroke-opacity:1; 
stroke-linecap:round; stroke-linejoin:round;fill-rule:evenodd;"
d="M 82397.3,39593.8
82387.8,39595.2
82378.4,39597.5
82369.3,39600.8
82360.6,39604.9
82352.3,39609.9
82344.5,39615.6
82337.4,39622.1
82330.9,39629.3
82325.1,39637.1
82320.2,39645.3
82316,39654.1
82312.8,39663.2
82310.4,39672.5
82309,39682.1
82308.5,39691.7
82308.5,39908.3
82309,39917.9
82310.4,39927.5
82312.8,39936.8
82316,39945.9
82320.2,39954.7
82325.1,39962.9
82330.9,39970.7
82337.4,39977.9
82344.5,39984.4
82352.3,39990.1
82360.6,39995.1
82369.3,39999.2
82378.4,40002.5
82387.8,40004.8
82397.3,40006.2
82407,40006.7
82653,40006.7
82662.7,40006.2
82672.2,40004.8
82681.6,40002.5
82690.7,39999.2
82699.4,39995.1
82707.7,39990.1
82715.5,39984.4
82722.6,39977.9
82729.1,39970.7
82734.9,39962.9
82739.8,39954.7
82744,39945.9
82747.2,39936.8
82749.6,39927.5
82751,39917.9
82751.5,39908.3
82751.5,39691.7
82751,39682.1
82749.6,39672.5
82747.2,39663.2
82744,39654.1
82739.8,39645.3
82734.9,39637.1
82729.1,39629.3
82722.6,39622.1
82715.5,39615.6
82707.7,39609.9
82699.4,39604.9
82690.7,39600.8
82681.6,39597.5
82672.2,39595.2
82662.7,39593.8
82653,39593.3
82407,39593.3
Z" /> 
<path style="fill:#000000; fill-opacity:1.0; 
stroke:#000000; stroke-width:0; stroke-opacity:1; 
stroke-linecap:round; stroke-linejoin:round;fill-rule:evenodd;"
d="M 83096.1,39593.8
83086.6,39595.2
83077.2,39597.5
83068.1,39600.8
83059.4,39604.9
83051.1,39609.9
83043.3,39615.6
83036.2,39622.1
83029.7,39629.3
83023.9,39637.1
83019,39645.3
83014.9,39654.1
83011.6,39663.2
83009.3,39672.5
83007.8,39682.1
83007.4,39691.7
83007.4,39908.3
83007.8,39917.9
83009.3,39927.5
83011.6,39936.8
83014.9,39945.9
83019,39954.7
83023.9,39962.9
83029.7,39970.7
83036.2,39977.9
83043.3,39984.4
83051.1,39990.1
83059.4,39995.1
83068.1,39999.2
83077.2,40002.5
83086.6,40004.8
83096.1,40006.2
83105.8,40006.7
83351.9,40006.7
83361.5,40006.2
83371.1,40004.8
83380.4,40002.5
83389.5,39999.2
83398.2,39995.1
83406.5,39990.1
83414.3,39984.4
83421.4,39977.9
83427.9,39970.7
83433.7,39962.9
83438.7,39954.7
83442.8,39945.9
83446,39936.8
83448.4,39927.5
83449.8,39917.9
83450.3,39908.3
83450.3,39691.7
83449.8,39682.1
83448.4,39672.5
83446,39663.2
83442.8,39654.1
83438.7,39645.3
83433.7,39637.1
83427.9,39629.3
83421.4,39622.1
83414.3,39615.6
83406.5,39609.9
83398.2,39604.9
83389.5,39600.8
83380.4,39597.5
83371.1,39595.2
83361.5,39593.8
83351.9,39593.3
83105.8,39593.3
Z" /> 
</g>
<g >
</g>
<g >
</g>
<g style="fill:#000000; fill-opacity:1.0; 
stroke:#000000; stroke-width:0; stroke-opacity:1; 
stroke-linecap:round; stroke-linejoin:round;">
<path style="fill:#000000; fill-opacity:1.0; 
stroke:#000000; stroke-width:0; stroke-opacity:1; 
stroke-linecap:round; stroke-linejoin:round;fill-rule:evenodd;"
d="M 75564.5,44008.2
75554.9,44009.6
75545.6,44012
75536.5,44015.2
75527.7,44019.4
75519.5,44024.3
75511.7,44030.1
75504.5,44036.6
75498.1,44043.7
75492.3,44051.5
75487.3,44059.8
75483.2,44068.5
75480,44077.6
75477.6,44087
75476.2,44096.5
75475.7,44106.2
75475.7,44470.3
75476.2,44480
75477.6,44489.5
75480,44498.9
75483.2,44508
75487.3,44516.7
75492.3,44525
75498.1,44532.8
75504.5,44539.9
75511.7,44546.4
75519.5,44552.2
75527.7,44557.1
75536.5,44561.3
75545.6,44564.5
75554.9,44566.9
75564.5,44568.3
75574.1,44568.8
76066.3,44568.8
76075.9,44568.3
76085.5,44566.9
76094.8,44564.5
76103.9,44561.3
76112.7,44557.1
76120.9,44552.2
76128.7,44546.4
76135.9,44539.9
76142.4,44532.8
76148.1,44525
76153.1,44516.7
76157.2,44508
76160.5,44498.9
76162.8,44489.5
76164.2,44480
76164.7,44470.3
76164.7,44106.2
76164.2,44096.5
76162.8,44087
76160.5,44077.6
76157.2,44068.5
76153.1,44059.8
76148.1,44051.5
76142.4,44043.7
76135.9,44036.6
76128.7,44030.1
76120.9,44024.3
76112.7,44019.4
76103.9,44015.2
76094.8,44012
76085.5,44009.6
76075.9,44008.2
76066.3,44007.7
75574.1,44007.7
Z" /> 
<path style="fill:#000000; fill-opacity:1.0; 
stroke:#000000; stroke-width:0; stroke-opacity:1; 
stroke-linecap:round; stroke-linejoin:round;fill-rule:evenodd;"
d="M 75564.5,45179.5
75554.9,45180.9
75545.6,45183.2
75536.5,45186.5
75527.7,45190.6
75519.5,45195.6
75511.7,45201.3
75504.5,45207.8
75498.1,45215
75492.3,45222.8
75487.3,45231
75483.2,45239.8
75480,45248.9
75477.6,45258.2
75476.2,45267.8
75475.7,45277.4
75475.7,45641.6
75476.2,45651.3
75477.6,45660.8
75480,45670.2
75483.2,45679.3
75487.3,45688
75492.3,45696.3
75498.1,45704
75504.5,45711.2
75511.7,45717.7
75519.5,45723.4
75527.7,45728.4
75536.5,45732.5
75545.6,45735.8
75554.9,45738.1
75564.5,45739.6
75574.1,45740
76066.3,45740
76075.9,45739.6
76085.5,45738.1
76094.8,45735.8
76103.9,45732.5
76112.7,45728.4
76120.9,45723.4
76128.7,45717.7
76135.9,45711.2
76142.4,45704
76148.1,45696.3
76153.1,45688
76157.2,45679.3
76160.5,45670.2
76162.8,45660.8
76164.2,45651.3
76164.7,45641.6
76164.7,45277.4
76164.2,45267.8
76162.8,45258.2
76160.5,45248.9
76157.2,45239.8
76153.1,45231
76148.1,45222.8
76142.4,45215
76135.9,45207.8
76128.7,45201.3
76120.9,45195.6
76112.7,45190.6
76103.9,45186.5
76094.8,45183.2
76085.5,45180.9
76075.9,45179.5
76066.3,45179
75574.1,45179
Z" /> 
</g>
<g >
</g>
<g >
</g>
<g style="fill:#000000; fill-opacity:1.0; 
stroke:#000000; stroke-width:0; stroke-opacity:1; 
stroke-linecap:round; stroke-linejoin:round;">
<path style="fill:#000000; fill-opacity:1.0; 
stroke:#000000; stroke-width:0; stroke-opacity:1; 
stroke-linecap:round; stroke-linejoin:round;fill-rule:evenodd;"
d="M 77860.1,32375.7
77850.6,32377.1
77841.2,32379.4
77832.1,32382.7
77823.4,32386.8
77815.1,32391.8
77807.3,32397.5
77800.2,32404
77793.7,32411.2
77787.9,32418.9
77783,32427.2
77778.8,32436
77775.6,32445.1
77773.2,32454.4
77771.8,32464
77771.3,32473.6
77771.3,32690.2
77771.8,32699.8
77773.2,32709.4
77775.6,32718.7
77778.8,32727.8
77783,32736.6
77787.9,32744.8
77793.7,32752.6
77800.2,32759.8
77807.3,32766.2
77815.1,32772
77823.4,32777
77832.1,32781.1
77841.2,32784.3
77850.6,32786.7
77860.1,32788.1
77869.8,32788.6
78115.8,32788.6
78125.5,32788.1
78135,32786.7
78144.4,32784.3
78153.5,32781.1
78162.2,32777
78170.5,32772
78178.3,32766.2
78185.4,32759.8
78191.9,32752.6
78197.7,32744.8
78202.6,32736.6
78206.8,32727.8
78210,32718.7
78212.4,32709.4
78213.8,32699.8
78214.3,32690.2
78214.3,32473.6
78213.8,32464
78212.4,32454.4
78210,32445.1
78206.8,32436
78202.6,32427.2
78197.7,32418.9
78191.9,32411.2
78185.4,32404
78178.3,32397.5
78170.5,32391.8
78162.2,32386.8
78153.5,32382.7
78144.4,32379.4
78135,32377.1
78125.5,32375.7
78115.8,32375.2
77869.8,32375.2
Z" /> 
<path style="fill:#000000; fill-opacity:1.0; 
stroke:#000000; stroke-width:0; stroke-opacity:1; 
stroke-linecap:round; stroke-linejoin:round;fill-rule:evenodd;"
d="M 78558.9,32375.7
78549.4,32377.1
78540,32379.4
78530.9,32382.7
78522.2,32386.8
78513.9,32391.8
78506.1,32397.5
78499,32404
78492.5,32411.2
78486.7,32418.9
78481.8,32427.2
78477.6,32436
78474.4,32445.1
78472,32454.4
78470.6,32464
78470.2,32473.6
78470.2,32690.2
78470.6,32699.8
78472,32709.4
78474.4,32718.7
78477.6,32727.8
78481.8,32736.6
78486.7,32744.8
78492.5,32752.6
78499,32759.8
78506.1,32766.2
78513.9,32772
78522.2,32777
78530.9,32781.1
78540,32784.3
78549.4,32786.7
78558.9,32788.1
78568.6,32788.6
78814.6,32788.6
78824.3,32788.1
78833.8,32786.7
78843.2,32784.3
78852.3,32781.1
78861,32777
78869.3,32772
78877.1,32766.2
78884.2,32759.8
78890.7,32752.6
78896.5,32744.8
78901.4,32736.6
78905.6,32727.8
78908.8,32718.7
78911.2,32709.4
78912.6,32699.8
78913.1,32690.2
78913.1,32473.6
78912.6,32464
78911.2,32454.4
78908.8,32445.1
78905.6,32436
78901.4,32427.2
78896.5,32418.9
78890.7,32411.2
78884.2,32404
78877.1,32397.5
78869.3,32391.8
78861,32386.8
78852.3,32382.7
78843.2,32379.4
78833.8,32377.1
78824.3,32375.7
78814.6,32375.2
78568.6,32375.2
Z" /> 
</g>
<g >
</g>
<g style="fill:#000000; fill-opacity:1.0; 
stroke:#000000; stroke-width:0; stroke-opacity:1; 
stroke-linecap:round; stroke-linejoin:round;">
<path style="fill:#000000; fill-opacity:1.0; 
stroke:#000000; stroke-width:0; stroke-opacity:1; 
stroke-linecap:round; stroke-linejoin:round;fill-rule:evenodd;"
d="M 79058.3,44081.1
79058.3,44671.7
79845.7,44671.7
79845.7,44081.1
Z" /> 
<path style="fill:#000000; fill-opacity:1.0; 
stroke:#000000; stroke-width:0; stroke-opacity:1; 
stroke-linecap:round; stroke-linejoin:round;fill-rule:evenodd;"
d="M 79058.3,45892.1
79058.3,46482.7
79845.7,46482.7
79845.7,45892.1
Z" /> 
<path style="fill:#000000; fill-opacity:1.0; 
stroke:#000000; stroke-width:0; stroke-opacity:1; 
stroke-linecap:round; stroke-linejoin:round;fill-rule:evenodd;"
d="M 79058.3,44986.6
79058.3,45577.2
79845.7,45577.2
79845.7,44986.6
Z" /> 
<path style="fill:#000000; fill-opacity:1.0; 
stroke:#000000; stroke-width:0; stroke-opacity:1; 
stroke-linecap:round; stroke-linejoin:round;fill-rule:evenodd;"
d="M 81538.7,44533.9
81538.7,46029.9
82326.1,46029.9
82326.1,44533.9
Z" /> 
</g>
<g >
</g>
<g style="fill:#000000; fill-opacity:1.0; 
stroke:#000000; stroke-width:0; stroke-opacity:1; 
stroke-linecap:round; stroke-linejoin:round;">
<path style="fill:#000000; fill-opacity:1.0; 
stroke:#000000; stroke-width:0; stroke-opacity:1; 
stroke-linecap:round; stroke-linejoin:round;fill-rule:evenodd;"
d="M 82408.7,42362.9
82399.2,42364.3
82389.8,42366.6
82380.7,42369.9
82372,42374
82363.7,42379
82355.9,42384.7
82348.8,42391.2
82342.3,42398.4
82336.5,42406.1
82331.6,42414.4
82327.5,42423.2
82324.2,42432.3
82321.9,42441.6
82320.4,42451.2
82320,42460.8
82320,42953
82320.4,42962.6
82321.9,42972.2
82324.2,42981.5
82327.5,42990.6
82331.6,42999.3
82336.5,43007.6
82342.3,43015.4
82348.8,43022.6
82355.9,43029
82363.7,43034.8
82372,43039.8
82380.7,43043.9
82389.8,43047.1
82399.2,43049.5
82408.7,43050.9
82418.4,43051.4
82713.7,43051.4
82723.3,43050.9
82732.9,43049.5
82742.2,43047.1
82751.3,43043.9
82760.1,43039.8
82768.3,43034.8
82776.1,43029
82783.3,43022.6
82789.7,43015.4
82795.5,43007.6
82800.5,42999.3
82804.6,42990.6
82807.8,42981.5
82810.2,42972.2
82811.6,42962.6
82812.1,42953
82812.1,42460.8
82811.6,42451.2
82810.2,42441.6
82807.8,42432.3
82804.6,42423.2
82800.5,42414.4
82795.5,42406.1
82789.7,42398.4
82783.3,42391.2
82776.1,42384.7
82768.3,42379
82760.1,42374
82751.3,42369.9
82742.2,42366.6
82732.9,42364.3
82723.3,42362.9
82713.7,42362.4
82418.4,42362.4
Z" /> 
<path style="fill:#000000; fill-opacity:1.0; 
stroke:#000000; stroke-width:0; stroke-opacity:1; 
stroke-linecap:round; stroke-linejoin:round;fill-rule:evenodd;"
d="M 83511.1,42362.9
83501.5,42364.3
83492.2,42366.6
83483.1,42369.9
83474.4,42374
83466.1,42379
83458.3,42384.7
83451.2,42391.2
83444.7,42398.4
83438.9,42406.1
83433.9,42414.4
83429.8,42423.2
83426.6,42432.3
83424.2,42441.6
83422.8,42451.2
83422.3,42460.8
83422.3,42953
83422.8,42962.6
83424.2,42972.2
83426.6,42981.5
83429.8,42990.6
83433.9,42999.3
83438.9,43007.6
83444.7,43015.4
83451.2,43022.6
83458.3,43029
83466.1,43034.8
83474.4,43039.8
83483.1,43043.9
83492.2,43047.1
83501.5,43049.5
83511.1,43050.9
83520.7,43051.4
83816,43051.4
83825.7,43050.9
83835.2,43049.5
83844.6,43047.1
83853.7,43043.9
83862.4,43039.8
83870.7,43034.8
83878.5,43029
83885.6,43022.6
83892.1,43015.4
83897.9,43007.6
83902.8,42999.3
83907,42990.6
83910.2,42981.5
83912.6,42972.2
83914,42962.6
83914.4,42953
83914.4,42460.8
83914,42451.2
83912.6,42441.6
83910.2,42432.3
83907,42423.2
83902.8,42414.4
83897.9,42406.1
83892.1,42398.4
83885.6,42391.2
83878.5,42384.7
83870.7,42379
83862.4,42374
83853.7,42369.9
83844.6,42366.6
83835.2,42364.3
83825.7,42362.9
83816,42362.4
83520.7,42362.4
Z" /> 
</g>
<g >
</g>
<g style="fill:#000000; fill-opacity:1.0; 
stroke:#000000; stroke-width:0; stroke-opacity:1; 
stroke-linecap:round; stroke-linejoin:round;">
<path style="fill:#000000; fill-opacity:1.0; 
stroke:#000000; stroke-width:0; stroke-opacity:1; 
stroke-linecap:round; stroke-linejoin:round;fill-rule:evenodd;"
d="M 71714.8,37962.9
71705.3,37964.3
71695.9,37966.6
71686.8,37969.9
71678.1,37974
71669.8,37979
71662,37984.7
71654.9,37991.2
71648.4,37998.4
71642.7,38006.1
71637.7,38014.4
71633.6,38023.2
71630.3,38032.3
71628,38041.6
71626.5,38051.2
71626.1,38060.8
71626.1,38553
71626.5,38562.6
71628,38572.2
71630.3,38581.5
71633.6,38590.6
71637.7,38599.3
71642.7,38607.6
71648.4,38615.4
71654.9,38622.6
71662,38629
71669.8,38634.8
71678.1,38639.8
71686.8,38643.9
71695.9,38647.1
71705.3,38649.5
71714.8,38650.9
71724.5,38651.4
72088.7,38651.4
72098.3,38650.9
72107.9,38649.5
72117.2,38647.1
72126.3,38643.9
72135.1,38639.8
72143.3,38634.8
72151.1,38629
72158.3,38622.6
72164.7,38615.4
72170.5,38607.6
72175.5,38599.3
72179.6,38590.6
72182.8,38581.5
72185.2,38572.2
72186.6,38562.6
72187.1,38553
72187.1,38060.8
72186.6,38051.2
72185.2,38041.6
72182.8,38032.3
72179.6,38023.2
72175.5,38014.4
72170.5,38006.1
72164.7,37998.4
72158.3,37991.2
72151.1,37984.7
72143.3,37979
72135.1,37974
72126.3,37969.9
72117.2,37966.6
72107.9,37964.3
72098.3,37962.9
72088.7,37962.4
71724.5,37962.4
Z" /> 
<path style="fill:#000000; fill-opacity:1.0; 
stroke:#000000; stroke-width:0; stroke-opacity:1; 
stroke-linecap:round; stroke-linejoin:round;fill-rule:evenodd;"
d="M 72886.1,37962.9
72876.5,37964.3
72867.2,37966.6
72858.1,37969.9
72849.4,37974
72841.1,37979
72833.3,37984.7
72826.2,37991.2
72819.7,37998.4
72813.9,38006.1
72808.9,38014.4
72804.8,38023.2
72801.6,38032.3
72799.2,38041.6
72797.8,38051.2
72797.3,38060.8
72797.3,38553
72797.8,38562.6
72799.2,38572.2
72801.6,38581.5
72804.8,38590.6
72808.9,38599.3
72813.9,38607.6
72819.7,38615.4
72826.2,38622.6
72833.3,38629
72841.1,38634.8
72849.4,38639.8
72858.1,38643.9
72867.2,38647.1
72876.5,38649.5
72886.1,38650.9
72895.7,38651.4
73259.9,38651.4
73269.6,38650.9
73279.1,38649.5
73288.5,38647.1
73297.6,38643.9
73306.3,38639.8
73314.6,38634.8
73322.4,38629
73329.5,38622.6
73336,38615.4
73341.8,38607.6
73346.7,38599.3
73350.9,38590.6
73354.1,38581.5
73356.5,38572.2
73357.9,38562.6
73358.3,38553
73358.3,38060.8
73357.9,38051.2
73356.5,38041.6
73354.1,38032.3
73350.9,38023.2
73346.7,38014.4
73341.8,38006.1
73336,37998.4
73329.5,37991.2
73322.4,37984.7
73314.6,37979
73306.3,37974
73297.6,37969.9
73288.5,37966.6
73279.1,37964.3
73269.6,37962.9
73259.9,37962.4
72895.7,37962.4
Z" /> 
</g>
<g >
</g>
<g >
</g>
<g >
</g>
<g style="fill:#000000; fill-opacity:1.0; 
stroke:#000000; stroke-width:0; stroke-opacity:1; 
stroke-linecap:round; stroke-linejoin:round;">
<path style="fill:#000000; fill-opacity:1.0; 
stroke:#000000; stroke-width:0; stroke-opacity:1; 
stroke-linecap:round; stroke-linejoin:round;fill-rule:evenodd;"
d="M 80261.5,12941.2
80251.9,12942.6
80242.6,12945
80233.5,12948.2
80224.7,12952.4
80216.5,12957.3
80208.7,12963.1
80201.5,12969.6
80195.1,12976.7
80189.3,12984.5
80184.3,12992.8
80180.2,13001.5
80177,13010.6
80174.6,13020
80173.2,13029.5
80172.7,13039.2
80172.7,13403.3
80173.2,13413
80174.6,13422.5
80177,13431.9
80180.2,13441
80184.3,13449.7
80189.3,13458
80195.1,13465.8
80201.5,13472.9
80208.7,13479.4
80216.5,13485.2
80224.7,13490.1
80233.5,13494.3
80242.6,13497.5
80251.9,13499.9
80261.5,13501.3
80271.1,13501.8
80763.3,13501.8
80772.9,13501.3
80782.5,13499.9
80791.8,13497.5
80800.9,13494.3
80809.7,13490.1
80817.9,13485.2
80825.7,13479.4
80832.9,13472.9
80839.4,13465.8
80845.1,13458
80850.1,13449.7
80854.2,13441
80857.5,13431.9
80859.8,13422.5
80861.2,13413
80861.7,13403.3
80861.7,13039.2
80861.2,13029.5
80859.8,13020
80857.5,13010.6
80854.2,13001.5
80850.1,12992.8
80845.1,12984.5
80839.4,12976.7
80832.9,12969.6
80825.7,12963.1
80817.9,12957.3
80809.7,12952.4
80800.9,12948.2
80791.8,12945
80782.5,12942.6
80772.9,12941.2
80763.3,12940.7
80271.1,12940.7
Z" /> 
<path style="fill:#000000; fill-opacity:1.0; 
stroke:#000000; stroke-width:0; stroke-opacity:1; 
stroke-linecap:round; stroke-linejoin:round;fill-rule:evenodd;"
d="M 80261.5,14112.5
80251.9,14113.9
80242.6,14116.2
80233.5,14119.5
80224.7,14123.6
80216.5,14128.6
80208.7,14134.3
80201.5,14140.8
80195.1,14148
80189.3,14155.8
80184.3,14164
80180.2,14172.8
80177,14181.9
80174.6,14191.2
80173.2,14200.8
80172.7,14210.4
80172.7,14574.6
80173.2,14584.3
80174.6,14593.8
80177,14603.2
80180.2,14612.3
80184.3,14621
80189.3,14629.3
80195.1,14637
80201.5,14644.2
80208.7,14650.7
80216.5,14656.4
80224.7,14661.4
80233.5,14665.5
80242.6,14668.8
80251.9,14671.1
80261.5,14672.6
80271.1,14673
80763.3,14673
80772.9,14672.6
80782.5,14671.1
80791.8,14668.8
80800.9,14665.5
80809.7,14661.4
80817.9,14656.4
80825.7,14650.7
80832.9,14644.2
80839.4,14637
80845.1,14629.3
80850.1,14621
80854.2,14612.3
80857.5,14603.2
80859.8,14593.8
80861.2,14584.3
80861.7,14574.6
80861.7,14210.4
80861.2,14200.8
80859.8,14191.2
80857.5,14181.9
80854.2,14172.8
80850.1,14164
80845.1,14155.8
80839.4,14148
80832.9,14140.8
80825.7,14134.3
80817.9,14128.6
80809.7,14123.6
80800.9,14119.5
80791.8,14116.2
80782.5,14113.9
80772.9,14112.5
80763.3,14112
80271.1,14112
Z" /> 
</g>
<g >
</g>
<g >
</g>
<g >
</g>
<g style="fill:#000000; fill-opacity:1.0; 
stroke:#000000; stroke-width:0; stroke-opacity:1; 
stroke-linecap:round; stroke-linejoin:round;">
<path style="fill:#000000; fill-opacity:1.0; 
stroke:#000000; stroke-width:0; stroke-opacity:1; 
stroke-linecap:round; stroke-linejoin:round;fill-rule:evenodd;"
d="M 79680.4,35877.4
79670.8,35878.9
79661.5,35881.2
79652.4,35884.5
79643.6,35888.6
79635.4,35893.6
79627.6,35899.3
79620.4,35905.8
79614,35913
79608.2,35920.7
79603.2,35929
79599.1,35937.7
79595.9,35946.8
79593.5,35956.2
79592.1,35965.7
79591.6,35975.4
79591.6,36231.3
79592.1,36240.9
79593.5,36250.5
79595.9,36259.9
79599.1,36269
79603.2,36277.7
79608.2,36286
79614,36293.7
79620.4,36300.9
79627.6,36307.4
79635.4,36313.1
79643.6,36318.1
79652.4,36322.2
79661.5,36325.5
79670.8,36327.8
79680.4,36329.3
79690,36329.7
80044.4,36329.7
80054,36329.3
80063.6,36327.8
80072.9,36325.5
80082,36322.2
80090.8,36318.1
80099.1,36313.1
80106.8,36307.4
80114,36300.9
80120.5,36293.7
80126.2,36286
80131.2,36277.7
80135.3,36269
80138.6,36259.9
80140.9,36250.5
80142.3,36240.9
80142.8,36231.3
80142.8,35975.4
80142.3,35965.7
80140.9,35956.2
80138.6,35946.8
80135.3,35937.7
80131.2,35929
80126.2,35920.7
80120.5,35913
80114,35905.8
80106.8,35899.3
80099.1,35893.6
80090.8,35888.6
80082,35884.5
80072.9,35881.2
80063.6,35878.9
80054,35877.4
80044.4,35877
79690,35877
Z" /> 
<path style="fill:#000000; fill-opacity:1.0; 
stroke:#000000; stroke-width:0; stroke-opacity:1; 
stroke-linecap:round; stroke-linejoin:round;fill-rule:evenodd;"
d="M 79680.4,36684.5
79670.8,36685.9
79661.5,36688.3
79652.4,36691.5
79643.6,36695.7
79635.4,36700.6
79627.6,36706.4
79620.4,36712.9
79614,36720
79608.2,36727.8
79603.2,36736.1
79599.1,36744.8
79595.9,36753.9
79593.5,36763.3
79592.1,36772.8
79591.6,36782.5
79591.6,37038.4
79592.1,37048
79593.5,37057.6
79595.9,37067
79599.1,37076.1
79603.2,37084.8
79608.2,37093.1
79614,37100.8
79620.4,37108
79627.6,37114.5
79635.4,37120.2
79643.6,37125.2
79652.4,37129.3
79661.5,37132.6
79670.8,37134.9
79680.4,37136.3
79690,37136.8
80044.4,37136.8
80054,37136.3
80063.6,37134.9
80072.9,37132.6
80082,37129.3
80090.8,37125.2
80099.1,37120.2
80106.8,37114.5
80114,37108
80120.5,37100.8
80126.2,37093.1
80131.2,37084.8
80135.3,37076.1
80138.6,37067
80140.9,37057.6
80142.3,37048
80142.8,37038.4
80142.8,36782.5
80142.3,36772.8
80140.9,36763.3
80138.6,36753.9
80135.3,36744.8
80131.2,36736.1
80126.2,36727.8
80120.5,36720
80114,36712.9
80106.8,36706.4
80099.1,36700.6
80090.8,36695.7
80082,36691.5
80072.9,36688.3
80063.6,36685.9
80054,36684.5
80044.4,36684.1
79690,36684.1
Z" /> 
</g>
<g >
</g>
<g style="fill:#000000; fill-opacity:1.0; 
stroke:#000000; stroke-width:0; stroke-opacity:1; 
stroke-linecap:round; stroke-linejoin:round;">
<path style="fill:#000000; fill-opacity:1.0; 
stroke:#000000; stroke-width:0; stroke-opacity:1; 
stroke-linecap:round; stroke-linejoin:round;fill-rule:evenodd;"
d="M 83958.1,40206.8
83948.6,40208.2
83939.2,40210.5
83930.1,40213.8
83921.4,40217.9
83913.1,40222.9
83905.4,40228.6
83898.2,40235.1
83891.7,40242.3
83886,40250
83881,40258.3
83876.9,40267.1
83873.6,40276.2
83871.3,40285.5
83869.8,40295.1
83869.4,40304.7
83869.4,40659.1
83869.8,40668.7
83871.3,40678.3
83873.6,40687.6
83876.9,40696.7
83881,40705.5
83886,40713.7
83891.7,40721.5
83898.2,40728.7
83905.4,40735.1
83913.1,40740.9
83921.4,40745.9
83930.1,40750
83939.2,40753.2
83948.6,40755.6
83958.1,40757
83967.8,40757.5
84223.7,40757.5
84233.3,40757
84242.9,40755.6
84252.3,40753.2
84261.4,40750
84270.1,40745.9
84278.4,40740.9
84286.1,40735.1
84293.3,40728.7
84299.8,40721.5
84305.5,40713.7
84310.5,40705.5
84314.6,40696.7
84317.9,40687.6
84320.2,40678.3
84321.7,40668.7
84322.1,40659.1
84322.1,40304.7
84321.7,40295.1
84320.2,40285.5
84317.9,40276.2
84314.6,40267.1
84310.5,40258.3
84305.5,40250
84299.8,40242.3
84293.3,40235.1
84286.1,40228.6
84278.4,40222.9
84270.1,40217.9
84261.4,40213.8
84252.3,40210.5
84242.9,40208.2
84233.3,40206.8
84223.7,40206.3
83967.8,40206.3
Z" /> 
<path style="fill:#000000; fill-opacity:1.0; 
stroke:#000000; stroke-width:0; stroke-opacity:1; 
stroke-linecap:round; stroke-linejoin:round;fill-rule:evenodd;"
d="M 83151.1,40206.8
83141.5,40208.2
83132.1,40210.5
83123,40213.8
83114.3,40217.9
83106,40222.9
83098.3,40228.6
83091.1,40235.1
83084.6,40242.3
83078.9,40250
83073.9,40258.3
83069.8,40267.1
83066.5,40276.2
83064.2,40285.5
83062.8,40295.1
83062.3,40304.7
83062.3,40659.1
83062.8,40668.7
83064.2,40678.3
83066.5,40687.6
83069.8,40696.7
83073.9,40705.5
83078.9,40713.7
83084.6,40721.5
83091.1,40728.7
83098.3,40735.1
83106,40740.9
83114.3,40745.9
83123,40750
83132.1,40753.2
83141.5,40755.6
83151.1,40757
83160.7,40757.5
83416.6,40757.5
83426.3,40757
83435.8,40755.6
83445.2,40753.2
83454.3,40750
83463,40745.9
83471.3,40740.9
83479.1,40735.1
83486.2,40728.7
83492.7,40721.5
83498.5,40713.7
83503.4,40705.5
83507.5,40696.7
83510.8,40687.6
83513.1,40678.3
83514.6,40668.7
83515,40659.1
83515,40304.7
83514.6,40295.1
83513.1,40285.5
83510.8,40276.2
83507.5,40267.1
83503.4,40258.3
83498.5,40250
83492.7,40242.3
83486.2,40235.1
83479.1,40228.6
83471.3,40222.9
83463,40217.9
83454.3,40213.8
83445.2,40210.5
83435.8,40208.2
83426.3,40206.8
83416.6,40206.3
83160.7,40206.3
Z" /> 
</g>
<g >
</g>
<g >
</g>
<g >
</g>
<g >
</g>
<g >
</g>
<g >
</g>
<g style="fill:#000000; fill-opacity:1.0; 
stroke:#000000; stroke-width:0; stroke-opacity:1; 
stroke-linecap:round; stroke-linejoin:round;">
<path style="fill:#000000; fill-opacity:1.0; 
stroke:#000000; stroke-width:0; stroke-opacity:1; 
stroke-linecap:round; stroke-linejoin:round;fill-rule:evenodd;"
d="M 73083.9,37150.7
73074.4,37152.1
73065,37154.4
73055.9,37157.7
73047.2,37161.8
73038.9,37166.8
73031.1,37172.5
73024,37179
73017.5,37186.2
73011.7,37193.9
73006.8,37202.2
73002.6,37211
72999.4,37220.1
72997,37229.4
72995.6,37239
72995.2,37248.6
72995.2,37465.2
72995.6,37474.8
72997,37484.4
72999.4,37493.7
73002.6,37502.8
73006.8,37511.6
73011.7,37519.8
73017.5,37527.6
73024,37534.8
73031.1,37541.2
73038.9,37547
73047.2,37552
73055.9,37556.1
73065,37559.3
73074.4,37561.7
73083.9,37563.1
73093.6,37563.6
73339.6,37563.6
73349.3,37563.1
73358.8,37561.7
73368.2,37559.3
73377.3,37556.1
73386,37552
73394.3,37547
73402.1,37541.2
73409.2,37534.8
73415.7,37527.6
73421.5,37519.8
73426.4,37511.6
73430.6,37502.8
73433.8,37493.7
73436.2,37484.4
73437.6,37474.8
73438.1,37465.2
73438.1,37248.6
73437.6,37239
73436.2,37229.4
73433.8,37220.1
73430.6,37211
73426.4,37202.2
73421.5,37193.9
73415.7,37186.2
73409.2,37179
73402.1,37172.5
73394.3,37166.8
73386,37161.8
73377.3,37157.7
73368.2,37154.4
73358.8,37152.1
73349.3,37150.7
73339.6,37150.2
73093.6,37150.2
Z" /> 
<path style="fill:#000000; fill-opacity:1.0; 
stroke:#000000; stroke-width:0; stroke-opacity:1; 
stroke-linecap:round; stroke-linejoin:round;fill-rule:evenodd;"
d="M 72385.1,37150.7
72375.6,37152.1
72366.2,37154.4
72357.1,37157.7
72348.4,37161.8
72340.1,37166.8
72332.3,37172.5
72325.2,37179
72318.7,37186.2
72312.9,37193.9
72308,37202.2
72303.8,37211
72300.6,37220.1
72298.2,37229.4
72296.8,37239
72296.3,37248.6
72296.3,37465.2
72296.8,37474.8
72298.2,37484.4
72300.6,37493.7
72303.8,37502.8
72308,37511.6
72312.9,37519.8
72318.7,37527.6
72325.2,37534.8
72332.3,37541.2
72340.1,37547
72348.4,37552
72357.1,37556.1
72366.2,37559.3
72375.6,37561.7
72385.1,37563.1
72394.8,37563.6
72640.8,37563.6
72650.5,37563.1
72660,37561.7
72669.4,37559.3
72678.5,37556.1
72687.2,37552
72695.5,37547
72703.3,37541.2
72710.4,37534.8
72716.9,37527.6
72722.7,37519.8
72727.6,37511.6
72731.8,37502.8
72735,37493.7
72737.4,37484.4
72738.8,37474.8
72739.3,37465.2
72739.3,37248.6
72738.8,37239
72737.4,37229.4
72735,37220.1
72731.8,37211
72727.6,37202.2
72722.7,37193.9
72716.9,37186.2
72710.4,37179
72703.3,37172.5
72695.5,37166.8
72687.2,37161.8
72678.5,37157.7
72669.4,37154.4
72660,37152.1
72650.5,37150.7
72640.8,37150.2
72394.8,37150.2
Z" /> 
</g>
<g >
</g>
<g >
</g>
<g >
</g>
<g style="fill:#000000; fill-opacity:1.0; 
stroke:#000000; stroke-width:0; stroke-opacity:1; 
stroke-linecap:round; stroke-linejoin:round;">
<path style="fill:#000000; fill-opacity:1.0; 
stroke:#000000; stroke-width:0; stroke-opacity:1; 
stroke-linecap:round; stroke-linejoin:round;fill-rule:evenodd;"
d="M 73302.1,39568.8
73292.6,39570.2
73283.2,39572.5
73274.1,39575.8
73265.4,39579.9
73257.1,39584.9
73249.4,39590.6
73242.2,39597.1
73235.7,39604.3
73230,39612
73225,39620.3
73220.9,39629.1
73217.6,39638.2
73215.3,39647.5
73213.8,39657.1
73213.4,39666.7
73213.4,40021.1
73213.8,40030.7
73215.3,40040.3
73217.6,40049.6
73220.9,40058.7
73225,40067.5
73230,40075.7
73235.7,40083.5
73242.2,40090.7
73249.4,40097.1
73257.1,40102.9
73265.4,40107.9
73274.1,40112
73283.2,40115.2
73292.6,40117.6
73302.1,40119
73311.8,40119.5
73567.7,40119.5
73577.3,40119
73586.9,40117.6
73596.3,40115.2
73605.4,40112
73614.1,40107.9
73622.4,40102.9
73630.1,40097.1
73637.3,40090.7
73643.8,40083.5
73649.5,40075.7
73654.5,40067.5
73658.6,40058.7
73661.9,40049.6
73664.2,40040.3
73665.7,40030.7
73666.1,40021.1
73666.1,39666.7
73665.7,39657.1
73664.2,39647.5
73661.9,39638.2
73658.6,39629.1
73654.5,39620.3
73649.5,39612
73643.8,39604.3
73637.3,39597.1
73630.1,39590.6
73622.4,39584.9
73614.1,39579.9
73605.4,39575.8
73596.3,39572.5
73586.9,39570.2
73577.3,39568.8
73567.7,39568.3
73311.8,39568.3
Z" /> 
<path style="fill:#000000; fill-opacity:1.0; 
stroke:#000000; stroke-width:0; stroke-opacity:1; 
stroke-linecap:round; stroke-linejoin:round;fill-rule:evenodd;"
d="M 72495.1,39568.8
72485.5,39570.2
72476.1,39572.5
72467,39575.8
72458.3,39579.9
72450,39584.9
72442.3,39590.6
72435.1,39597.1
72428.6,39604.3
72422.9,39612
72417.9,39620.3
72413.8,39629.1
72410.5,39638.2
72408.2,39647.5
72406.8,39657.1
72406.3,39666.7
72406.3,40021.1
72406.8,40030.7
72408.2,40040.3
72410.5,40049.6
72413.8,40058.7
72417.9,40067.5
72422.9,40075.7
72428.6,40083.5
72435.1,40090.7
72442.3,40097.1
72450,40102.9
72458.3,40107.9
72467,40112
72476.1,40115.2
72485.5,40117.6
72495.1,40119
72504.7,40119.5
72760.6,40119.5
72770.3,40119
72779.8,40117.6
72789.2,40115.2
72798.3,40112
72807,40107.9
72815.3,40102.9
72823.1,40097.1
72830.2,40090.7
72836.7,40083.5
72842.5,40075.7
72847.4,40067.5
72851.5,40058.7
72854.8,40049.6
72857.1,40040.3
72858.6,40030.7
72859,40021.1
72859,39666.7
72858.6,39657.1
72857.1,39647.5
72854.8,39638.2
72851.5,39629.1
72847.4,39620.3
72842.5,39612
72836.7,39604.3
72830.2,39597.1
72823.1,39590.6
72815.3,39584.9
72807,39579.9
72798.3,39575.8
72789.2,39572.5
72779.8,39570.2
72770.3,39568.8
72760.6,39568.3
72504.7,39568.3
Z" /> 
</g>
<g >
</g>
<g >
</g>
<g >
</g>
<g >
</g>
<g >
</g>
</g> 
</svg>
