<?xml version="1.0" standalone="no"?>
 <!DOCTYPE svg PUBLIC "-//W3C//DTD SVG 1.1//EN" 
 "http://www.w3.org/Graphics/SVG/1.1/DTD/svg11.dtd"> 
<svg xmlns="http://www.w3.org/2000/svg" version="1.1" 
    width="29.7002cm" height="21.0007cm" viewBox="0 0 116930 82680 ">
<title>SVG Picture created as AutoUSB-KIT-v6-F_CrtYd.svg date 2022/01/24 08:35:17 </title>
  <desc>Picture generated by PCBNEW </desc>
<g style="fill:#000000; fill-opacity:1;stroke:#000000; stroke-opacity:1;
stroke-linecap:round; stroke-linejoin:round; "
 transform="translate(0 0) scale(1 1)">
</g>
<g style="fill:#000000; fill-opacity:0.0; 
stroke:#000000; stroke-width:-0.000393701; stroke-opacity:1; 
stroke-linecap:round; stroke-linejoin:round;">
</g>
<g style="fill:#000000; fill-opacity:0.0; 
stroke:#000000; stroke-width:19.685; stroke-opacity:1; 
stroke-linecap:round; stroke-linejoin:round;">
<path d="M69666 47306
L69666 40416
" />
<path d="M76178 47306
L69666 47306
" />
<path d="M76178 40416
L76178 47306
" />
<path d="M69666 40416
L76178 40416
" />
<circle cx="81198.5" cy="38581.9" r="1082.68" /> 
<path d="M73624 15021
L80455 15021
" />
<path d="M73624 35238
L73624 15021
" />
<path d="M80455 35238
L73624 35238
" />
<path d="M80455 15021
L80455 35238
" />
<path d="M72469 36197
L69614 36197
" />
<path d="M72469 39957
L72469 36197
" />
<path d="M69614 39957
L72469 39957
" />
<path d="M69614 36197
L69614 39957
" />
<path d="M74560 35604
L79245 35604
" />
<path d="M74560 37809
L74560 35604
" />
<path d="M79245 37809
L74560 37809
" />
<path d="M79245 35604
L79245 37809
" />
<path d="M84568 35783
L84568 39916
" />
<path d="M82635 35783
L84568 35783
" />
<path d="M82635 39916
L82635 35783
" />
<path d="M84568 39916
L82635 39916
" />
<path d="M78020 39016
L78020 40197
" />
<path d="M75264 39016
L78020 39016
" />
<path d="M75264 40197
L75264 39016
" />
<path d="M78020 40197
L75264 40197
" />
<path d="M82382 35503
L82382 37472
" />
<path d="M80414 35503
L82382 35503
" />
<path d="M80414 37472
L80414 35503
" />
<path d="M82382 37472
L80414 37472
" />
<path d="M78298 46367
L76389 46367
" />
<path d="M78298 44596
L78298 46367
" />
<path d="M76389 44596
L78298 44596
" />
<path d="M76389 46367
L76389 44596
" />
<path d="M78689 38695
L76878 38695
" />
<path d="M78689 37868
L78689 38695
" />
<path d="M76878 37868
L78689 37868
" />
<path d="M76878 38695
L76878 37868
" />
<path d="M76689 38695
L74878 38695
" />
<path d="M76689 37868
L76689 38695
" />
<path d="M74878 37868
L76689 37868
" />
<path d="M74878 38695
L74878 37868
" />
<circle cx="79492.2" cy="40575.6" r="1082.68" /> 
<circle cx="77692.2" cy="42588.2" r="1082.68" /> 
<path d="M80623 47283
L80623 43897
" />
<path d="M80623 41181
L84560 41181
" />
<path d="M84560 41181
L84560 47283
" />
<path d="M84560 47283
L80623 47283
" />
<path d="M80623 41929
L80623 41181
" />
<path d="M80151 41929
L80151 43897
" />
<path d="M80151 43897
L80623 43897
" />
<path d="M80151 41929
L80623 41929
" />
<path d="M80237 14389
L73819 14389
" />
<path d="M73819 14389
L73819 12972
" />
<path d="M73819 12972
L80237 12972
" />
<path d="M80237 12972
L80237 14389
" />
<g >
</g>
<g >
</g>
<g >
</g>
<g >
</g>
<g >
</g>
<g >
</g>
<g >
</g>
<g >
</g>
<g >
</g>
<g >
</g>
<g >
</g>
<g >
</g>
<g >
</g>
<g >
</g>
<g >
</g>
<g >
</g>
<g >
</g>
<g >
</g>
<g >
</g>
<g >
</g>
<g >
</g>
<g >
</g>
<g >
</g>
<g >
</g>
<g >
</g>
<g >
</g>
<g >
</g>
<g >
</g>
<g >
</g>
<g >
</g>
<g >
</g>
<g >
</g>
</g> 
</svg>
