<?xml version="1.0" standalone="no"?>
 <!DOCTYPE svg PUBLIC "-//W3C//DTD SVG 1.1//EN" 
 "http://www.w3.org/Graphics/SVG/1.1/DTD/svg11.dtd"> 
<svg xmlns="http://www.w3.org/2000/svg" version="1.1" 
    width="29.7002cm" height="21.0007cm" viewBox="0 0 116930 82680 ">
<title>SVG Picture created as AutoUSB-KIT-v6-B_SilkS.svg date 2022/01/24 08:35:16 </title>
  <desc>Picture generated by PCBNEW </desc>
<g style="fill:#000000; fill-opacity:1;stroke:#000000; stroke-opacity:1;
stroke-linecap:round; stroke-linejoin:round; "
 transform="translate(0 0) scale(1 1)">
</g>
<g style="fill:#000000; fill-opacity:0.0; 
stroke:#000000; stroke-width:-0.000393701; stroke-opacity:1; 
stroke-linecap:round; stroke-linejoin:round;">
</g>
<g style="fill:#000000; fill-opacity:0.0; 
stroke:#000000; stroke-width:118.11; stroke-opacity:1; 
stroke-linecap:round; stroke-linejoin:round;">
<g transform="rotate(-90 77330 25200)">
<text x="77330" y="25987.4"
textLength="-18816" font-size="-2099.74" lengthAdjust="spacingAndGlyphs"
text-anchor="middle" opacity="0">AutoUSB-KIT v6</text>
</g>
<path d="M77067 15809
L77067 16559
" />
<path d="M76617 15603
L78192 16325
L76617 16653
" />
<path d="M77667 17984
L76617 17853
" />
<path d="M77667 17309
L76842 17206
L76692 17262
L76617 17403
L76617 17628
L76692 17787
L76767 17871
" />
<path d="M77667 18509
L77667 19109
" />
<path d="M78192 18799
L76842 18631
L76692 18687
L76617 18827
L76617 18977
" />
<path d="M76617 19727
L76692 19587
L76767 19521
L76917 19465
L77367 19521
L77517 19615
L77592 19699
L77667 19859
L77667 20084
L77592 20224
L77517 20290
L77367 20346
L76917 20290
L76767 20196
L76692 20112
L76617 19952
L76617 19727
" />
<path d="M78192 21124
L76917 20965
L76767 21021
L76692 21087
L76617 21227
L76617 21527
L76692 21686
L76767 21771
L76917 21865
L78192 22024
" />
<path d="M76692 22511
L76617 22727
L76617 23102
L76692 23261
L76767 23346
L76917 23439
L77067 23458
L77217 23402
L77292 23336
L77367 23196
L77442 22905
L77517 22764
L77592 22699
L77742 22643
L77892 22661
L78042 22755
L78117 22839
L78192 22999
L78192 23374
L78117 23589
" />
<path d="M77442 24705
L77367 24920
L77292 24986
L77142 25042
L76917 25014
L76767 24920
L76692 24836
L76617 24677
L76617 24077
L78192 24274
L78192 24799
L78117 24939
L78042 25005
L77892 25061
L77742 25042
L77592 24949
L77517 24864
L77442 24705
L77442 24180
" />
<path d="M77217 25727
L77217 26926
" />
<path d="M76617 27601
L78192 27798
" />
<path d="M76617 28501
L77517 27939
" />
<path d="M78192 28698
L77292 27686
" />
<path d="M76617 29176
L78192 29373
" />
<path d="M78192 29898
L78192 30798
" />
<path d="M76617 30151
L78192 30348
" />
<path d="M77667 32307
L76617 32551
L77667 33057
" />
<path d="M78192 34397
L78192 34097
L78117 33938
L78042 33854
L77817 33676
L77517 33563
L76917 33488
L76767 33544
L76692 33610
L76617 33751
L76617 34051
L76692 34210
L76767 34294
L76917 34388
L77292 34435
L77442 34379
L77517 34313
L77592 34172
L77592 33872
L77517 33713
L77442 33629
L77292 33535
" />
</g>
<g style="fill:#000000; fill-opacity:0.0; 
stroke:#000000; stroke-width:47.2441; stroke-opacity:1; 
stroke-linecap:round; stroke-linejoin:round;">
<path d="M75845 23301
L75845 24368
" />
<path d="M76464 23301
L75845 23301
" />
<path d="M76464 24368
L76464 23301
" />
<path d="M82145 36526
L82145 37593
" />
<path d="M82764 36526
L82145 36526
" />
<path d="M82764 37593
L82764 36526
" />
<path d="M83552 39490
L82485 39490
" />
<path d="M83552 40109
L83552 39490
" />
<path d="M82485 40109
L83552 40109
" />
<path d="M76178 45110
L76178 44636
" />
<path d="M75461 45110
L75461 44636
" />
<path d="M79015 32272
L77948 32272
" />
<path d="M79015 32890
L79015 32272
" />
<path d="M77948 32890
L79015 32890
" />
<path d="M79078 43939
L81444 43939
" />
<path d="M79963 46624
L81444 46624
" />
<path d="M81444 43939
L81444 44435
" />
<path d="M81444 46624
L81444 46128
" />
<path d="M84016 42260
L82487 42260
" />
<path d="M84016 43153
L84016 42260
" />
<path d="M82487 43153
L84016 43153
" />
<path d="M72729 37948
L72255 37948
" />
<path d="M72729 38665
L72255 38665
" />
<path d="M80875 14043
L80875 13569
" />
<path d="M80158 14043
L80158 13569
" />
<path d="M80146 36609
L80146 36404
" />
<path d="M79587 36609
L79587 36404
" />
<path d="M83589 40761
L83795 40761
" />
<path d="M83589 40202
L83795 40202
" />
<path d="M72193 37665
L73260 37665
" />
<path d="M72193 37047
L72193 37665
" />
<path d="M73260 37047
L72193 37047
" />
<path d="M72018 15108
L72542 15108
" />
<path d="M72018 15631
L72018 15108
" />
<path d="M72018 16131
L73065 16131
" />
<path d="M73065 16131
L73065 35155
" />
<path d="M72018 16131
L72018 35155
" />
<path d="M72018 35155
L73065 35155
" />
<path d="M81018 15108
L81542 15108
" />
<path d="M81018 15631
L81018 15108
" />
<path d="M81018 16131
L82065 16131
" />
<path d="M82065 16131
L82065 35155
" />
<path d="M81018 16131
L81018 35155
" />
<path d="M81018 35155
L82065 35155
" />
<path d="M72642 40221
L73768 40221
" />
<path d="M73768 40221
L73768 39465
" />
<path d="M73768 39465
L72642 39465
" />
</g>
<g style="fill:#000000; fill-opacity:0.0; 
stroke:#000000; stroke-width:59.0551; stroke-opacity:1; 
stroke-linecap:round; stroke-linejoin:round;">
<g transform="rotate(-90 75330 23975)">
<text x="75330" y="24171.9"
textLength="-615.111" font-size="-524.934" lengthAdjust="spacingAndGlyphs"
text-anchor="middle" opacity="0">C4</text>
</g>
<path d="M75189 23909
L75170 23890
L75151 23834
L75151 23796
L75170 23740
L75208 23703
L75245 23684
L75320 23665
L75376 23665
L75451 23684
L75489 23703
L75526 23740
L75545 23796
L75545 23834
L75526 23890
L75508 23909
" />
<path d="M75414 24246
L75151 24246
" />
<path d="M75564 24153
L75283 24059
L75283 24303
" />
<g transform="rotate(-90 82430 35900)">
<text x="82430" y="36096.9"
textLength="-691.882" font-size="-524.934" lengthAdjust="spacingAndGlyphs"
text-anchor="middle" opacity="0">C3</text>
</g>
<path d="M82289 35834
L82270 35815
L82251 35759
L82251 35721
L82270 35665
L82308 35628
L82345 35609
L82420 35590
L82476 35590
L82551 35609
L82589 35628
L82626 35665
L82645 35721
L82645 35759
L82626 35815
L82608 35834
" />
<path d="M82645 35965
L82645 36209
L82495 36078
L82495 36134
L82476 36171
L82458 36190
L82420 36209
L82326 36209
L82289 36190
L82270 36171
L82251 36134
L82251 36021
L82270 35984
L82289 35965
" />
<text x="81830" y="39996.9"
textLength="-691.882" font-size="-524.934" lengthAdjust="spacingAndGlyphs"
text-anchor="middle" opacity="0">C2</text>
<path d="M81764 39940
L81745 39959
L81689 39978
L81651 39978
L81595 39959
L81558 39921
L81539 39884
L81520 39809
L81520 39753
L81539 39678
L81558 39640
L81595 39603
L81651 39584
L81689 39584
L81745 39603
L81764 39621
" />
<path d="M81914 39621
L81933 39603
L81970 39584
L82064 39584
L82101 39603
L82120 39621
L82139 39659
L82139 39696
L82120 39753
L81895 39978
L82139 39978
" />
<g transform="rotate(-90 75030 45000)">
<text x="75030" y="45196.9"
textLength="-1854.24" font-size="-524.934" lengthAdjust="spacingAndGlyphs"
text-anchor="middle" opacity="0">RDpw1</text>
</g>
<path d="M74851 44353
L75039 44221
" />
<path d="M74851 44128
L75245 44128
L75245 44278
L75226 44315
L75208 44334
L75170 44353
L75114 44353
L75076 44334
L75058 44315
L75039 44278
L75039 44128
" />
<path d="M74851 44521
L75245 44521
L75245 44615
L75226 44671
L75189 44709
L75151 44728
L75076 44746
L75020 44746
L74945 44728
L74908 44709
L74870 44671
L74851 44615
L74851 44521
" />
<path d="M75114 44915
L74720 44915
" />
<path d="M75095 44915
L75114 44953
L75114 45028
L75095 45065
L75076 45084
L75039 45103
L74926 45103
L74889 45084
L74870 45065
L74851 45028
L74851 44953
L74870 44915
" />
<path d="M75114 45234
L74851 45309
L75039 45384
L74851 45459
L75114 45534
" />
<path d="M74851 45890
L74851 45665
" />
<path d="M74851 45778
L75245 45778
L75189 45740
L75151 45703
L75133 45665
" />
<g transform="rotate(-90 79330 33700)">
<text x="79330" y="33896.9"
textLength="-2022.97" font-size="-524.934" lengthAdjust="spacingAndGlyphs"
text-anchor="middle" opacity="0">Cvusb1</text>
</g>
<path d="M79189 32968
L79170 32950
L79151 32893
L79151 32856
L79170 32800
L79208 32762
L79245 32743
L79320 32725
L79376 32725
L79451 32743
L79489 32762
L79526 32800
L79545 32856
L79545 32893
L79526 32950
L79508 32968
" />
<path d="M79414 33100
L79151 33193
L79414 33287
" />
<path d="M79414 33606
L79151 33606
" />
<path d="M79414 33437
L79208 33437
L79170 33456
L79151 33493
L79151 33550
L79170 33587
L79189 33606
" />
<path d="M79170 33774
L79151 33812
L79151 33887
L79170 33924
L79208 33943
L79226 33943
L79264 33924
L79283 33887
L79283 33831
L79301 33793
L79339 33774
L79358 33774
L79395 33793
L79414 33831
L79414 33887
L79395 33924
" />
<path d="M79151 34112
L79545 34112
" />
<path d="M79395 34112
L79414 34149
L79414 34224
L79395 34262
L79376 34281
L79339 34299
L79226 34299
L79189 34281
L79170 34262
L79151 34224
L79151 34149
L79170 34112
" />
<path d="M79151 34674
L79151 34449
" />
<path d="M79151 34562
L79545 34562
L79489 34524
L79451 34487
L79433 34449
" />
<g transform="rotate(-90 80592.2 45256.9)">
<text x="80592.2" y="45453.7"
textLength="-2191.69" font-size="-524.934" lengthAdjust="spacingAndGlyphs"
text-anchor="middle" opacity="0">LM1117</text>
</g>
<path d="M80414 44403
L80414 44216
L80807 44216
" />
<path d="M80414 44535
L80807 44535
L80526 44666
L80807 44797
L80414 44797
" />
<path d="M80414 45191
L80414 44966
" />
<path d="M80414 45078
L80807 45078
L80751 45041
L80714 45003
L80695 44966
" />
<path d="M80414 45566
L80414 45341
" />
<path d="M80414 45453
L80807 45453
L80751 45416
L80714 45378
L80695 45341
" />
<path d="M80414 45941
L80414 45716
" />
<path d="M80414 45828
L80807 45828
L80751 45791
L80714 45753
L80695 45716
" />
<path d="M80807 46072
L80807 46334
L80414 46166
" />
<text x="81830" y="42996.9"
textLength="-691.882" font-size="-524.934" lengthAdjust="spacingAndGlyphs"
text-anchor="middle" opacity="0">D9</text>
<path d="M81539 42978
L81539 42584
L81633 42584
L81689 42603
L81726 42640
L81745 42678
L81764 42753
L81764 42809
L81745 42884
L81726 42921
L81689 42959
L81633 42978
L81539 42978
" />
<path d="M81951 42978
L82026 42978
L82064 42959
L82083 42940
L82120 42884
L82139 42809
L82139 42659
L82120 42621
L82101 42603
L82064 42584
L81989 42584
L81951 42603
L81933 42621
L81914 42659
L81914 42753
L81933 42790
L81951 42809
L81989 42828
L82064 42828
L82101 42809
L82120 42790
L82139 42753
" />
<text x="73830" y="38496.9"
textLength="-691.882" font-size="-524.934" lengthAdjust="spacingAndGlyphs"
text-anchor="middle" opacity="0">R2</text>
<path d="M73764 38478
L73633 38290
" />
<path d="M73539 38478
L73539 38084
L73689 38084
L73726 38103
L73745 38121
L73764 38159
L73764 38215
L73745 38253
L73726 38271
L73689 38290
L73539 38290
" />
<path d="M73914 38121
L73933 38103
L73970 38084
L74064 38084
L74101 38103
L74120 38121
L74139 38159
L74139 38196
L74120 38253
L73895 38478
L74139 38478
" />
<text x="81300.1" y="14003.7"
textLength="-691.882" font-size="-524.934" lengthAdjust="spacingAndGlyphs"
text-anchor="middle" opacity="0">R1</text>
<path d="M81234 13984
L81103 13797
" />
<path d="M81009 13984
L81009 13591
L81159 13591
L81196 13610
L81215 13628
L81234 13666
L81234 13722
L81215 13760
L81196 13778
L81159 13797
L81009 13797
" />
<path d="M81609 13984
L81384 13984
" />
<path d="M81496 13984
L81496 13591
L81459 13647
L81421 13685
L81384 13703
" />
<g transform="rotate(-90 79217.6 36506.9)">
<text x="79217.6" y="36703.7"
textLength="-635.639" font-size="-524.934" lengthAdjust="spacingAndGlyphs"
text-anchor="middle" opacity="0">F1</text>
</g>
<path d="M79245 36375
L79245 36244
" />
<path d="M79039 36244
L79433 36244
L79433 36431
" />
<path d="M79039 36788
L79039 36563
" />
<path d="M79039 36675
L79433 36675
L79376 36638
L79339 36600
L79320 36563
" />
<text x="82530" y="40696.9"
textLength="-635.639" font-size="-524.934" lengthAdjust="spacingAndGlyphs"
text-anchor="middle" opacity="0">F0</text>
<path d="M82398 40471
L82267 40471
" />
<path d="M82267 40678
L82267 40284
L82455 40284
" />
<path d="M82679 40284
L82717 40284
L82754 40303
L82773 40321
L82792 40359
L82811 40434
L82811 40528
L82792 40603
L82773 40640
L82754 40659
L82717 40678
L82679 40678
L82642 40659
L82623 40640
L82604 40603
L82586 40528
L82586 40434
L82604 40359
L82623 40321
L82642 40303
L82679 40284
" />
<text x="73930" y="37496.9"
textLength="-691.882" font-size="-524.934" lengthAdjust="spacingAndGlyphs"
text-anchor="middle" opacity="0">C1</text>
<path d="M73864 37440
L73845 37459
L73789 37478
L73751 37478
L73695 37459
L73658 37421
L73639 37384
L73620 37309
L73620 37253
L73639 37178
L73658 37140
L73695 37103
L73751 37084
L73789 37084
L73845 37103
L73864 37121
" />
<path d="M74239 37478
L74014 37478
" />
<path d="M74126 37478
L74126 37084
L74089 37140
L74051 37178
L74014 37196
" />
<g transform="rotate(-90 71556 23228.3)">
<text x="71556" y="23425.2"
textLength="-2210.44" font-size="-524.934" lengthAdjust="spacingAndGlyphs"
text-anchor="middle" opacity="0">R_CON1</text>
</g>
<path d="M71377 22403
L71565 22272
" />
<path d="M71377 22178
L71771 22178
L71771 22328
L71752 22365
L71734 22384
L71696 22403
L71640 22403
L71602 22384
L71584 22365
L71565 22328
L71565 22178
" />
<path d="M71340 22478
L71340 22778
" />
<path d="M71415 23097
L71396 23078
L71377 23022
L71377 22984
L71396 22928
L71434 22890
L71471 22872
L71546 22853
L71602 22853
L71677 22872
L71715 22890
L71752 22928
L71771 22984
L71771 23022
L71752 23078
L71734 23097
" />
<path d="M71771 23340
L71771 23415
L71752 23453
L71715 23490
L71640 23509
L71509 23509
L71434 23490
L71396 23453
L71377 23415
L71377 23340
L71396 23303
L71434 23265
L71509 23247
L71640 23247
L71715 23265
L71752 23303
L71771 23340
" />
<path d="M71377 23678
L71771 23678
L71377 23903
L71771 23903
" />
<path d="M71377 24296
L71377 24071
" />
<path d="M71377 24184
L71771 24184
L71715 24146
L71677 24109
L71659 24071
" />
<g transform="rotate(-90 82579.6 23326.8)">
<text x="82579.6" y="23523.6"
textLength="-2135.45" font-size="-524.934" lengthAdjust="spacingAndGlyphs"
text-anchor="middle" opacity="0">L_CON1</text>
</g>
<path d="M82401 22501
L82401 22314
L82795 22314
" />
<path d="M82364 22539
L82364 22839
" />
<path d="M82438 23158
L82420 23139
L82401 23083
L82401 23045
L82420 22989
L82457 22951
L82495 22933
L82570 22914
L82626 22914
L82701 22933
L82738 22951
L82776 22989
L82795 23045
L82795 23083
L82776 23139
L82757 23158
" />
<path d="M82795 23401
L82795 23476
L82776 23514
L82738 23551
L82663 23570
L82532 23570
L82457 23551
L82420 23514
L82401 23476
L82401 23401
L82420 23364
L82457 23326
L82532 23308
L82663 23308
L82738 23326
L82776 23364
L82795 23401
" />
<path d="M82401 23739
L82795 23739
L82401 23964
L82795 23964
" />
<path d="M82401 24357
L82401 24132
" />
<path d="M82401 24245
L82795 24245
L82738 24207
L82701 24170
L82682 24132
" />
<text x="73430" y="39296.9"
textLength="-2060.46" font-size="-524.934" lengthAdjust="spacingAndGlyphs"
text-anchor="middle" opacity="0">D_RST1</text>
<path d="M72455 39278
L72455 38884
L72548 38884
L72605 38903
L72642 38940
L72661 38978
L72680 39053
L72680 39109
L72661 39184
L72642 39221
L72605 39259
L72548 39278
L72455 39278
" />
<path d="M72755 39315
L73055 39315
" />
<path d="M73373 39278
L73242 39090
" />
<path d="M73148 39278
L73148 38884
L73298 38884
L73336 38903
L73355 38921
L73373 38959
L73373 39015
L73355 39053
L73336 39071
L73298 39090
L73148 39090
" />
<path d="M73523 39259
L73579 39278
L73673 39278
L73711 39259
L73729 39240
L73748 39203
L73748 39165
L73729 39128
L73711 39109
L73673 39090
L73598 39071
L73561 39053
L73542 39034
L73523 38996
L73523 38959
L73542 38921
L73561 38903
L73598 38884
L73692 38884
L73748 38903
" />
<path d="M73861 38884
L74086 38884
" />
<path d="M73973 39278
L73973 38884
" />
<path d="M74423 39278
L74198 39278
" />
<path d="M74311 39278
L74311 38884
L74273 38940
L74236 38978
L74198 38996
" />
<g >
</g>
</g> 
</svg>
